<svg xmlns="http://www.w3.org/2000/svg" viewBox="0 0 1920 1371.6"><defs><style>.a{fill:#007257;}.b{fill:#c2c2c2;}.c{fill:#664700;}.aa,.ae,.d,.z{fill:none;stroke-miterlimit:10;}.aa,.d,.z{stroke:#000;stroke-linecap:square;}.d{stroke-width:0.2px;}.e{fill:#402d00;}.f{fill:#00a33d;}.g{fill:#2ddb6d;}.h{fill:#006b33;}.i{fill:#004520;}.j{fill:#1f1f1f;}.k{fill:#8c8c8c;}.l{fill:#fafafa;}.m{fill:#ffccb3;}.n{fill:#f2aa9d;}.o{fill:#d9828d;}.p{fill:#f2c2b6;}.q{fill:#bf0000;}.r{fill:#ffbf00;}.s{fill:#ff7f00;}.t{fill:#f69;}.u{fill:#e6b8b8;}.v{fill:#ffd866;}.w{fill:#bf7369;}.x{fill:#eb0000;}.y{fill:#662933;}.z{stroke-width:0.7px;}.ab{fill:gray;}.ac{fill:#fff;}.ad{fill:#746e46;}.ae{stroke:#999;stroke-width:3px;stroke-dasharray:11.95 11.95;}</style></defs><title>cover</title><rect class="a" width="1920" height="50"/><path class="b" d="M1611,1228.3c-43.06,12.24-88.38,21.23-130.66,37.82-17.3,6.8-9.59,12.88-9,24.3,0.2,4.18,9.9-.43,4.47,9.54-3.92,7.18-8.47,14-12.18,21.32-15.1,29.65-7,34.34,24.92,32,24.6-1.81,49-7.79,72.74-14.12,15.93-4.25,52-14.78,57.46-33.7,5.54-19.2-17-25.17-30.46-32.08,19.15-10.73,74.19-36.25,22.74-45.07"/><path class="c" d="M1614.67,786.08c2,19.08,4.31,38.16,6.49,57.26,26.62-4.91,92.08-5,84.06-46.7-7.89-41-61.16-14-90.55-10.56"/><path class="d" d="M1614.67,786.49q3.25,28.42,6.49,56.85c26.62-4.91,92.08-5,84.06-46.7-7.89-41-61.16-14-90.55-10.56"/><path class="e" d="M1704.42,794.6c-0.63,1.65,0,3.48-.81,5.29-3.53-7.27-7.93-15-13.4-7.31,1.17-4.52.45-6.92,3.25-11.37-2.51,2.63-6.23,4.31-8.93,8.12,1.21-4.3,1.54-7.76,3.65-12.18-11,16.38-61.05,29.59-73.5,9.34l7.31,56c29.81-5.8,89.1-4.67,82.43-47.92"/><path class="f" d="M1462.4,610.66c41-7.11,88.36-17.46,131.36-17.46,34.31,0,37.21-40.83,10.76-57.66-15.78-10-35.56-4-53.2-.61-24.8,4.77-50,5.07-74.71,9.14-30.73,5-45.57,48.43-14.21,66.59"/><path class="d" d="M1462,610.66c44.32-7.13,89.55-10.74,133.6-17.46,30.73-4.68,36.73-40,8.94-57.66-15.78-10-35.56-4-53.2-.61-24.8,4.77-50,5.07-74.71,9.14-30.73,5-45.57,48.43-14.21,66.59"/><path class="f" d="M1468.9,696.34h-0.4c26.28,11.76,183.92,91.5,196.13,60.09,9.72-25-18.29-15.25-22.74-22.33-0.07-.11,4.48-19.54,4.47-22.74-0.06-11.76-4.47-24.17-4.47-36.55,0-33.81,2.22-59.72-30.46-78.37-29.92-17.08-73.33-6.24-105.58-1.22-27.48,4.28-54.37,5.22-53.6,38.58,0.46,19.9,11.35,43.17,16.65,62.54"/><path class="d" d="M1468.5,696.34c26.69,11,183.69,92.08,196.13,60.09,9.72-25-18.29-15.25-22.74-22.33-0.07-.11,4.48-19.54,4.47-22.74-0.06-11.76-4.47-24.17-4.47-36.55,0-33.81,2.22-59.72-30.46-78.37-29.92-17.08-73.33-6.24-105.58-1.22-27.48,4.28-54.37,5.22-53.6,38.58,0.46,19.9,11.35,43.17,16.65,62.54"/><path class="g" d="M1469.3,695.93c3.66-30.38-17.13-56.7-8.93-89.75-16.37,28.54,2,60.87,8.93,89.75"/><path class="h" d="M1642.29,637.05c-4-11.29-20.64-42.87-38.58-27.21-11.46,10-.16,29.73,6.49,39,14.19,19.72,28.83,31.62,28.83,58.89,0,24.89-90.41-6.06-107-10.55-17.18-4.65-54.75-3.54-58.27-23-3.32-18.34-12.29-34.16-14.62-52.18-0.56-4.32-1.76-19.69-1.63-21.11,1.25-14-5.37-7.31,6.91-15,15.91-10,52.32-8.41,71.88-11,14.54-1.89,38.25,3.66,48.32-8.94,6.65,15.81,26.09,14.44,37.76,5.28,0.22,19.91-18.21,23.46-34.11,21.53,25.42,0.53,50,18.42,54,44.26"/><path class="d" d="M1588.28,592.79c16.07,2,34.59-1.77,34.11-21.93"/><path class="i" d="M1557.42,592.79c-44.57-6.76-54,85.43,4.67,67.4,4.76-1.46-1.61-20.69-1.83-29.64-0.33-13.28,2.08-24.68-2.84-37.76"/><path d="M1617.51,582.23c-10.48,8.05-29.37-1.22-42.23-1.22-22.51,0-63.93-.18-81.22,14.21,18.68,6.95,44.46-1.17,63.55-2.84,18-1.58,46.61,5.51,59.9-10.15"/><path class="d" d="M1617.52,582.64c-11.32,7.41-31.83-1.5-45.08-1.63-21.54-.2-61.94.53-78.37,14.21,18.68,6.95,44.46-1.17,63.55-2.84,18-1.58,46.61,5.51,59.9-10.15"/><path class="j" d="M1602.89,629.34c1.15,7.31,2.41,14.62,3.66,21.93l-81.82,3.54c-27.51,1.19-48.65,12.84-53.81-17.35l132-8.12"/><path class="d" d="M1602.9,629.74l3.66,21.52-81.82,3.54c-27.51,1.19-48.65,12.84-53.81-17.35l132-8.12"/><path d="M1642.28,637.05c-20.06-69.62-132.26-54.37-181.91-30.86,28.85,4.42,66.91,2.36,95-5.68,35.74-10.22,79.73-13.28,86.9,36.55"/><path class="d" d="M1641.88,637.05c-16.9-70.86-134.25-53.23-181.51-30.86,28.85,4.42,66.91,2.36,95-5.68,35.74-10.22,79.73-13.28,86.9,36.55"/><path class="k" d="M1596,581.42c-10.12,1.64,14.12,114.72,26.8,112.48L1596,581.42"/><path class="d" d="M1596,581.42c-10.12,1.64,14.12,114.72,26.8,112.48L1596,581.42"/><path class="l" d="M1594.78,582.64c-4,18,13.34,96.18,26,109.23l-26-109.23"/><path class="k" d="M1461.58,588.73c-9.43,1.74,13.63,114.37,26.8,112.89l-26.8-112.89"/><path class="d" d="M1461.58,589.14c-8.4,1.06,13,114,26.8,112.48l-26.8-112.89"/><path class="l" d="M1460.78,590.35c-5.37,15.31,14,96.8,25.57,108.83l-25.58-108.83"/><path class="m" d="M1514.78,981.4c11.75-5.35,28.25-16,41.63-12.39,15.52,4.21,4.34,40.93,1.83,51.77-4.09,17.62-7,41.94-19.69,18.07-9.41-17.75-19.67-37.66-23.76-57.46"/><path class="d" d="M1514.78,981.4c11.75-5.35,28.25-16,41.63-12.39,15.52,4.21,4.34,40.93,1.83,51.77-4.09,17.62-7,41.94-19.69,18.07-9.41-17.75-19.67-37.66-23.76-57.46"/><path class="n" d="M1518.43,986.67c4.29-2.49,30.56-17.21,37.36-13,11.54,7.17-7.35,59.17-13.4,69.85C1538,1033.35,1540,1022,1540,1011c0-15.74-14-14.13-21.52-24.36"/><path class="o" d="M1518.43,986.69c4.29-2.49,30.56-17.21,37.36-13,11.54,7.17-7.35,59.17-13.4,69.85-1.82-11.7,1.62-23.12,1.62-34.93,0-18.18-15.82-11.77-25.58-21.93"/><path class="m" d="M1587.06,1047.62c-11.66,18-24,35.17-19.29,57.24,2.57,12,8.12,65.55,27.21,61.32,36.92-8.18-4.73-98.2-7.92-118.57"/><path class="d" d="M1587.06,1047.62c-11.66,18-24,35.17-19.29,57.24,2.57,12,8.12,65.55,27.21,61.32,36.92-8.18-4.73-98.2-7.92-118.57"/><path class="n" d="M1605.74,1144.65c-9.68,18-16.25-18.1-17.87-27-4-21.91-5.29-48.19-.81-70-15.64,25.06-22.69,41.2-15.43,70.25,2.72,10.91,4.61,39.78,15.43,45.89,12.85,7.25,19.06-7,18.68-19.09"/><path class="m" d="M1557.83,963.11c9.94,0,22.17-1.17,32.89-.8,44.45,1.56,32.13,24.67,16.25,56.44-8.2,16.4-24.37,36.83-24.37,55.84,0,31.06-.56,136.54-44.87,120.41-17.94-6.53-4.09-50.33-2.64-65,1.86-18.75-1.22-35-1.22-53.4,0-37.85,17.24-75.94,24-113.5"/><path class="d" d="M1557.82,963.52c10.83-.77,22-1.6,32.89-1.21,44.45,1.56,32.13,24.67,16.25,56.44-8.2,16.4-24.37,36.83-24.37,55.84,0,31.06-.56,136.54-44.87,120.41-17.94-6.53-4.09-50.33-2.64-65,1.86-18.75-1.22-35-1.22-53.4,0-37.85,17.24-75.94,24-113.5"/><path class="n" d="M1569.6,963.94c11.55-1,53.62,2.75,50.15,20.11-5.75,28.79-40.14,47.1-42.23,76.55-1.78,25,3.19,47.38-3,72.28-3.78,15.09-8.05,58.82-20.91,67.41-22.42,15-10.91-42.13-10.36-46.7,3-24.85,7.4-48.81-.61-72.89-2.63-7.9,2-30.31,3.25-39,3.75-26.37,17.95-51.58,23.75-77.77"/><path class="m" d="M1666.65,772.71c-24.82,3.44-36.06,7.7-28,31.65,5.67,16.89,8.13,28.21,9.75,46.7,3.25,37.29,12.45,67.5,5.69,104.77-0.39,2.17-3.64,24.38-3.66,24.36,9.16,8.26,11.91-17.05,15.43-15.43,9.93,4.57-9.75,25.76-6.9,30.05,6.79,10.23,26.67-12.49,30.05-19.09,7.93-15.47,1.69-25.37-1.63-42.23-3.48-17.67-2-35.21-2-53.4,0-39.65-5.12-70.94-18.68-107.41"/><path class="d" d="M1666.65,772.71c-24.82,3.44-36.06,7.7-28,31.65,5.67,16.89,8.13,28.21,9.75,46.7,3.25,37.29,12.45,67.5,5.69,104.77-0.39,2.17-3.64,24.38-3.66,24.36,9.16,8.26,11.91-17.05,15.43-15.43,9.93,4.57-9.75,25.76-6.9,30.05,6.79,10.23,26.67-12.49,30.05-19.09,7.93-15.47,1.69-25.37-1.63-42.23-3.48-17.67-2-35.21-2-53.4,0-39.65-5.12-70.94-18.68-107.41"/><path class="p" d="M1684.52,903.46c-1,7.76-2.21,17.53-6.91,23.95-10.58-18.11-21.53-61.1-17.06-82,6.88-32.16,21.39,9.54,23.15,24.36-0.63-26.45-10.74-50.8-12.59-75.93,1.35,1.05,2.65,2.74,4.06,3.65-6.81-14.69-11-35.78-32.49-19.09-17.75,13.8,1.26,26.22,5.28,43.86,3.77,16.54.93,36.21,4.06,53.4,3.35,18.42,9.26,36,7.71,55-1,12.53-8.68,27.88-6.09,40.61,3.66,18-5.25-.28,8.12-2,7.88-1,4.48-6.05,4.06,10.15-0.08,3.14-8.12,14.34-5.68,16.65,3.93,3.71,18.76-7.95,21.52-10.56,23.69-22.4-.05-54,2.84-82"/><path class="o" d="M1654.47,960.71a17,17,0,0,0,.41,6.47c7.42-13.47,12.89-1,13,8.12,0.12,10.74-18.36,25.7,2.44,17.87,11.48-4.32,18.84-17.24,17.05-24.36,1,3.84-10.83-5.09-11.37-6.09-5.15-9.62.43-24.28-1.62-32.08-3.86-14.67-14.76-32.35-18.28-49.95-3.87-19.38-20.46-80-.41-93.4-6.93,2.9-14.22,4.58-21.52,3.65,5.24,13.92,11.07,24.34,13.4,38.58,2.4,14.66,1.54,29.94,4.06,44.67,2.62,15.35,7.51,29.74,7.72,45.49,0.19,14.22-4.52,26.83-4.87,41"/><path class="m" d="M1464.44,792.18c38-25.15,33.86,25.29,33.3,54-0.58,29.25-11.09,61-4.87,89.34,2.24,10.21,14.26,33.77,6.91,44.67-6.34,9.4-9.73-6.15-11.78-12.59-1.33,11.91,13.42,27.05,9.34,28-17.83,4.23-24.72-26.61-26-38.17-3.39-31-2.86-62.51-8.12-93.8-4.27-25.39-7.52-46.59,1.22-71.47"/><path class="d" d="M1464,792.58c58.48-40.83,22.92,116,28.83,142.94,2.24,10.21,14.26,33.77,6.91,44.67-6.34,9.4-9.73-6.15-11.78-12.59-1.33,11.91,13.42,27.05,9.34,28-17.83,4.23-24.72-26.61-26-38.17-3.39-31-2.86-62.51-8.12-93.8-4.27-25.39-7.52-46.59,1.22-71.47"/><path class="p" d="M1473,967.61c2.47-27.67,1.13-52.17-2.86-80-2.81-19.73-8.13-39.87-9.54-59.69-0.89-12.44,5.28-23.22,4.26-35.33-8.59,28.72-3.42,53,1.22,82,5,31.13,3.53,62.21,6.9,93"/><path class="o" d="M1484.73,990.33a12.6,12.6,0,0,0,5.27,2.45c-11.33-10.94-11.68-51.49-13-67.41-1.9-22.93,6.29-46.39,5.07-69.64-0.79-15.16-7.14-29.65-9.95-44.47,3.08,4.4,8.77,9.18,12.18,13.81,2-18.79-9-21.85-19.49-32.49,58.35-42.32,20.94,115.68,26.39,140.5,3.25,14.81,13.64,74.94-3.25,33.3-2.51,11.64,2.16,22.73,12.59,28.43-0.4-.14-0.54,0-0.4.4a22.7,22.7,0,0,1-15.43-4.87"/><path class="o" d="M1557.83,979.35c18.31,0,82.49-4.64,45.48,18.5-25.27,15.8-17.71,50.86-40.2,67.2-2.69-17.1,4.86-41.48,9.54-58.68,6.32-23.2-3.32-10.27-14.82-27"/><path class="q" d="M1634.57,852.27c-38.83,3.32-97.27.7-132.38,18.28-8.09,4-2.47,40.82-2,49.54,0.62,12.17,1.43,55.86,8.52,65,8.9,11.43,48,13.45,45.89-6.09,16.35,15.28,46.28,9.55,66.19,6.5,7.4-1.14,8.05-21.56,10.15-30.05,8.93-36.11,11.75-66.44,3.65-103.14"/><path class="d" d="M1634.57,852.27c-38.83,3.32-97.27.7-132.38,18.28-8.09,4-2.47,40.82-2,49.54,0.62,12.17,1.43,55.86,8.52,65,8.9,11.43,48,13.45,45.89-6.09,16.35,15.28,46.28,9.55,66.19,6.5,7.4-1.14,8.05-21.56,10.15-30.05,8.93-36.11,11.75-66.44,3.65-103.14"/><path d="M1544,617.16c-7.16,7.54-31.59,26.88-22.33,36.14,9,9,78,48.31,85.07,31.27,9.12-21.88-38.7-27.21-48.53-34.11-12-8.42-13.85-19.22-14.21-33.3"/><path class="d" d="M1544,617.16c-7.16,7.54-31.59,26.88-22.33,36.14,9,9,78,48.31,85.07,31.27,9.12-21.88-38.7-27.21-48.53-34.11-12-8.42-13.85-19.22-14.21-33.3"/><path class="r" d="M1572.06,659.39c-16.86-5.63-53.78-18.89-68.86-3.86-26.51,26.48-50.06,34.53-47.72,75.73,0.9,15.77-2.39,68.69,15.84,66.39,16.08-2,19.9-6.52,19.9,12.59,0,13.74-.46,25.71,2,39.39,6.6,36.22,22.28,30.48,54.62,36.35,15.51,2.81,87.12-16.33,89.34-36.35,1.47-13.33-5-28.8-2.23-41.62,3.36-15.65,2.34-7.35,15.84-16.65,25.07-17.29,13.26-29.79,1.63-54.41-20.92-44.26-37.11-58.82-80.4-77.56"/><path class="d" d="M1571.63,659.79c-23-9.59-49-14.86-70.25-2.44-31,18.16-48.22,41.08-45.69,76.75,1.11,15.68-2.84,65.87,15.63,63.55,16.08-2,19.9-6.52,19.9,12.59,0,13.74-.46,25.71,2,39.39,6.6,36.22,22.28,30.48,54.62,36.35,15.51,2.81,87.12-16.33,89.34-36.35,1.47-13.33-5-28.8-2.23-41.62,3.36-15.65,2.34-7.35,15.84-16.65,25.07-17.29,13.26-29.79,1.63-54.41-20.92-44.26-37.11-58.82-80.4-77.56"/><path class="s" d="M1477.8,696.37c2.79-7.66,7.6-17.65,11.4-26,3.23,4.34,8.07,9.05,11,13-8.71,4.14-10.21,11.92-2.84,19.09-3.65-1.73-7.69-1.92-11.37-3.66,8.38,8.15,12.18,20.86,17.06,31.26-5.47-5.8-10.55-12.21-15.84-18.27,1.46,9.91,7.41,20.33,14.62,28-21.46-24.74-14.23,2-6.09,17.47-25.12-40.08-8,23.51-6.5,36.55-7,1.18-14.06,2.4-21.12,3.65,12.24-17.18-.75-38.39-6.49-55.63,9.3,12.51,6.47-2.41,7.11-10.76,0.9-11.76.85-26.44,9.14-34.72"/><path class="s" d="M1637,853.1c-14.68,11.9-18.64-8.06-30.46,10.13,0.77-6.81,17.66-53.85,1.22-55.63-1.07-.12-32.18,57.47-37,62.94,15.86-20.42,31.36-50.79,31.26-76.34a87.84,87.84,0,0,1-22.74,34.11c8.53-21.42,20.41-43.79,14.82-68-3.42-14.84.62-50.31,16.45-23.76,2.24-8.25.47-17.71-.41-26.8,7.67,14.41,2.46,38,14.62,49.14,0.82-4.38,3.59-9.69,4.06-13.8,1.29,13,3.39,26.87,13.4,37,5.33,5.36,16.75-4.4,12.59,5.28-2.41,5.61-16.45,8.32-21.93,8.93,2.65,18.46,5,38.22,4.06,56.85"/><path d="M1481.48,574.92c0.54,8.1,5.63,58.85-2.43,58.07,0.42,0-7.55-16.7-7.71-17.46-2.67-12.15-1.75-33.2,10.15-40.61"/><path class="d" d="M1481.48,574.92c0.54,8.1,5.63,58.85-2.43,58.07,0.42,0-7.55-16.7-7.71-17.46-2.67-12.15-1.75-33.2,10.15-40.61"/><path class="m" d="M1480.67,589.94c-4-20.68,38.11-22.82,49.94-15,12.89,8.49,20.12,36,17.46,50.36-1.45,7.83-5.79,14.11-7.71,21.52-4,15.25.23,29-8.33,44.87-16.2,30.09-42.52-17.77-48.73-34.31-7.24-19.29-10.91-47.65-2.64-67.41"/><path class="d" d="M1480.25,589.94c-2.4-22.81,42.24-23.13,53.4-12,10.06,10.06,17,33.38,14.41,47.31-1.45,7.83-5.79,14.11-7.71,21.52-4,15.25.23,29-8.33,44.87-16.2,30.09-42.52-17.77-48.73-34.31-7.24-19.29-10.91-47.65-2.64-67.41"/><path class="p" d="M1519.65,594.41c35.13,19.84,19.1,59.11-4.47,84.46,15.57-21.62,17.51-61.49,4.47-84.46"/><path class="o" d="M1534.27,647.61c-3,13.92-11.86,41-30,36.14a11.69,11.69,0,0,0,0-1.22c15.54-1.81,25.65-21.24,30.05-34.92"/><path class="n" d="M1503.4,682.13c-12.65-4-10.88-12.75,2-15-25.08,9-47.07-91.6,6.5-96.24-36.49,1.89-35.25,25-33.3,54,1.19,17.68,3.19,51.75,24.77,57.26"/><path class="n" d="M1490.41,578.58c48.61-14.92-5.07,66.09,2,85.28-8.46-14.27-8.37-25.82-7.71-40.2,0.54-11.83-.4-31.19,5.68-45.07"/><path class="o" d="M1496.5,629.74c2.17,32.24-18.74,7.12-6.9.81-2.65-.76-5.56-2.14-8.53-2,6.35-4,9.46-1.16,15.43,1.22"/><path d="M1495.29,630.15a35.09,35.09,0,0,1-15.44-1.22c6.13-3.21,9.76-1,15.43,1.22"/><path class="o" d="M1495.28,673.19c6.66,6.72,18.13,4.58,17.87-7.3-3.93,6-10.65,8.64-17.87,7.3"/><path class="n" d="M1523.32,623.25c-2.16.71-6.71,4.5-8.54,6.09,17.77,12.53-4.54,11.66-4.87,13.4-1.41,7.35,6.42,16.46,3.25,26.8-2.23-10-4.72-20.2-13.81-19.49-0.1-19.86,1-29.63,24-26.8"/><path d="M1504.23,631a55.45,55.45,0,0,0,17.05-2.44c-6.71-2.77-11.12-.7-17.05,2.44"/><path class="o" d="M1504.23,652.89c-2.05,3-3.64,5.48-7.72,6.91-0.44-1.68-.43-5-0.81-6.91,4.27,4,4.33.38,8.53,0"/><path class="t" d="M1491.64,659c4.6,9.92,14,9,21.11,2-6.56-1.63-14.13-1.32-21.11-2"/><path class="l" d="M1495.28,661.42c4.58,0.84,6.49,4.51,12.18,0a64.06,64.06,0,0,0-12.18,0"/><path d="M1501.79,653.7h0"/><path d="M1492.84,624.05a73.05,73.05,0,0,1-13.39,1.62,7.73,7.73,0,0,0,0-1.22q0.61,0.2.4-.4c4.44-1.11,8.56,0,13,0"/><path d="M1505.44,624.46c4-.14,12.06-0.66,17.87,0-4.76-4.28-11.56-4.13-17.87,0"/><path d="M1482.29,571.67c-4.93,9.6-8.95,19.93-8.52,30.86,9.11-9.5,20.09-1.84,30.86,1.62-1.1-.72-2.52-0.93-3.65-1.62,7.59,2.5,16.39,3.82,22.33,0,9,5.56,18.32,18.21,13.4,29.64,3.71-5.38,8-11.33,13-2.43,11-16.83-5.31-49-20.3-58.48-20.14-12.77-29,1.59-47.11.4"/><path class="u" d="M1503.4,683.34c15.45,32.18,35.86-29.29,36.14-41.42,5.67,26.55-22.48,91.81-36.14,41.42"/><path class="v" d="M1515.59,702.84c-6.33-3.44-10.7-9.87-13-17.05,3.17,53,47.52,5.58,39-32.9-0.73,17.49-5.56,45.38-26,49.95"/><path class="v" d="M1524.11,883.53c-13.71-10.56-29.26-5.59-20.3-25.78,7.41-16.69,13-36.4,10.15-54.62-3.11,14-5.71,29.89-13.4,42.23-9.62-17.38-2.84-35.7-2.84-54.42,0-16.28-16.61-29.44-16.24-47.1-6.14,20.15,10.15,54.35,10.15,77.76,0,24.2.27,62.68,32.49,61.93"/><path class="v" d="M1457.12,791.37a15.72,15.72,0,0,0,4.87,3.24c-5.12-12.57,3.59-27.9,0-42.23-4.71-18.82,6.71-29.7,5.28-47.11-1.67,3.63-6.74,9.06-8.53,13-0.92-11.26,3.62-22.61,8.93-32.49-23.51,26.21-6.39,73.37-10.56,105.58"/><path class="s" d="M1618.35,683.75c-18,.91-13.26,29.07-39,9.74-10.33-7.76-19-32-31.27-12,0.35-4.32-.84-10.46,0-14.46h-0.81c-4,10-8.94,20.5-17.05,28.27,11.23-11.85,15.41-29.25,8.53-44.34,26.26,3.22,58.13,17.53,79.59,32.85"/><path class="f" d="M1479.44,673.6c13.43-11.77,10.9,4.67,7.12,16-8,23.94-12.63,52-5.48,76.55-14.94-29.31-26.17-65.57-1.62-92.59"/><path class="d" d="M1479.46,674c14.16-13,10.59,5.2,7.1,15.63-8,23.94-12.63,52-5.48,76.55-14.94-29.31-26.17-65.57-1.62-92.59"/><path class="f" d="M1567.16,657.75c23.89,10.25,25.44,8.13,30.46,32.09,3.38,16.12,6,32.49,10.56,48.32,9.22,31.81,39,66.59,28.83,101.52-11.7-25.09-22-50.91-34.52-75.94-16.76-33.54-21.17-72.36-35.33-106"/><path class="d" d="M1567.16,658.16c26,9.33,26.1,9.86,31.07,34.72,3.33,16.66,6.21,33.54,11.37,49.75,9.62,30.25,37.17,63.47,27.41,97.05-11.7-25.09-22-50.91-34.52-75.94-16.76-33.54-21.17-72.36-35.33-106"/><path class="w" d="M1666.25,963.95c0.65,1.67,2.75,6.31,3.25,8.52,4.7-18.32-22-13.93-17.46,4.06,2.53,10.09,10.87-8.79,14.21-12.59"/><path class="o" d="M1553.76,1056.92c14,11.84.07,57-3.66,72.7,2.64-17.21-4.52-33.41-3.25-49.13,0.6-7.35,10.12-12.65,6.9-23.56"/><path class="x" d="M1605.74,1134.1c5.71,11.4,18,51.27,2,57.66-29.18,11.68-29.46-23.55-31.27-45.89,10.9,4.22,25.93.86,29.24-11.78"/><path class="d" d="M1605.74,1134.51c7.78,14.69,16.94,48.87,0,58.07-26.37,14.32-27.84-29.49-29.24-46.7,10.9,4.22,25.93.86,29.24-11.78"/><path class="q" d="M1605.74,1134.11c-1.83,4-1.58,7.9-5.69,11.36,1.31-1.71,4.58-4.22,6.09-6.09,1.82,7.5,15.48,71.12-8.93,53.6-14.64-10.51,7.55-45.73-20.3-45.88,10.77,3.33,27.7.83,28.83-13"/><path class="x" d="M1529,1177.94c-4.68,15.8-19.7,55.77,5.48,63,21.66,6.16,29.67-37.06,30.66-53.2-12.64,6.13-31.15,6-36.14-9.75"/><path class="d" d="M1529,1178.36c-5,15.68-19.5,55.43,5.48,62.54,21.66,6.16,29.67-37.06,30.66-53.2-12.64,6.13-31.15,6-36.14-9.75"/><path class="q" d="M1557,1190.93l5.28-1.21c-11.28,9.58-15.09,58-22.54,59.09-27,3.85-3.62-48.37-4.67-61.11,6.33,4.85,14.3,5.66,21.93,3.24"/><path class="y" d="M1615.89,1180.39c-7.49,8.34-19.43,10.94-30.25,8.52-5.72-1.27-3.8,14.26-5.48,17.87-5.27,11.34-50.2,36.82-25.79,47.31,11.68,5,47.88-11,59.49-17.26,17.61-9.43,11.57-8.67,8.93-26.39-1.58-10.63.17-21.47-6.9-30.05"/><path class="d" d="M1615.49,1180.79c-9.39,10.13-25,2.44-31.68,7.72-4.08,3.25-2.31,15.26-4.47,20.3-5.27,12.31-51.52,34.09-23.55,45.89,10.33,4.36,47.59-12.26,58.07-17.87,17.61-9.43,11.57-8.67,8.93-26.39-1.58-10.63.17-21.47-6.9-30.05"/><path class="j" d="M1548.49,1248.61c3.22-10.29,15.88-7.7,25.17-13,9.83-5.61,11.76-11,19.49-19.49,6.05-6.65,20-11.49,14.62-21.93-2.38-4.65-17.62-.46-23.55-4.88,13.84,3.9,29-8.84,35.73-2,2.23,2.25,7.67,40.56,6.09,43.45-6.46,11.82-69.5,29.32-77.56,17.87"/><path d="M1628.48,1224.66c-10,17.19-63.25,30.2-80.81,27.2,11.76,12.5,83-9.76,80.81-27.2"/><path class="d" d="M1628.48,1225.06c-11.08,16.94-62.93,29.86-80.81,26.8,11.76,12.5,83-9.76,80.81-27.2"/><path d="M1618.74,1232.35c-16.07,5.87-32.09,12.32-48.32,17.87,21.81-16.6,19.8-21.86,48.32-17.87"/><path d="M1592.75,1206.38c2.36-3.6,6.14-11.44,8.53-16.65-7,3.84-8.1,9-8.53,16.65"/><path class="d" d="M1592.34,1206.38a86.11,86.11,0,0,0,8.94-16.65c-7,3.84-8.1,9-8.53,16.65"/><path class="g" d="M1462.82,610.25c-18.12-14.51-16.53-49.9,4.87-60.91,12-6.17,31.57-2.07,45.07-7.71-20.16,2.66-52.28-3.29-63.35,17.87-7.7,14.71-.66,42.25,13.4,50.76"/><path d="M1688.17,776.75c-9.92,10.6-6.14,40,8.53,43.85-12.8-7-16.2-32.12-8.53-43.86"/><path d="M1693.45,781.21c-11.58,7.48-3.47,32.83,10.15,29.64-11.35-2.64-17.87-19.89-10.15-29.64"/><path d="M1695.08,790.55c-1.22,8,.61,16.08,9.34,12.59-7.63.54-7.64-5.1-9.34-12.59"/><path class="y" d="M1519.65,1220.6c-7.13,14.42-7.31,32.75-15,47.91-8.35,16.38-26.7,31.51-2,41,44.35,17.1,50.36-56,51.17-80.81-11.32,3.35-26.22,1-34.11-8.12"/><path class="d" d="M1519.65,1220.6c-7.13,14.42-7.31,32.75-15,47.91-8.35,16.38-26.7,31.51-2,41,44.35,17.1,50.36-56,51.17-80.81-11.32,3.35-26.22,1-34.11-8.12"/><path class="j" d="M1511.93,1310.73a61.06,61.06,0,0,1-18.27-6.09c54.67-2.69,12.38-54.86,51.17-69.84-9-2.44-19.37-5.2-25.58-13,6.82,5.67,31.91,5.58,33.7,7.71s-1.74,31.46-2.43,35.74c-2.62,16.2-17.32,49.73-38.58,45.48"/><path d="M1548.48,1279.86c-15.92,21.11-31.46,41.62-59.28,21.94,0,18.9,35.12,10.89,44.67,2.84,6.84-5.77,12.65-16.7,14.62-24.77"/><path class="d" d="M1548.08,1280.27c-15.52,21.32-31.49,40.9-58.88,21.53,0,18.9,35.12,10.89,44.67,2.84,6.84-5.77,12.65-16.7,14.62-24.77"/><path class="z" d="M1592.34,1210.42l-9.34-3.66,3.25,6.9-7.31,1.22,2.84,6.09-8.53,1.22,2,5.27-4.47-2.43,8.53-.81-3.66-4.88,8.94-.81-4.87-7.72c4.14-.26,8.92-1.43,13-0.81"/><path d="M1539.55,1229.93c3.14,2.73-7.67,11.58-13,18.68,2.48-7.48,6.73-14.16,13-18.68"/><path class="d" d="M1539.14,1230.33c4,2.55-7.61,11.64-12.59,18.27,2.48-7.48,6.73-14.16,13-18.68"/><path class="aa" d="M1524.93,1251.44l-10.15-2.43,7.72,6.9c-3.77.59-7.19,3.48-11,4.06l8.12,7.72-10.15,1.22,6.09,8.12c-3.75.49-7.6,2.44-11.37,2.43,3.52,0.68,7,1.22,10.56,1.89-2.44-2.57-4.87-4.85-7.31-7.85H1518c-3.24-2-5-6.64-8.12-9.2,3.8-.12,7.57-2.37,11.37-2.37-3.44-1.81-5.89-5.47-9.34-7.27,4.3-1,9-3,13.4-3.23"/><rect class="ab" x="125" y="506" width="279" height="306"/><rect class="ab" x="417" y="506" width="280" height="306"/><rect class="ab" x="710" y="506" width="279" height="306"/><rect class="ab" x="1002" y="506" width="279" height="306"/><path class="ac" d="M317.32,631.87a167.49,167.49,0,0,0,66.5,44.42,9.2,9.2,0,0,1,6.12,8.78,14.75,14.75,0,0,1-.8,4.52c-1.86,4.26-5.05,6.12-8.78,6.12a14.3,14.3,0,0,1-5.59-1.33,224.35,224.35,0,0,1-41.5-26.07,82.34,82.34,0,0,1,1.33,14.36v23.41c0,13-6.92,18.35-20.48,18.35H271a104.37,104.37,0,0,0,29.79,20.48c19.68-10.91,34.58-22.08,44.42-31.65a10.39,10.39,0,0,1,7.18-3.19,9.58,9.58,0,0,1,5.85,1.86c2.93,2.13,4.52,4.79,4.52,7.18a6.21,6.21,0,0,1-2.66,5.32,270.15,270.15,0,0,1-41.23,27.93c16.76,5.32,35.91,8.51,58,10.11,5.59,0.27,8.51,3.46,8.51,8.51v2.13c-0.8,5.32-4.52,8.25-10.11,8.25h-1.86c-52.67-5.59-92.57-21.28-123.69-56.93H206.13v32.45c18.89-2.66,37.77-5.85,52.94-9.58,1.33,0,2.39-.27,3.19-0.27,4.26,0,6.92,2.39,7.45,6.92a5.19,5.19,0,0,1,.27,2.13c0,4.26-2.13,6.65-7.18,8-26.87,6.38-67.57,13-98.69,16H163c-5.05,0-8.51-2.93-9.31-8.51v-1.86c0-5.05,3.19-8,8.25-8.25,7.71-.53,16.23-1.33,25-2.13V693.84a135.43,135.43,0,0,1,1.33-18.35,212.45,212.45,0,0,1-36.18,22.08,14.17,14.17,0,0,1-6.38,1.6c-3.19,0-6.12-1.6-8.25-5.59a14.21,14.21,0,0,1-1.33-5.32c0-3.72,2.13-6.92,6.38-8.51,26.33-9.84,51.61-27.13,67.3-47.88H148.94c-4.26,0-6.65-3.46-6.65-7.71s2.39-7.45,6.65-7.45H252.42V600.21H168.62c-3.72,0-6.12-3.46-6.12-7.45,0-4.26,2.39-7.45,6.12-7.45h83.79v-16h-93.1c-4.26,0-6.65-3.72-6.65-8s2.39-7.18,6.65-7.18h56.13c-3.46-5.32-8.25-11.17-11.7-15.43a5.6,5.6,0,0,1-1.33-3.46c0-2.39,1.86-4.79,5.05-6.12a13.52,13.52,0,0,1,5.32-1.06,10,10,0,0,1,7.45,2.93,212,212,0,0,1,16.49,23.14h52.4a156.86,156.86,0,0,0,13.57-21.55,8.74,8.74,0,0,1,8-4.52,18.07,18.07,0,0,1,5.05.8c4,1.33,6.12,4,6.12,6.65a7.08,7.08,0,0,1-.8,3.19,133.74,133.74,0,0,1-10.64,15.43H367.6c4,0,6.65,2.39,6.65,7.18,0,4.26-2.66,8-6.65,8H270.51v16H358c3.72,0,6.12,2.93,6.12,7.45,0,4-2.39,7.45-6.12,7.45H270.51V616.7h107.2c4.26,0,6.65,2.66,6.65,7.45,0,4.26-2.39,7.71-6.65,7.71H317.32Zm-0.8,49.48V672c0-4.52-2.39-5.85-7.18-5.85h-95.5c-5.32,0-8,1.33-8,5.85v9.31H316.52Zm-7.18,29c4.79,0,7.18-1.06,7.18-5.85v-9.58H205.87v15.43H309.34Zm-78.21-78.47a120.84,120.84,0,0,1-18.35,22.08,93.37,93.37,0,0,1,14.63-1.33h26.33V643c0-3.72,3.72-5.85,9.31-5.85s9.58,2.13,9.58,5.85v9.58h29.53a84.74,84.74,0,0,1,14.36,1.33,231.76,231.76,0,0,1-20.75-22.08H231.14Z"/><path class="ac" d="M588.38,592.5c1.6,31.92,5.32,58.79,12,81.66a135.13,135.13,0,0,0,4.52,13.57,242.37,242.37,0,0,0,31.39-65.17c1.33-4,4.26-5.85,7.71-5.85a10.42,10.42,0,0,1,4.79,1.06c4.52,1.33,6.92,4.26,6.92,8.25a20.53,20.53,0,0,1-.53,4,254.23,254.23,0,0,1-41.23,78.47c8.25,16.49,18.35,30.06,28.46,38,2.93,2.39,5.59,3.46,7.45,3.46,2.39,0,4-1.6,5.32-4.79,1.86-4.52,4-14.63,4.79-25.54,0.53-5.59,4.26-8.25,9.58-8.25h0.8c5.59,0.27,9,3.72,9,8.78v0.53c-1.06,14.63-4.79,31.12-10.91,41-4.52,7.45-10.37,11.17-17,11.17-5.85,0-12.5-2.93-19.68-8.25-11.17-8.78-22.34-22.88-31.92-39.63a223,223,0,0,1-65.17,48.15,14.17,14.17,0,0,1-6.38,1.6,9.47,9.47,0,0,1-8.25-4.79,11.57,11.57,0,0,1-1.86-6.12c0-3.46,1.86-6.38,5.59-8.25a200.39,200.39,0,0,0,66.77-50,193.11,193.11,0,0,1-8.25-22.88c-7.45-24.74-11.7-54.27-13.57-90.18h-83c-7.18,0-10.11,2.93-10.11,10.38v31.39h48.94c14.9,0,21.81,6.92,21.81,21.81,0,20-2.93,46.29-6.65,60.38-4,16.76-13,20.75-29.53,20.75-6.92,0-17.29-.8-23.94-2.66-4.52-1.33-7.18-4.26-7.18-8.51a15.6,15.6,0,0,1,.53-3.46c1.06-4.79,3.72-6.65,7.45-6.65a18.33,18.33,0,0,1,3.46.53A95.82,95.82,0,0,0,508,718.32c9,0,11.7-1.33,13.3-8.25,3.19-13,5.05-32.72,5.05-50.28,0-5.59-2.39-7.18-8-7.18H475.32c-1.06,46.29-8,83.26-24.21,116-1.86,4.52-5.05,6.12-8.78,6.12a12.64,12.64,0,0,1-6.65-1.86c-3.46-1.6-5.32-4.26-5.32-7.45A16,16,0,0,1,432,759c18.09-34.58,23.41-72.62,23.41-130.34V598.08c0-16.23,8-24.47,24.21-24.47h88.31c-0.27-10.64-.53-21.55-0.53-33.25,0-5.05,4.26-7.71,9.84-7.71,5.85,0,10.11,2.66,10.11,7.71,0,11.7,0,22.61.53,33.25H669c5.05,0,7.18,4,7.18,9.31,0,5.59-2.13,9.58-7.18,9.58h-80.6Zm62.78-38.57a9.18,9.18,0,0,1,3.72,7.18,9.3,9.3,0,0,1-2.13,5.85,9.71,9.71,0,0,1-7.45,3.72,10.62,10.62,0,0,1-6.38-2.39,184.19,184.19,0,0,0-27.4-18.62,7.76,7.76,0,0,1-4.26-6.92,8.13,8.13,0,0,1,1.86-5.32,8.89,8.89,0,0,1,7.45-4,11.94,11.94,0,0,1,5.05,1.33C630.94,539.29,643.17,547,651.15,553.93Z"/><path class="ac" d="M805.16,577.33c4.79,0,7.18,3.46,7.18,8.78,0,5.05-2.39,9.31-7.18,9.31H731.48c-4.79,0-7.18-4-7.18-9.31s2.39-8.78,7.18-8.78h73.68Zm-66.5,94.43c-4.52,0-6.65-4-6.65-8.78s2.13-8.78,6.65-8.78h61.71c4.26,0,6.65,4,6.65,8.78s-2.39,8.78-6.65,8.78H738.66Zm68.9,80.6c0,13.83-6.38,19.68-19.68,19.68H752c-13.57,0-20-5.85-20-19.68v-41c0-13.57,6.38-19.15,20-19.15h35.91c13.3,0,19.68,5.59,19.68,19.15v41ZM738.93,633.73c-4.52,0-6.65-4-6.65-8.78s2.13-8.78,6.65-8.78h61.45c4.26,0,6.65,4,6.65,8.78,0,4.52-2.39,8.78-6.65,8.78H738.93Zm0.8-77.41c-4.52,0-6.92-4.26-6.92-9,0-5.05,2.39-8.51,6.92-8.51h60.92c4.26,0,6.65,3.46,6.65,8.51,0,4.79-2.39,9-6.65,9H739.73ZM782,755.56c4.52,0,6.92-1.6,6.92-6.38V714.33c0-4.79-2.39-6.38-6.92-6.38H757.81c-4.79,0-7.18,1.6-7.18,6.38v34.85c0,4.79,2.39,6.38,7.18,6.38H782Zm93.1-76.61c0,50.81-17,78.21-46.55,96a13.39,13.39,0,0,1-7.45,2.66c-3.19,0-5.85-1.6-7.71-4.79a11.17,11.17,0,0,1-1.6-5.59,10.81,10.81,0,0,1,5.85-9.31c30.32-17,38-42.83,38-79,0-5.05,3.19-7.71,9.58-7.71C871.13,671.23,875.12,673.89,875.12,678.95Zm71.56-40.17c16,0,22.08,5.32,22.08,19.68v22.61c0,5.05-3.72,7.45-9.84,7.45-5.85,0-9.84-2.39-9.84-6.92V662.19c0-4.52-2.93-6.12-8.25-6.12H842.41c-5.05,0-7.71,1.6-7.71,6.12v18.89c0,4.52-3.72,7.18-9.31,7.18-5.85,0-9.58-2.39-9.58-7.45V658.47c0-14.36,6.38-19.68,21.55-19.68H946.68ZM952,601c4.52,0,6.92,3.72,6.92,8.78,0,4.79-2.39,8.78-6.92,8.78H829.1c-4.52,0-6.92-4-6.92-8.78,0-5.05,2.39-8.78,6.92-8.78h51.34V575.47H823.52c-4.79,0-7.18-3.72-7.18-8.78,0-5.32,2.39-8.78,7.18-8.78h56.93V539.83c0-4.79,3.46-8,9.58-8s9.31,3.19,9.31,8v18.09h64.91c4.79,0,7.45,3.19,7.45,8.51s-2.66,9-7.45,9H899.33V601H952Zm-52.94,77.94c0-4.79,3.46-7.71,9.84-7.71,5.85,0,9.84,2.93,9.84,7.71v70.49c0,5.85,1.33,7.18,13.57,7.18,12.77,0,16-1.33,17.82-4.79,2.13-4.26,3.19-13.57,4-23.94,0.27-4.26,3.19-7.18,8.25-7.18h1.33c5.59,0.53,8.78,3.19,8.78,7.71V729c-0.8,16.49-3.19,29.53-7.45,35.91-4.79,6.92-12.5,9.84-33.78,9.84-27.13,0-32.19-4.26-32.19-20.75v-75Z"/><path class="ac" d="M1030.46,598.62c-4.79,0-7.45-4.26-7.45-9.84,0-5.32,2.66-9.58,7.45-9.58h98.42V539.56c0-5.32,4-8,10.11-8,6.38,0,10.11,2.66,10.11,8V579.2h101.61c4.79,0,7.45,4,7.45,9.58,0,5.32-2.66,9.84-7.45,9.84h-92.3c22.08,44.42,61.18,86.45,100.82,109.86a11.5,11.5,0,0,1,5.59,10.11,13.81,13.81,0,0,1-1.86,6.65,11.49,11.49,0,0,1-9.31,5.32,12.87,12.87,0,0,1-7.18-2.39c-37.77-24.47-77.94-67.3-100-120.24a274.88,274.88,0,0,1,2.66,38.84v56.93h45.22c4.79,0,7.45,4.26,7.45,9.31,0,5.59-2.66,9.31-7.45,9.31H1149.1v48.95c0,5.05-3.72,7.71-10.11,7.71-6.12,0-10.11-2.66-10.11-7.71V722.31h-45.75c-4.79,0-7.71-3.72-7.71-9.31,0-5.05,2.93-9.31,7.71-9.31h45.75V647c0-11.7.53-26.33,2.39-38.84-21.28,51.34-60.38,96-95.76,120.23a14.83,14.83,0,0,1-8.25,2.93c-3.19,0-6.12-1.6-8.51-4.52a11,11,0,0,1,2.93-16.23c35.11-23.14,75-65.17,97.09-112h-88.31Z"/><path class="a" d="M236.46,241.24a30.64,30.64,0,0,0-1.33,5.32l-0.53,4.52-1.33,7.71-0.8,6.38c-11.17,76.34-31.92,128.75-67.57,169.71-12.5-12-17.56-16-30.32-22.88,16-16,26.87-32.19,38-56.66,11.44-24.74,20.75-57.72,25-91.24a195.16,195.16,0,0,0,2.39-25.8v-3.72ZM312,234.59c0.27,12.24,5.05,38.3,11.17,61.18,13,49.21,31.65,85.12,59.32,114.91-13.57,8.51-19.15,13-29.26,24.47-35.38-42.29-60.12-103.48-70.49-175C281.15,249.22,280.35,245,279,241Zm22.61-16c9.84,13.83,15.69,25,22.08,42.83l-20.22,6.38c-6.12-17-11.7-28.46-21.81-43.36Zm36.71,38.57c-6.12-16.49-12.77-29.79-21.28-42l19.68-5.59a157.42,157.42,0,0,1,21.81,41.23Z"/><path class="a" d="M433.83,280.88c11.17,20.48,16.49,33.25,26.07,63l-30.06,9.58c-6.92-26.87-12.24-41-24.21-64.37Zm152.69,1.86c-1.6,4-2.13,5.32-3.72,13.57-7.71,36.18-19.68,65.44-36.71,88.58C526.4,411.75,504.32,429,465,449c-6.92-11.7-10.11-15.69-21.28-26.33,18.62-7.18,29.53-13,45.22-24.47,31.12-22.61,48.94-49.74,60.38-92.3,3.46-13,4.79-22.34,4.79-30.59Zm-96-12.77c14.1,26.33,19.15,38,25.8,61.18l-29.53,9.31c-5.05-20.22-13-40.7-24.21-62.51Z"/><path class="a" d="M822.73,263.59c-2.66,4-3.72,6.38-6.65,16C803.85,320,785,355.89,761.55,382.23c-24.47,27.93-53.73,48.68-94.7,67.57-7.45-13.3-10.91-17.82-22.61-27.93,26.6-10.91,41.5-18.89,58.26-31.39,38-28.2,63-64.64,77.67-112.25l-80.07,1.33a260.35,260.35,0,0,1-62.25,68.1c-8-10.91-12-14.36-25.8-22.88,30.32-20.75,49.48-42,68.9-77.14,8.25-15.16,12.5-25.54,13.57-35.11L731,219.7c-1.6,2.39-1.6,2.39-4.52,8.25-0.8,1.33-.8,1.33-3.46,7.45l-3.46,6.92a62.7,62.7,0,0,1-4.26,8.51c3.46-.27,7.71-0.53,12.77-0.53l58.26-.8c10.37,0,13.3-.53,19.42-2.66Z"/><path class="a" d="M925.14,241.24a30.65,30.65,0,0,0-1.33,5.32l-0.53,4.52-1.33,7.71-0.8,6.38C910,341.53,889.23,393.93,853.59,434.9c-12.5-12-17.56-16-30.33-22.88,16-16,26.87-32.19,38-56.66,11.44-24.74,20.75-57.72,25-91.24a195.24,195.24,0,0,0,2.39-25.8v-3.72Zm75.55-6.65c0.27,12.24,5.05,38.3,11.17,61.18,13,49.21,31.65,85.12,59.32,114.91-13.57,8.51-19.15,13-29.26,24.47-35.38-42.29-60.12-103.48-70.49-175C969.83,249.22,969,245,967.7,241Zm75.54,15.69a30.72,30.72,0,1,1-30.86-30.59A30.88,30.88,0,0,1,1076.23,250.29Zm-48.15,0A17.42,17.42,0,1,0,1045.38,233,17.26,17.26,0,0,0,1028.09,250.29Z"/><path class="a" d="M1121.72,280.88c11.17,20.48,16.49,33.25,26.07,63l-30.06,9.58c-6.92-26.87-12.24-41-24.21-64.37Zm152.69,1.86c-1.6,4-2.13,5.32-3.72,13.57C1263,332.48,1251,361.74,1234,384.89c-19.68,26.87-41.76,44.16-81.13,64.11-6.92-11.7-10.11-15.69-21.28-26.33,18.62-7.18,29.53-13,45.22-24.47,31.12-22.61,48.95-49.74,60.38-92.3,3.46-13,4.79-22.34,4.79-30.59Zm-96-12.77c14.1,26.33,19.15,38,25.8,61.18l-29.53,9.31c-5.05-20.22-13-40.7-24.21-62.51Z"/><path class="a" d="M1515.14,276.62c-2.13,4.79-2.66,8.51-2.93,17.82-0.8,30.06-3.72,71-6.38,88.58-6.92,46-16.23,56.93-48.15,56.93-10.11,0-19.15-.8-33-2.93-0.53-16.76-1.33-21.81-6.12-34,15.69,4.26,26.33,6.12,35.11,6.12,11.44,0,15.43-5.85,19.68-29,3.19-18.35,5.85-54.53,5.85-85.12l-62,.27c-3.72,33.25-9.31,53.2-21.28,76.08-14.63,28.2-38.3,52.4-71.82,73.68-9-14.1-12.77-18.35-23.94-28.2,33.25-17.56,55.06-38.57,69.16-67,7.18-14.63,11.17-27.66,13.57-46.29,0.53-3.72,1.06-6.38,1.33-8.25l-44.16.27c-16.23,0-20,.27-28.73,1.33l-0.27-32.72c9,1.6,16.23,2.13,29.53,2.13l46.55-.27c0.8-10.11,1.33-25.54,1.33-33.25v-6.65a51.65,51.65,0,0,0-.8-10.37l35.64,0.8a77.23,77.23,0,0,0-1.06,8.25c0,1.6-.27,3.19-0.27,5.05-0.53,5.59-.53,5.59-1.06,19.42-0.27,5.85-.27,8.25-1.06,16.76l59.05-.27c12,0,14.36-.27,21-2.39Z"/><path class="a" d="M1549.18,313.33c11.7,1.6,16.76,1.86,43.09,1.86h141.78c26.33,0,31.39-.27,43.09-1.86v37c-10.64-1.33-13.57-1.33-43.36-1.33H1592.54c-29.79,0-32.72,0-43.36,1.33v-37Z"/><path class="a" d="M173.32,154.07a69.56,69.56,0,0,0,.32,7.41h-7.47a67,67,0,0,0,.38-7.47V135c0-2.11,0-3.64.13-7.09a33.89,33.89,0,0,1-4.6,6.64,38.36,38.36,0,0,0-2.94-7.6,46.23,46.23,0,0,0,9.7-16.41,39.54,39.54,0,0,0,2.43-8.94l7,2.49c-0.45,1.28-.57,1.66-1.21,3.45a98.48,98.48,0,0,1-3.7,9.58v37Zm4.85-41.88c0-3.19-.06-5.11-0.26-7.21,2.3,0.19,4,.26,7,0.26H210a71.62,71.62,0,0,0,7.66-.26,60.66,60.66,0,0,0-.25,7.85v39.84a67.22,67.22,0,0,0,.32,8.36H211v-2.81H184.49V161h-6.7a61.14,61.14,0,0,0,.38-7.85v-41ZM184.49,152H211V111.49H184.49V152Zm17.81-22.09c1.85,0,3.19-.06,4.72-0.19a35.05,35.05,0,0,0-.13,4.4v9.7a23.09,23.09,0,0,0,.19,4.47c-1.66-.13-3.32-0.19-4.72-0.19h-9.51c-1.85,0-3.26.06-4.66,0.19a31.38,31.38,0,0,0,.19-4.34v-9.9a30.73,30.73,0,0,0-.19-4.34c1.4,0.13,2.62.19,4.66,0.19h1.6v-5.68h-4.53a23.61,23.61,0,0,0-3.83.26v-6.45a17.09,17.09,0,0,0,3.89.32h4.47V117a23.79,23.79,0,0,0-.32-4.28h6.77a25,25,0,0,0-.26,4.28v1.4h4.66a18.57,18.57,0,0,0,4.09-.32v6.45a24.24,24.24,0,0,0-4-.26h-4.79v5.68h1.66ZM194,142.52h7.21v-6.9H194v6.9Z"/><path class="a" d="M258,103.38a42.3,42.3,0,0,0-.45,6.58c0,10.28,1.66,17,6.26,25.15a42.79,42.79,0,0,0,10.09,12.13,42.52,42.52,0,0,0,9.9,6.9,23.75,23.75,0,0,0-5,7.09c-7.79-5.43-11.68-9.07-16.22-15.07a50.47,50.47,0,0,1-8.49-17.43,45.69,45.69,0,0,1-5,12.9,44.45,44.45,0,0,1-9.83,12.26,53.84,53.84,0,0,1-9.9,7.34,19.1,19.1,0,0,0-5-6.58c6.51-3.45,9.9-6.06,13.92-10.66,8.24-9.45,11.68-19.92,11.68-35.24a41.78,41.78,0,0,0-.26-5.36H258Z"/><path class="a" d="M308.34,110.34a34.83,34.83,0,0,0,2.94-8.43l8,0.77c-1.15,3.06-2.11,5.23-3.26,7.66h14.81a65.48,65.48,0,0,0,7.85-.32,61.07,61.07,0,0,0-.32,7.85v35.75a43.67,43.67,0,0,0,.38,7.41h-7.34v-3.26H299.91V161H292.7a54.91,54.91,0,0,0,.38-7.41V117.87a62.93,62.93,0,0,0-.32-7.85,63.67,63.67,0,0,0,7.79.32h7.79ZM300,124.07h31.54v-7.21H300v7.21Zm0,13.41h31.54V130.2H300v7.28Zm0,13.85h31.54V143.6H300v7.73Z"/><path class="a" d="M396.57,113.6a57.93,57.93,0,0,0,7.21-.32c-0.19,2-.32,4-0.32,6.45v34c0,2.55.13,5.23,0.38,7.85h-7.15v-3.13h-39v3.13H350.6a78.31,78.31,0,0,0,.38-7.92V119.41c0-2.23-.13-4.09-0.32-6.13a50.79,50.79,0,0,0,6.9.32h15.71v-4.66a42.57,42.57,0,0,0-.45-6.58h8a40.7,40.7,0,0,0-.45,6.64v4.6h16.15Zm-38.88,6.32v12.45h15.58V119.92H357.69Zm0,18.58V152h15.58V138.5H357.69Zm39-6.13V119.92H380.41v12.45h16.28Zm0,19.66V138.5H380.41V152h16.28Z"/><path class="a" d="M445,115.9a43.45,43.45,0,0,1-7.41,9.51,16.7,16.7,0,0,0-5.11-4.15,38.8,38.8,0,0,0,3.26-3.32c-1.4-.06-2.62-0.13-4.72-0.13h-6.7v2.11c-0.06,2-.06,2-0.19,4.66h6.38a45.43,45.43,0,0,0,5.11-.19c-0.19,1.92-.19,1.92-0.26,10.85-0.13,9.7-.83,17.11-1.85,20.43s-3.19,4.41-8.17,4.41c-1,0-1.66,0-3.32-.13a22.36,22.36,0,0,0-1.28-6.9,17.76,17.76,0,0,0,4.41.57c2,0,2.36-.51,2.87-4.28a176.93,176.93,0,0,0,.83-18.58h-5c-0.45,8-1,12.07-2.36,17A38.57,38.57,0,0,1,415,161.42a19.83,19.83,0,0,0-5-6c3.32-4.41,5.23-9.45,6.38-16.92,0.89-5.43,1.15-10.47,1.28-20.69H417a31.39,31.39,0,0,0-5.62.32v-6.9a32.34,32.34,0,0,0,6.26.38h4v-3.38a34.7,34.7,0,0,0-.38-5.62h7.53a33.69,33.69,0,0,0-.32,5.55v3.45H431a35.35,35.35,0,0,0,5.75-.32v5.3c3.64-4.72,6.32-10.34,6.9-14.17l7.09,1.34a27.24,27.24,0,0,0-1.21,2.68c-0.7,1.66-.83,2-1.34,3.19h15.13a45.47,45.47,0,0,0,6.58-.38v6.9a55.33,55.33,0,0,0-6.26-.26h-4.21l4.53,3.83c-1,.7-1.15.83-2.3,1.72L457,125a48.88,48.88,0,0,0,1.28,7.92,30.38,30.38,0,0,0,7.47-7.09l4.34,4.92a67.22,67.22,0,0,1-9.7,8.43C463.41,146,466,149.73,471,154a22.48,22.48,0,0,0-4.15,7,42.36,42.36,0,0,1-11.68-16.85c-1.92-4.66-2.87-8.75-3.83-15.71a28.52,28.52,0,0,1-2.68,1.53v24.52a61,61,0,0,0,.32,6.58h-7.41a44.93,44.93,0,0,0,.38-6.58V133.39c-1.53.77-2.62,1.28-3.19,1.53a19.37,19.37,0,0,0-3.06-6.19,64.92,64.92,0,0,0,13-6.26,62.19,62.19,0,0,0,9.38-6.58H445Z"/><path class="a" d="M484.09,142.07c0-2.68,0-3.06.13-7.41a31.47,31.47,0,0,1-5.81,5.43,29.33,29.33,0,0,0-3.19-6.83c6.7-4.34,13.28-11.36,15.71-16.85l6,4a22.58,22.58,0,0,0-2.11,2.81c-1.47,2.11-2,2.94-3.7,5v25.15a54.85,54.85,0,0,0,.45,8h-7.92a55.23,55.23,0,0,0,.45-8.11V142.07ZM496,106.38c-0.7.77-.7,0.77-1.92,2.17a61,61,0,0,1-14.68,12.77,29,29,0,0,0-4-6,40.27,40.27,0,0,0,11.43-8.75,22.34,22.34,0,0,0,3.06-4.47Zm8.62,22a67.67,67.67,0,0,0-7.85.38v-7.15a65.62,65.62,0,0,0,7.85.38h21.71a56.27,56.27,0,0,0,7.79-.38v7.15a66,66,0,0,0-7.6-.38h-2.75v25.41c0,5.49-1.85,6.83-9.58,6.83-2.17,0-4.09-.06-7.09-0.19a25.68,25.68,0,0,0-1.85-7.15,75.06,75.06,0,0,0,8.68.7c2.55,0,2.87-.13,2.87-1.53V128.34H504.58Zm-5.3-23a54.66,54.66,0,0,0,7.47.38H524a54.09,54.09,0,0,0,7.28-.38v7.09a62.81,62.81,0,0,0-7.15-.38H506.75a65.39,65.39,0,0,0-7.47.38v-7.09Z"/><path d="M565.49,141.3c-3.64,8.24-7.73,12-13,12-7.28,0-12.51-7.41-12.51-17.68A27.43,27.43,0,0,1,547,117c5.36-5.87,12.9-8.94,22-8.94,15.32,0,25.28,9.32,25.28,23.69,0,11-5.75,19.85-15.51,23.81a41.74,41.74,0,0,1-10,2.68,20.37,20.37,0,0,0-3.89-7.47c5.87-.77,9.7-1.79,12.7-3.51,5.55-3.06,8.87-9.13,8.87-16a15.82,15.82,0,0,0-7.85-14.17,14,14,0,0,0-6.45-1.92A92.38,92.38,0,0,1,565.49,141.3Zm-9.39-22.86a21.37,21.37,0,0,0-8.68,17.24c0,5.24,2.23,9.39,5,9.39,2.11,0,4.28-2.68,6.58-8.17a84.15,84.15,0,0,0,5.3-21.58A16.25,16.25,0,0,0,556.1,118.45Z"/><path class="a" d="M610.94,108.62a21.35,21.35,0,0,0,2.43-6.64l7.15,1.28c-0.89,1.79-.89,1.79-1.79,3.7-0.32.57-.45,1-0.89,1.66h4a63.27,63.27,0,0,0,6.58-.26c-0.13,1.92-.19,3.38-0.19,6.7v13.85c0,3.26,0,4.53.13,6.06-1.47-.06-2.87-0.13-4.34-0.13h-3.32v12.45l0.38-.06a54.57,54.57,0,0,0,3.06-11.75l4.66,1.21c-1.15,4.09-2.3,7.73-3.13,10,1-.19,1.6-0.26,3.19-0.64a23.14,23.14,0,0,0-1.6-3.58L631,141a59.87,59.87,0,0,1,4,9.45l-4.28,1.85a20.47,20.47,0,0,0-.64-2.23c-2.11.57-4.53,1.15-9.38,2v0.38a1.38,1.38,0,0,0,.45,1.15c0.83,0.57,3.45.77,11.3,0.77,5.43,0,12.26-.19,14.88-0.38,3-.25,4.6-1.08,5.17-2.62,0.45-1,.64-2.55.77-5.43a21.35,21.35,0,0,0,6.51,2.23c-0.51,4.6-.89,6.26-1.92,8-2.11,3.64-4.53,4-26.43,4-14.56,0-16.54-.83-16.54-6.77l-0.06-18.58h-1.72c-0.38,7.41-.77,10-2,14a30.66,30.66,0,0,1-6.7,11.94,16.65,16.65,0,0,0-5-5.36A19.66,19.66,0,0,0,606,144.5a39.16,39.16,0,0,0,1.28-9.64c-2.3,0-3.45.06-5.11,0.13,0.13-1.79.19-3.19,0.19-6.06V115c0-2.87-.06-4.53-0.19-6.64a53.58,53.58,0,0,0,6.38.26h2.36Zm-2.87,10.53h4.6v-5.36h-4.6v5.36Zm0,10.53h4.6v-5.49h-4.6v5.49Zm9.7-10.53h4.85v-5.36h-4.85v5.36Zm0,10.53h4.85v-5.49h-4.85v5.49Zm17.17-2.36a37.69,37.69,0,0,0-5.3.26v-6.19a37.62,37.62,0,0,0,5.3.26h5.62v-5.87H635.9a31.94,31.94,0,0,0-4.85.26v-6.13a31.94,31.94,0,0,0,4.85.26h4.66V107.6a26.6,26.6,0,0,0-.32-4.72h6.64a33.18,33.18,0,0,0-.26,4.6v2.68h5a22.75,22.75,0,0,0,4.6-.32V116a32.41,32.41,0,0,0-4.66-.26h-5v5.87h5.81a41.36,41.36,0,0,0,5.49-.26v6.26a32.45,32.45,0,0,0-5.49-.32H648c4.15,6.13,6.7,8.68,12.07,12.26a20,20,0,0,0-3.7,5.55,43.11,43.11,0,0,1-10-12.32c0.13,2,.19,4.79.19,6.7v6.13a38.29,38.29,0,0,0,.32,6.07h-6.64a36.51,36.51,0,0,0,.32-5.94V140c0-1.4.06-4.47,0.19-6.51a31.54,31.54,0,0,1-7.09,9.9,16.91,16.91,0,0,0-3.38-5.43A34.1,34.1,0,0,0,639,127.32h-4.09Z"/><path class="a" d="M709.32,115.19a69.36,69.36,0,0,0,8.24-.32,86.37,86.37,0,0,0-.38,9.64c-0.19,8.75-.83,19.54-1.47,23.75-0.83,5.87-1.72,8.11-3.7,9.51-1.66,1.21-4,1.72-7.6,1.72a73.6,73.6,0,0,1-9.77-.7,29.86,29.86,0,0,0-1.79-7.73,56.36,56.36,0,0,0,11,1.28c3,0,4-1.15,4.66-5.43,0.83-4.79,1.4-14.68,1.47-24.9h-17.3c-1.08,9.45-2.81,15.9-5.81,21.26-3.7,6.7-9.51,12.07-18.39,17a21.55,21.55,0,0,0-5.3-6.64c8.75-3.83,14.56-8.94,18-15.9,2-3.89,3.19-8.81,4-15.77H674.08a67.46,67.46,0,0,0-7.92.38v-7.66a55.23,55.23,0,0,0,8.11.45h11.36c0.13-2.55.13-3.19,0.13-6.51a33.6,33.6,0,0,0-.38-6.19h8.49c-0.32,1.66-.32,1.66-0.7,12.7h16.15Z"/><path d="M745.52,103.7c0.26,4.28,2.17,13.47,4.21,20,4.15-1.53,4.15-1.53,16.54-5.62a17.46,17.46,0,0,0,2.43-1l2.75,8a155.91,155.91,0,0,0-21.07,6.13c-9.32,3.45-14,7.53-14,12.13s4.34,6.64,14.62,6.64c8,0,15.83-1,20.62-2.62l0.7,8.75a39.84,39.84,0,0,0-5.17.45,134.82,134.82,0,0,1-14.94,1c-8.87,0-14.43-1.08-18.51-3.51-3.51-2.11-5.55-6.06-5.55-10.66A15,15,0,0,1,733.83,132a39.4,39.4,0,0,1,8.68-5.49,162.57,162.57,0,0,1-4.28-17.3,27.21,27.21,0,0,0-1-4.15Z"/><path class="a" d="M791.67,153.05a71.39,71.39,0,0,0-7.85.26v-8.24a41.07,41.07,0,0,0,8,.45h29V117.68h-28a62.39,62.39,0,0,0-8.17.32v-8.3a42.94,42.94,0,0,0,8.24.45h30.71c3.32,0,3.32,0,5.55-.13a38.76,38.76,0,0,0-.19,5.3v35a42.11,42.11,0,0,0,.32,6.58h-8.56v-3.89H791.67Z"/><path class="a" d="M846.77,110.28A81.43,81.43,0,0,1,854.49,129l-7.85,2.43a77.24,77.24,0,0,0-7.28-19Zm45.39,0.32c-0.57,1.4-.7,1.85-1.6,6.19-4.53,20.49-14.68,33.33-33.84,42.65a24.45,24.45,0,0,0-5.62-7.15A49.75,49.75,0,0,0,869,141.18a42,42,0,0,0,11.17-17.56,50.32,50.32,0,0,0,3.19-15Zm-28.73-3.38a81.78,81.78,0,0,1,7.66,18.07l-7.79,2.49a80.55,80.55,0,0,0-7.15-18.51Z"/><path d="M920.82,107.85c-0.32,1.85-.77,4.47-1.4,7.92-0.19,1.09-.19,1.09-0.38,1.92,1.92-.06,2.81-0.13,4-0.13,4.21,0,7.34,1.15,9.45,3.38,2.17,2.43,3,5.49,3,11.3,0,11-1.85,19.73-4.92,23.24-1.79,2.11-3.7,2.87-7.09,2.87a29.59,29.59,0,0,1-9.83-1.92c0.06-1.21.13-2.17,0.13-2.81a24,24,0,0,0-.64-5.43c3.45,1.53,7.09,2.55,9.32,2.55,1.85,0,2.87-1.21,3.83-4.34,1-3.32,1.66-9.13,1.66-14.56,0-5.87-1.47-7.6-6.38-7.6-1.34,0-2.36.06-3.83,0.19-3.13,13.09-6,20.81-13,34.73l-7.41-4.09c4.92-6.7,9.83-18.19,12.83-30.07-1,.13-1,0.13-3,0.51l-5.81,1a26.33,26.33,0,0,0-2.62.64l-0.77-7.53a130.93,130.93,0,0,0,13.6-1.34c1.21-7.09,1.66-10.73,1.66-12.9v-1.15l8.3,0.83a14.92,14.92,0,0,0-.51,2Zm19.41-2.62a41.37,41.37,0,0,1,6.7,9.38L942.46,117a43.09,43.09,0,0,0-6.7-9.51Zm5.94,12.64a59.38,59.38,0,0,1,9.58,20.3l-7.28,3.64c-1.28-6.7-5.24-16.09-8.75-20.75Zm4-4.92a47,47,0,0,0-6.51-9.26l4.28-2.23a36.93,36.93,0,0,1,6.64,9Z"/><path d="M973.55,140.73a118.18,118.18,0,0,1-6.77,18.2,16.2,16.2,0,0,0-1,2.3l-6-5.49c3.06-3.83,5.81-10.21,8.24-18.9Zm-8.87-21.64a54.68,54.68,0,0,1,9.77,8.43l-4.6,5a55.8,55.8,0,0,0-9.83-8.81Zm15.83,5.3a48.93,48.93,0,0,0-7,.38v-6.64a44.22,44.22,0,0,0,6.77.38h3.89v-4.66h-2.3a43.84,43.84,0,0,0-6.19.32v-2.43l-4,4.53a49.37,49.37,0,0,0-9.83-8.81l4.6-4.41a54,54,0,0,1,9.26,7.6v-3.19a54.26,54.26,0,0,0,6.32.32h2.17v-0.45a31,31,0,0,0-.32-4.72h7.21a23.36,23.36,0,0,0-.32,4.72v0.45h10.15v-0.45a24.46,24.46,0,0,0-.32-4.72h7.21a30.29,30.29,0,0,0-.32,4.72v0.45h3.32a56.35,56.35,0,0,0,6.38-.32v6.7a55.57,55.57,0,0,0-6.26-.32h-3.45v4.66h4.66a37,37,0,0,0,7.09-.38v6.64a48.5,48.5,0,0,0-7.09-.38H998.71v4.15h10.92a64.93,64.93,0,0,0,7-.26,42.68,42.68,0,0,0-.32,6.58v20.49c0,4.34-1.72,5.49-8.17,5.49h-2.43c-1.34-.06-1.66-0.06-2.87-0.19a22.58,22.58,0,0,0-1.47-6.51,57.62,57.62,0,0,0,6.58.51c1.72,0,2-.19,2-1.47v-18.9H998.71v12.45h2.94v-4.6a47,47,0,0,0-.19-4.92h5.87a42.18,42.18,0,0,0-.19,4.92v5.62a48.12,48.12,0,0,0,.13,4.85c-0.64-.06-2.11-0.06-4.34-0.13H989.83v3.19h-5.75a38,38,0,0,0,.26-5.17v-8.43a35.13,35.13,0,0,0-.26-4.92H990a44.58,44.58,0,0,0-.19,4.92v4.66h2.81V134.28H981.79v20.24a53.58,53.58,0,0,0,.32,7h-7a58.7,58.7,0,0,0,.38-7.34V133.77c0-2.3-.06-3.7-0.19-5.43a46.91,46.91,0,0,0,4.79.19h12.51v-4.15H980.51Zm20.43-5.87v-4.66H990.79v4.66h10.15Z"/><path d="M1054.76,155.16h-8.62v1.79a32.42,32.42,0,0,0,.25,4.66h-6.64a25.08,25.08,0,0,0,.32-4.6v-1.85h-9.77a35,35,0,0,0-5.68.32v-5.55a34,34,0,0,0,5.68.32h9.77v-2.62h-6.51c-2.49,0-4.47.06-5.75,0.19a33.7,33.7,0,0,0,.25-4.47V135a33.7,33.7,0,0,0-.25-4.47c1.28,0.13,2.94.19,5.75,0.19h6.51v-2.55h-8.36a48.54,48.54,0,0,0-5.75.25V123a35.36,35.36,0,0,0,5.75.32h8.36v-2.75H1031a45.82,45.82,0,0,0-6.64.38v-6.26a45.66,45.66,0,0,0,6.64.32h8.68v-2.75h-5.94a36.27,36.27,0,0,0-5.81.32v-5.87a34.85,34.85,0,0,0,5.81.32h5.94v-0.32a17.85,17.85,0,0,0-.32-4.15h7.21a16.44,16.44,0,0,0-.38,4.47h6.13a34,34,0,0,0,5.75-.32v5.87a35.42,35.42,0,0,0-5.75-.32h-6.13v2.75h15.58c-0.13-3.77-.13-4.53-0.19-6.13a47,47,0,0,0-.32-5.94h7.34a21.52,21.52,0,0,0-.38,4.66s0,1,.06,2.23v5.17h7.47a57.46,57.46,0,0,0,6.58-.32V121a37,37,0,0,0-6.58-.38h-7.41a132.61,132.61,0,0,0,1.6,18c2.43-4.53,4.47-10.15,4.92-13.73l6.38,2.23c-0.26.64-.26,0.64-0.7,1.85,0,0.06-.19.51-0.38,1.15-0.06.13-.25,0.64-0.51,1.34a71.73,71.73,0,0,1-7.28,14.88c1.4,3.45,3.64,7.21,4.28,7.21s1-2.62,1.72-8.55a16.37,16.37,0,0,0,5.36,3.77c-1.28,8.56-3.45,12.58-6.77,12.58-2.87,0-5.87-3.06-8.94-9.07a60.52,60.52,0,0,1-10.21,9.64,20.59,20.59,0,0,0-5.17-4.72c1.47-.89,2-1.34,3-2ZM1040.07,135h-6.38v2.17h6.38V135Zm0,6h-6.38v2.36h6.38V141Zm19,11.36a48.86,48.86,0,0,0,6.32-6.83c-2-6.38-2.81-12.51-3.38-25h-15.83v2.75h8.3a31.4,31.4,0,0,0,5.62-.32v5.43a44.25,44.25,0,0,0-5.62-.25h-8.3v2.55h7c2.49,0,4.41-.06,5.62-0.19a28.9,28.9,0,0,0-.19,4.47v8.3a28.9,28.9,0,0,0,.19,4.47c-1.6-.13-2.94-0.19-5.68-0.19h-7v2.62h7.28A43.52,43.52,0,0,0,1059,150v2.43Zm-5.87-15.19V135h-7v2.17h7Zm0,6.19V141h-7v2.36h7ZM1076,114.87a34,34,0,0,0-6.32-8.24l4.53-2.87a38.91,38.91,0,0,1,6.58,8Z"/><path d="M1102.26,143.35c0.06-1.34.13-2,.13-2.75s0-.7-0.19-4.53l-0.89-21.71c-0.13-2.81-.32-6-0.57-7.79h10.47c-0.19,1.72-.45,5-0.57,7.79l-0.89,21.71c-0.13,3.7-.13,3.7-0.13,4.6a22.93,22.93,0,0,0,.13,2.68h-7.47Zm-0.89,14v-8.75h9.26v8.75h-9.26Z"/><path d="M320,973.11l-44-18.75a77.92,77.92,0,1,0-14.21,24.25Z"/><path class="ac" d="M187.77,911.2c3-1.08,4.78-.32,5.82,2.55l1.77,4.87c0.38,1.06-.14,1.81-1.34,2.25s-2,.17-2.41-0.83L190,915.72c-0.37-1-1-1.12-2-.74L155.27,926.9c-1.1.4-1.5,0.89-1.13,1.89l1.55,4.27c0.35,1-.17,1.71-1.33,2.13s-2.09.19-2.46-.81l-1.75-4.82c-1-2.86-.14-4.61,2.87-5.71l15.06-5.48-1.19-3.26c-0.38-1.05,0-1.88,1.31-2.35s2.13-.09,2.51,1L171.9,917Zm-5.5,32.71c5.54,4.29,14,5.31,23,3.46a1.87,1.87,0,0,1,2.16,1.26,1.8,1.8,0,0,1,.13.52,2.09,2.09,0,0,1-1.41,2.39,0.81,0.81,0,0,1-.37.08c-9.76,1.79-19,.5-26.13-4.93a22.21,22.21,0,0,1-1.09,5.12c-2.19,6.31-7.44,11.12-12.93,14.49a3.37,3.37,0,0,1-.63.29,1.94,1.94,0,0,1-2.39-.78,1.59,1.59,0,0,1-.34-0.62,1.82,1.82,0,0,1,.75-2.32c5.12-3.12,10.06-7.36,11.79-12.14a22.49,22.49,0,0,0,1-4.47l-16.57,6a1.52,1.52,0,0,1-2-1.14,1.5,1.5,0,0,1,.82-2.12l17.78-6.47a28.56,28.56,0,0,0-.87-4.74l-12.85,4.68a1.49,1.49,0,0,1-1.94-1.11,1.42,1.42,0,0,1,.79-2l13.11-4.77-0.38-1.05c-0.32-1-.63-2-1-3l-13.66,5a1.46,1.46,0,0,1-1.94-1.11,1.39,1.39,0,0,1,.79-2.05l13.71-5c-0.3-1-.66-2-1-3a1.56,1.56,0,0,1,1.16-2.13c1.21-.44,1.92-0.19,2.27.77,0.4,1.1.79,2.16,1.08,3.13l14.26-5.19a1.42,1.42,0,0,1,1.92,1.06,1.49,1.49,0,0,1-.77,2.1l-14.26,5.19,0.24,0.65c0.35,1.12.77,2.28,1.09,3.47l13.76-5a1.42,1.42,0,0,1,1.92,1.06,1.49,1.49,0,0,1-.77,2.1l-14,5.08a36.58,36.58,0,0,1,1,4.71l20.69-7.53a1.5,1.5,0,0,1,2,1.1,1.52,1.52,0,0,1-.8,2.17Z"/><path class="ac" d="M207.68,919c-2.66,1-4.32.32-5.32-2.44l-3.29-9c-1-2.71-.13-4.27,2.53-5.24l8.39-3.05c2.71-1,4.32-.32,5.31,2.39l3.29,9c1,2.76.2,4.3-2.51,5.29l-1.51.55,2.6,7.13,4.27-1.55a1.46,1.46,0,0,1,1.94,1.11,1.53,1.53,0,0,1-.75,2.15l-4.27,1.55,3.51,9.64c1.7-1.42,3.25-2.78,4.54-3.93a1.85,1.85,0,0,1,.6-0.39,1.47,1.47,0,0,1,1.65.48,2.26,2.26,0,0,1,.53.83,1.91,1.91,0,0,1-.65,2.11,157.72,157.72,0,0,1-14.57,11.84,4.64,4.64,0,0,1-.72.37,1.69,1.69,0,0,1-2.07-.84,1.89,1.89,0,0,1,.23-2.64c0.42-.26.88-0.55,1.33-0.88l-6.47-17.77c-0.33-.9.33-1.6,1.28-1.95s1.9-.24,2.23.67l6.1,16.77c0.37-.25.71-0.54,1.13-0.81,0.61-.51,1.24-1,1.85-1.47l-7.71-21.19Zm6.11-6c0.9-.33,1.26-0.74.9-1.75L212,903.86a1.18,1.18,0,0,0-1.83-.81l-6.33,2.3a1.16,1.16,0,0,0-.83,1.78l2.69,7.38a1.15,1.15,0,0,0,1.76.78Zm27.4-18.79,0.2-.07a1.56,1.56,0,0,1,2.07,1l0.09,0.25a1.36,1.36,0,0,1-.74,1.86l-12.43,5.83,2,4.61,11.37-5.33,0.1,0a1.45,1.45,0,0,1,1.87.91l0.09,0.25a1.4,1.4,0,0,1-.62,1.88l-11.35,5.38c0.77,1.65,1.64,3.27,2.55,4.81l12.8-6.08,0.15-.05a1.6,1.6,0,0,1,2,1,1,1,0,0,1,.18.33,1.33,1.33,0,0,1-.71,1.79l-12.62,6a31.48,31.48,0,0,0,2.56,3.45,18.29,18.29,0,0,0,1.83,2.06,41.75,41.75,0,0,0,3.13-6.09,2.17,2.17,0,0,1,1.22-1.18,1.91,1.91,0,0,1,1.37,0,1.58,1.58,0,0,1,1.09,1,2,2,0,0,1-.15,1.47,57.06,57.06,0,0,1-3.91,7.39,15.83,15.83,0,0,0,6,3.15,2.55,2.55,0,0,0,1.54,0,1.28,1.28,0,0,0,.81-1.21,17.76,17.76,0,0,0-.72-5.42,1.43,1.43,0,0,1,1-1.8l0.35-.13a1.68,1.68,0,0,1,2.08,1.18l0,0.1a18.76,18.76,0,0,1,.84,7.94,4,4,0,0,1-2.63,3.23,6.58,6.58,0,0,1-3.72.1,20.54,20.54,0,0,1-7.8-4.1,56.81,56.81,0,0,1-12.58,12.77,2.7,2.7,0,0,1-.57.32,1.87,1.87,0,0,1-2.29-.82,4.22,4.22,0,0,1-.36-0.67,1.65,1.65,0,0,1,.64-2,54.84,54.84,0,0,0,12.33-12.05c-0.71-.71-1.39-1.48-2-2.23a44.12,44.12,0,0,1-3.53-4.86l-8.19,3.89-0.2.07a1.58,1.58,0,0,1-2-.93l-0.11-.3a1.39,1.39,0,0,1,.78-1.93l7.94-3.8c-0.74-1.26-1.39-2.56-2-3.87-0.18-.33-0.36-0.67-0.52-1l-5.87,2.76-0.2.07a1.54,1.54,0,0,1-1.94-.94L222.4,914a1.45,1.45,0,0,1,.78-1.93l5.88-2.76c-0.69-1.57-1.4-3.07-2-4.61l-6.46,3-0.1,0a1.68,1.68,0,0,1-2.05-1l-0.09-.25a1.51,1.51,0,0,1,.81-2l6.51-3.05-2.56-6.57a1.6,1.6,0,0,1,1.21-2.15c1.16-.42,2-0.16,2.37.9,0.8,2.21,1.6,4.25,2.42,6.17ZM230.39,891a1.89,1.89,0,0,1,1-.08,40.55,40.55,0,0,1,5.64,1,1.76,1.76,0,0,1,1.33,1,2.22,2.22,0,0,1,.06,1.11,1.77,1.77,0,0,1-1.11,1.31,1.8,1.8,0,0,1-.94.06c-1.53-.3-3.82-0.66-5.74-0.92a1.51,1.51,0,0,1-1.24-.91,1.73,1.73,0,0,1,0-1.13A1.69,1.69,0,0,1,230.39,891Z"/><path class="ad" d="M438.92,876.86c-8,7.79-8.76,8.45-13.92,12.54-7.32,5.41-12.36,9.11-18.6,13.33,2.64,1.85,2.76,2,5.64,4.09l-3.6,4h21.48a90.65,90.65,0,0,0,13.32-.66L450.8,919c-0.12.13-2.76,3.83-7.8,11.22-5.64,8.18-10.2,13.46-19.08,21.78-3.84-4.75-6.12-7-10.56-9.9,8.88-7.26,12-10.56,17.4-18H402.92v45.41c0,10.82-4,13.73-18.72,13.73-4,0-10-.13-13.68-0.4A58.86,58.86,0,0,0,367,968.21a105.83,105.83,0,0,0,17.52,1.32c4,0,4.8-.66,4.8-3.56V924.12h-31.8a114.25,114.25,0,0,0-15.12.79V910a109.77,109.77,0,0,0,15.72.79h37.08A243.25,243.25,0,0,0,368.84,892l8.76-9c7.92,4.75,10.56,6.6,17.64,11.48,6.12-3.56,8.64-5.28,19.08-13.6h-46.8a98.72,98.72,0,0,0-14.52.66V867c4.2,0.66,7.8.79,14.76,0.79h53.4a66.83,66.83,0,0,0,10.32-.53Z"/><path class="ad" d="M509.84,913.56H492.2a77.69,77.69,0,0,0-12.12.66v-14a73.28,73.28,0,0,0,12.12.66h46a76.55,76.55,0,0,0,12.36-.66v14a78.25,78.25,0,0,0-12.36-.66H522.44v16.9h22.68c5.52,0,8.52-.13,11.76-0.79v14.12a73.8,73.8,0,0,0-11.76-.66H522.44v22.71A127.72,127.72,0,0,0,542,967.16c7,0,15.12-.4,27.36-1.58a55.59,55.59,0,0,0-3.36,15c-9.84.26-16.08,0.4-25.56,0.4-28.08,0-43.8-6.73-53.64-22.71-3.84,9.11-8.4,16.37-16.44,25.87-3.12-4.88-4.8-6.6-10.32-10.82,9.84-9.77,16.8-22.44,20.64-37.36a89.23,89.23,0,0,0,2.4-14.26l13.32,2.77c-0.6,2.24-.6,2.38-1.68,7.79-0.6,2.64-1.32,5.68-3.12,11.88,4.8,9.37,9.72,14.26,18.24,18.35v-49Zm-2-42.37a46.91,46.91,0,0,0-.72-8.45h14.76a44,44,0,0,0-.6,8.32v5h32.4c4.8,0,8.88-.13,13.32-0.53a79.85,79.85,0,0,0-.48,9.77v10.3a93.7,93.7,0,0,0,.48,10.3H554v-16.5H476.48v16.5H463.16a64.08,64.08,0,0,0,.6-10.43V885.31c0-3.43-.24-6.73-0.48-9.77,4.32,0.4,8.4.53,13.2,0.53H507.8v-4.88Z"/><path class="ad" d="M584.72,878.58c4.92,1.19,12.6,1.72,27.84,1.72,3.24-7.92,4.32-11.88,4.8-16.37l15.72,1.85c-0.72,1.32-.72,1.32-4.8,11.88-0.6,1.45-.84,1.85-1.08,2.38,1-.13,1-0.13,7.56-0.53,13.92-.92,24.84-2.38,31.44-4.49l0.84,15c-3.36.26-3.36,0.26-9.48,1.06-8.76,1.19-24,2.24-36.12,2.64a68.79,68.79,0,0,1-11,17.56l0.12,0.26c0.84-.66.84-0.66,2.4-2a27.26,27.26,0,0,1,16.92-5.94c9.36,0,15.24,4.88,17.16,14q13.86-5.54,18.36-7.13c6.48-2.51,7-2.64,8.88-4l5.64,15.18c-3.36.53-7,1.58-13.32,3.56q-2.52.79-18,6.73v1.45c0.12,3.43.12,3.43,0.12,5.28v5.28c-0.12,2.24-.12,3.43-0.12,4.36a59.6,59.6,0,0,0,.36,7l-13.92.4c0.48-2.38.72-9.11,0.72-15.31v-3.17c-5.88,3-9,4.88-11.52,6.86-4.2,3.43-6.24,7-6.24,10.82,0,6.86,5.76,9.64,20.28,9.64s26.76-2,35.28-5.54l1.2,17a32.28,32.28,0,0,0-5.52.53A198.2,198.2,0,0,1,638.48,979c-12.72,0-20.64-1.58-26.76-5.54-5.52-3.43-8.76-9.77-8.76-17,0-5.41,1.44-9.64,5.28-14.65,5.4-7.39,12.24-12.41,25.8-18.61-0.6-4.88-3-7.13-7.32-7.13-7,0-15.36,4.62-24.6,13.6a57.38,57.38,0,0,0-10.44,12L580.76,929.8A77.39,77.39,0,0,0,591.56,918c4.68-6.07,12-17.56,14.4-22.57a6.59,6.59,0,0,1,1-1.72c-0.48,0-2,.13-2,0.13-1.92,0-12.48-.26-15.12-0.26-2.28-.13-2.28-0.13-3.36-0.13a12.09,12.09,0,0,0-1.92.13Z"/><path class="ad" d="M750.8,963.46c7.32-16.76,16.56-49.5,18-63.23l15.48,4.88c-1.32,2.77-1.44,3.56-4.08,12.67a425.32,425.32,0,0,1-15.36,45.67h21.6a121.47,121.47,0,0,0,15.24-.79v15.84a97.47,97.47,0,0,0-15.24-.92H708.2a100.48,100.48,0,0,0-15.6.92V962.67a125.08,125.08,0,0,0,15.6.79h42.6Zm-11.4-90a58.55,58.55,0,0,0-.84-10.3h15.12a54.11,54.11,0,0,0-.84,10.17v9h28.92a95.82,95.82,0,0,0,15.48-.92v15.84a123,123,0,0,0-15.48-.79H712a118.07,118.07,0,0,0-15.12.79V881.35a90,90,0,0,0,15.12.92H739.4v-8.84Zm-15.48,28c5.28,15.84,8.16,26.4,13.68,51.35L724.16,958A286.16,286.16,0,0,0,711,906.43Z"/><path class="ad" d="M811.88,881.75c2.64,0.13,4,.13,4.56.13,2.16,0,2.16,0,19.8-1.32,6.72-.4,26.64-1.58,59.88-3.3,9.84-.53,11.64-0.66,13.8-1.32l0.84,16.9a16.93,16.93,0,0,0-2.52-.13c-7.2,0-16.08,2.64-23.76,7.13-15.24,8.71-24.24,21.91-24.24,35.25,0,10.3,5.88,18.22,16,21.52,5.88,2,13.56,3.43,17.88,3.43a23.57,23.57,0,0,0,2.4-.13l-2.16,18a23.32,23.32,0,0,0-4.08-.79c-13.2-1.85-20.76-4.22-28.08-8.71-11-6.86-17.16-18.08-17.16-31.81a49.14,49.14,0,0,1,11.4-31.15c4.56-5.41,8.88-8.84,16.68-13.2-9.72,1.58-14.4,2-40.44,4.09a159.19,159.19,0,0,0-19.92,2.64Z"/><path class="ad" d="M966.44,865.78a71.68,71.68,0,0,0-1.92,8.84c-0.6,3.17-1.2,5.81-2.52,11.62,8.28-.92,14.52-2.11,19.2-3.7l0.36,15.18a21.58,21.58,0,0,0-3.84.66c-4.32.79-11.64,1.72-19.08,2.38A269.59,269.59,0,0,1,945.44,939c-2.76,6.47-3.84,8.84-8.4,18.08-1.56,3.17-1.56,3.17-2.28,4.75L921,953.43a122.92,122.92,0,0,0,11.64-21.12c4.68-10.56,6.72-16,11.28-31.15-5.4.13-6.12,0.13-7.56,0.13s-2.28,0-4.8-.13l-6.36-.13V886c4.32,0.92,8.88,1.19,16.2,1.19,1.44,0,3.48,0,6.12-.13,2-9.37,3.36-17.29,3.6-23ZM1020.8,972.7a74.44,74.44,0,0,0-18.36-16.37c0.12,1.19.24,2.11,0.24,2.64a22.26,22.26,0,0,1-5.16,14c-4.2,4.75-11.4,7.39-19.92,7.39-15.84,0-26.16-8.71-26.16-22.18s10.68-22.71,25.92-22.71a54.37,54.37,0,0,1,11.16,1.19c-0.36-6.07-.6-11.22-0.6-15.18a76.9,76.9,0,0,1,1-13.33l13.92,0.79a48.16,48.16,0,0,0-1.44,13.33,154,154,0,0,0,1.08,18.08c8.64,4.22,9.84,4.88,19,12.14a45,45,0,0,1,4.2,3.56,22.39,22.39,0,0,0,1.8,1.85Zm-42.6-24.16c-7.8,0-12.84,3.56-12.84,9.11s4.32,8.58,11.76,8.58c8.16,0,12.12-3.7,12.12-11.09,0-1.32-.24-4.49-0.24-4.49A27.79,27.79,0,0,0,978.2,948.54ZM1021.4,912a141.75,141.75,0,0,0-34.56-18.48l7.2-12.8c14.16,5.94,23.16,10.56,33.84,17.69Z"/><path class="ad" d="M1058.72,876.47a168.75,168.75,0,0,0-1,20.06c0,11.48,1,27.32,2.28,35.38,2,13.73,5.88,22.18,9.72,22.18,1.8,0,3.48-2,4.92-5.68a104.73,104.73,0,0,0,6.36-23.89,61.75,61.75,0,0,0,12,12c-6.24,25.74-13.2,36.43-23.4,36.43-8,0-14.52-6.47-19.32-19.14-4.92-13.2-7.08-32.34-7.56-68.91a69.45,69.45,0,0,0-.48-8.45h16.44Zm56.76,5.94c15.12,19.93,23.52,42,27,71l-14.88,6.2a145.32,145.32,0,0,0-7.68-38.15,118.51,118.51,0,0,0-17-32.47Z"/><path class="ad" d="M1215,890.2A89.3,89.3,0,0,1,1201,909.87c-2.28-3.17-5-5.68-9.6-8.58a77.33,77.33,0,0,0,6.12-6.86c-2.64-.13-4.92-0.26-8.88-0.26h-12.6v4.36c-0.12,4.09-.12,4.09-0.36,9.64h12a77.69,77.69,0,0,0,9.6-.4c-0.36,4-.36,4-0.48,22.44-0.24,20.06-1.56,35.38-3.48,42.24s-6,9.11-15.36,9.11a61.05,61.05,0,0,1-6.24-.26,50.41,50.41,0,0,0-2.4-14.26,30.54,30.54,0,0,0,8.28,1.19c3.84,0,4.44-1.06,5.4-8.84,0.84-7.39,1.44-19.93,1.56-38.41h-9.48c-0.84,16.63-1.92,24.95-4.44,35.11-3.12,12-6,19.14-12,28.25-3.24-5.94-5.4-8.84-9.36-12.41,6.24-9.11,9.84-19.54,12-35,1.68-11.22,2.16-21.65,2.4-42.77h-1.32a53.7,53.7,0,0,0-10.56.66V880.56c3.24,0.66,6.12.79,11.76,0.79h7.56v-7a78.88,78.88,0,0,0-.72-11.62h14.16a76.58,76.58,0,0,0-.6,11.48v7.13h4.8a60.45,60.45,0,0,0,10.8-.66v11c6.84-9.77,11.88-21.38,13-29.3l13.32,2.77a59.42,59.42,0,0,0-2.28,5.54c-1.32,3.43-1.56,4.09-2.52,6.6h28.44a77.87,77.87,0,0,0,12.36-.79v14.26a94.68,94.68,0,0,0-11.76-.53h-7.92l8.52,7.92c-1.8,1.45-2.16,1.72-4.32,3.56-1,.79-7.08,5.81-8.88,7.26,0.84,8.18,1.08,10.56,2.4,16.37a59.85,59.85,0,0,0,14-14.65l8.16,10.16a130.74,130.74,0,0,1-18.24,17.42c5.76,14.26,10.68,21.91,20,30.76-3.48,4.49-5.28,7.79-7.8,14.52-10.8-11.09-16.68-20.33-22-34.85-3.6-9.64-5.4-18.08-7.2-32.47a53,53,0,0,1-5,3.17v50.69c0,5.54.24,9.9,0.6,13.6H1208.6a102,102,0,0,0,.72-13.6V926.37c-2.88,1.58-4.92,2.64-6,3.17a41.79,41.79,0,0,0-5.76-12.8,146.67,146.67,0,0,0,42.12-26.53H1215Z"/><path d="M151.4,1209.5c3.3-2,9.8-9.3,22.5-25.4,3.6-4.6,6.1-7,8.4-8.3a15.59,15.59,0,0,1,7.6-1.9c5.9,0,8.8,1.9,17,11.2,13.1,14.7,18.9,20.5,30.5,31.2,5.6,5.1,7.5,6.7,10.8,9l-8.9,19.2c-14.7-13.6-23.5-22.9-45.4-47.9-1.5-1.7-2.5-2.4-3.6-2.4-1.4,0-1.4,0-5.3,5.2-5.7,7.5-11,14.2-18,22.6-1.1,1.3-2,2.5-3.7,4.6Zm71.7-37a71.4,71.4,0,0,1,9.9,14.3l-9.5,4.6a67.82,67.82,0,0,0-9.9-14.6Zm13.3-6a70.31,70.31,0,0,1,10,13.9l-9.2,4.5a76.76,76.76,0,0,0-9.8-14.3Z"/><path d="M265.8,1248.9a142.76,142.76,0,0,0,.6-15.3v-58.2a94.6,94.6,0,0,0-.7-14.5H285a129.36,129.36,0,0,0-.5,14.6v13.7A212.11,212.11,0,0,1,330,1210l-9.5,17a185.38,185.38,0,0,0-31.5-17.4c-3.5-1.4-3.5-1.4-4.5-2v26a146.54,146.54,0,0,0,.6,15.3H265.8Z"/><path d="M412.21,1183.4c7.9,0,10.4-.1,15-0.8v17.6a146.37,146.37,0,0,0-14.7-.5h-17.7c-1,13.1-2.7,19.7-7,27.3a55.49,55.49,0,0,1-16,17.5,96.32,96.32,0,0,1-10.2,6.4c-3.7-6.5-6.6-9.8-13.2-15.3,11.7-4.9,19-10.7,23.6-18.5a31.35,31.35,0,0,0,4.2-12.6c0.2-1.5.2-1.5,0.5-4.8H355.3c-7.2,0-9.5.1-14.5,0.5v-17.6c4.5,0.7,6.5.8,14.8,0.8h22c0-1.4,0-1.4.1-4v-7.6a81,81,0,0,0-.6-10.6h19.2c-0.4,2.9-.4,3.2-0.6,10.9-0.1,3.8-.1,3.8-0.1,7.8,0,1.3-.1,2.5-0.1,3.5h16.7Z"/><path d="M480.11,1164.29c-1,2.1-1.2,2.7-2.6,7.4-7.8,25.9-12.1,38.6-18.6,55.2a306.77,306.77,0,0,0,34.3-3.9,164.84,164.84,0,0,0-12.6-23.8l15.7-6a215.55,215.55,0,0,1,23.8,47.8l-17.1,8.7a76.35,76.35,0,0,0-3.7-11.2c-14.3,2.5-24.5,3.9-40,5.5l-22.9,2.2a52.43,52.43,0,0,0-5.5.9l-2.6-18.7c1.9,0.1,2.7.1,3.2,0.1s1.4,0,2.5-.1l3.1-.1a18.6,18.6,0,0,0,2.5-.1,459.45,459.45,0,0,0,16.6-49.7c2.7-9.5,3.5-13.3,3.9-17.9Z"/><path d="M587.31,1204.9a15.25,15.25,0,1,1-15.2-15.2A15.22,15.22,0,0,1,587.31,1204.9Z"/><path d="M657.91,1177.9c0.3-3.9.5-9.7,0.5-12.8a28,28,0,0,0-.3-5l18.8,0.5c-0.5,2.3-.5,2.6-1.1,12.1-0.1,2.7-.1,2.7-0.3,5.1h21.8c3.3,0,4.5-.2,6.7-1.1l7.8,6.8c-1.1,2-1.3,2.8-1.4,7.4-0.7,21.4-2.2,38.1-4.2,44.7-2.9,9.3-7.7,12.5-18.8,12.5a117.15,117.15,0,0,1-13.1-.8c-0.4-8-1.1-11.3-3.4-17.6a57.29,57.29,0,0,0,13,2c4.8,0,6-1.6,7.3-10.3a231,231,0,0,0,1.9-27.9H674a85.74,85.74,0,0,1-1.5,10c-4.4,20.2-13.9,33.2-34.2,46.6-4.5-7.1-7.5-10.5-13-15.2,13.3-7,21-14.1,26-24.2,2.5-5.1,3.6-8.7,5-17.1h-12.5a102.33,102.33,0,0,0-13.5.6l-0.1-17.1a78,78,0,0,0,13.9.8h13.8Z"/><path d="M735.71,1165.6c12.6,7.4,19.1,12,27.5,19.6l-11.8,15.6a106.79,106.79,0,0,0-27.2-21.1Zm-10.5,62.1a100.37,100.37,0,0,0,30.1-7.2c12.6-5.2,21.6-12.7,29.3-24.7a92.09,92.09,0,0,0,9.8-19.6c4.9,5.9,7.2,7.9,14.7,13.4-9.1,19.7-18.6,31.5-32.6,40.5-10.8,7-20.3,10.7-38.9,15-3.9.9-4.5,1-7.2,1.8Z"/><path d="M846.41,1201c-0.3,1.6-1,4.8-2,9.6-3.6,14-7.8,24.1-14.2,33.5a78.82,78.82,0,0,0-16.5-8.2c7.8-9.9,14.2-26,15.5-38.9Zm6.1-28.8a73.48,73.48,0,0,0-.6-11.1h18.9c-0.3,2.4-.4,5.7-0.5,11.3v3.7h19c8.5,0,11.7-.2,15.7-0.8v17c-3.6-.4-6.4-0.5-15.4-0.5h-19.3v44.1c0,8.5.1,11.6,0.6,14.8h-19.1c0.6-4.4.7-6.7,0.7-15v-43.9h-18.6c-9.6,0-11.2.1-15.1,0.5v-17c4,0.6,7.2.8,15.2,0.8h18.5v-3.9Zm40.4,24.6c3.1,14.2,8.9,27.9,16.2,38.2a131.23,131.23,0,0,0-16.5,9.3c-6.8-12.2-10.6-22.1-14.8-38.4a30,30,0,0,0-1.5-4.9Zm-3.3-38.2a53.26,53.26,0,0,1,7.6,14l-9.9,3a59,59,0,0,0-7.5-14.3Zm14.3-3.2a50,50,0,0,1,7.6,13.9l-9.3,3a71.92,71.92,0,0,0-7.6-14.2Z"/><path d="M925.31,1186.5a142.48,142.48,0,0,1,27.9,14.2l-8.5,15.7c-7.2-5.6-18.4-11.7-28.6-15.6Zm-6.3,43.7c8.8,0,21.5-2.7,30.8-6.4,18.7-7.4,31.9-22.1,39-43.7a62.34,62.34,0,0,0,14.7,12.5c-12.7,31.4-35.4,48.6-72.4,54.9a69.07,69.07,0,0,0-7.1,1.7Zm13.8-68.2c11,4,21.8,9,28.7,13.2l-8.9,15.3a123.78,123.78,0,0,0-28.7-14.3Zm51.7-.9a69.85,69.85,0,0,1,8.8,15.9l-9.9,3.6a70.88,70.88,0,0,0-8.8-16.2Zm13.9-4.6a66.57,66.57,0,0,1,8.9,15.4l-9.6,3.5a71.35,71.35,0,0,0-8.7-15.7Z"/><path d="M1101.32,1174.8c-1.5,1.6-1.8,2.1-3.1,5.2-6.4,15-15,25.1-27.9,33.1a52.48,52.48,0,0,0-11.2-10.9c-0.6,10.4-2.3,17.7-5.8,24.3a49.82,49.82,0,0,1-15.6,16.9,91.13,91.13,0,0,1-14.1,7.7c-4-7.9-5.6-10.3-11.4-16.2,11-3.5,18.2-7.9,22.9-13.9,4.8-6.2,6.5-13.3,6.5-26.6a27.17,27.17,0,0,0-.6-6.9h18.8a53.74,53.74,0,0,0-.5,8.6c0,0.1-.1,2.5-0.1,3.5a12.87,12.87,0,0,1,2.3-1.2,37.85,37.85,0,0,0,16.8-17h-47.7a133.41,133.41,0,0,0-15.9.7v-17.5c4.6,0.7,8,.9,16.2.9h52.4c5.6,0,6.3-.1,8.6-1.1Z"/><path class="a" d="M229.11,1282.2a92.35,92.35,0,0,0,10.6-.4,90.68,90.68,0,0,0-.5,11.3v66.3c0,8.4-3,10.4-15.8,10.4-2.1,0-6.3-.1-11-0.3a39.64,39.64,0,0,0-3.1-10.9,143,143,0,0,0,14.6,1c4.2,0,4.7-.2,4.7-2.4v-65.3H172.1v11.4c0,26-1.2,40.9-4.2,51.1a59.89,59.89,0,0,1-7.6,17.2,39.76,39.76,0,0,0-9-8.8,42,42,0,0,0,6.8-14.9c2.3-9.5,3.4-24.7,3.4-48.7a171,171,0,0,0-.5-17.4,98.11,98.11,0,0,0,10.6.4h57.5Zm-34.3,26.5h-9.7a52.61,52.61,0,0,0-7.6.4v-9.6a56,56,0,0,0,7.7.4h9.5a45.43,45.43,0,0,0-.3-6h11.1a42.17,42.17,0,0,0-.4,6h10.1a57.23,57.23,0,0,0,7.6-.4v9.6a53.5,53.5,0,0,0-7.6-.4H205.1v6.9h12.4a50.31,50.31,0,0,0,9-.5v9.9a71.61,71.61,0,0,0-9-.4H183.1a71.61,71.61,0,0,0-9,.4v-9.9a49.54,49.54,0,0,0,9.1.5h11.6v-6.9Zm25.2,41a56.94,56.94,0,0,0,.3,6.7c-2.7-.2-4.6-0.3-7.5-0.3H189.1v6H178.2a45.41,45.41,0,0,0,.5-8v-17.8a40.44,40.44,0,0,0-.4-6.8,61.92,61.92,0,0,0,7.4.3h26.8a51.35,51.35,0,0,0,7.8-.3,64.09,64.09,0,0,0-.3,7v13.2Zm-31-2.7h20.7v-8.5H189v8.5Z"/><path class="a" d="M252.2,1317a46.6,46.6,0,0,0,8.1.5h6.5a45.21,45.21,0,0,0,7.7-.5,76.78,76.78,0,0,0-.5,10.9v21.6c5.7,8.2,10.6,9.8,29.9,9.8a375.69,375.69,0,0,0,42.4-2,37.88,37.88,0,0,0-3,11.9c-9.8.3-25.6,0.6-38.9,0.6-20.5,0-28.4-2.6-35.3-11.4-2.3,2.2-4.5,4.2-7.1,6.3-1.4,1.2-2,1.6-5,3.8l-1.9,1.4-4.9-11.4a40.17,40.17,0,0,0,13.1-9.4v-21.8H259a37.5,37.5,0,0,0-6.8.5V1317Zm39.5,0.5a85.69,85.69,0,0,1-2.9,18.1,51.63,51.63,0,0,1-7.5,17.4,26.7,26.7,0,0,0-7-9.1c4.6-7.3,6.2-11.9,7.4-21.1,0.8-6.4,1-10.8,1.1-23.4a62.27,62.27,0,0,0-6.8.4l-6.9,6.6a97.31,97.31,0,0,0-16-18.7l8-7.4a121.8,121.8,0,0,1,14.6,15.8v-6.8a61.06,61.06,0,0,0,9.9.5h2.2v-2.6a37.67,37.67,0,0,0-.6-8.1h11.5a44.25,44.25,0,0,0-.6,8v2.7h1.2a69.57,69.57,0,0,0,9.1-.4v6.9c3.8-6.9,6.2-13.6,6.5-18l10.9,1.7c-1.7,4.8-2.3,6.4-3.4,9.3h13.2a48.49,48.49,0,0,0,8.3-.5v10.4c-2.3-.2-4.9-0.3-8.3-0.3H318.2c-1,1.9-1.4,2.6-3,5.4,2,0.2,4.5.3,7,.3h10.9a35.47,35.47,0,0,0,5.9-.3l4.4,5.2a17,17,0,0,0-2.2,2.4,120,120,0,0,1-10.1,9.8v2.6h6.3a36.06,36.06,0,0,0,6.9-.5V1334a38.62,38.62,0,0,0-6-.4h-7.2v12.8c0,4.3-1.4,6.6-4.6,7.5-2.4.7-3.5,0.8-11.7,0.8-0.2,0-1,0-2.2-.1a28.85,28.85,0,0,0-2-9.5,59,59,0,0,0,8.6.6c1.5,0,2-.4,2-1.9v-10.2h-3.9a50,50,0,0,0-8.2.5v-10.3a59.81,59.81,0,0,0,8.2.5h3.9a27.47,27.47,0,0,0-.4-5.5h2.7a30.64,30.64,0,0,0,5.8-5.6h-7.6a56.84,56.84,0,0,0-7.6.5v-7.6l-2.2,3.6a28.5,28.5,0,0,0-8.8-5.7c1.7-2.1,2.2-2.8,3.4-4.5-2-.1-2.9-0.1-4.7-0.1h-9.5c-0.1,7-.1,7-0.1,8.6H299a65.16,65.16,0,0,0,8.5-.4,57.32,57.32,0,0,0-.3,6.4c-0.2,15.7-1.1,27.3-2.5,33.4-1.3,5.1-4,6.7-11.5,6.7a28.14,28.14,0,0,1-4-.2,31.44,31.44,0,0,0-1.6-9.6,37.79,37.79,0,0,0,5.2.6c2.2,0,2.8-.6,3.4-3.2,0.9-4,1.7-14.2,1.9-24.2h-6.4Z"/><path class="a" d="M181.1,1077.15a41,41,0,0,0-5.81.29v-5.28a42.37,42.37,0,0,0,6.14.34h12.67a27.74,27.74,0,0,0-.34-4.32h5.86a23.82,23.82,0,0,0-.29,4.32h13.1a40.32,40.32,0,0,0,6.29-.34v5.28a51.2,51.2,0,0,0-6-.29H199.35v2.69h10a46.56,46.56,0,0,0,5.33-.19c-0.14,1.44-.19,3-0.19,4.85v8.88a37.87,37.87,0,0,0,.19,4.9,37.84,37.84,0,0,0-5.38-.24h-5.76c4.27,4,9.36,6.53,16.66,8.21a31.8,31.8,0,0,0-2.74,5.09,50.24,50.24,0,0,1-9.84-4.37,31.12,31.12,0,0,1-8.4-6.91c0,1.58.1,2.5,0.1,3.31v3.46a29.4,29.4,0,0,0,.34,5.47h-5.9a38.53,38.53,0,0,0,.34-5.47v-3.46c0-.58,0-2.35.1-3.26a31.26,31.26,0,0,1-9.17,7.58,49.73,49.73,0,0,1-8.21,3.7,20.52,20.52,0,0,0-2.69-4.85,40.19,40.19,0,0,0,9-3.55A28.49,28.49,0,0,0,190,1098h-5.18a36.56,36.56,0,0,0-5.42.24,6.25,6.25,0,0,1,.14-1.39c0-.19,0-0.19,0-3.5v-8.83a45.81,45.81,0,0,0-.19-4.94,33.73,33.73,0,0,0,5.23.24h9.46v-2.69h-13Zm3.6,6.82v2.93h9.41V1084H184.7Zm0,6.91v3h9.41v-3H184.7Zm14.64-4h10.08V1084H199.35v2.93Zm0,7h10.08v-3H199.35v3Z"/><path class="a" d="M242,1071.87a22.2,22.2,0,0,0-.29-3.89h6a22.93,22.93,0,0,0-.29,3.89H261a39.79,39.79,0,0,0,5.62-.29V1077a48.73,48.73,0,0,0-5.62-.29H247.35v3.41h12.77a34.4,34.4,0,0,0,4.37-.19,36.1,36.1,0,0,0-.19,4.27v22.32c0,4.46-1.3,5.52-6.86,5.52-1.3,0-2.78,0-4.56-.14a14.63,14.63,0,0,0-1.25-5.14,44.71,44.71,0,0,0,5.28.38c1.82,0,2.21-.19,2.21-1.2v-21.17H231v22.32a35.48,35.48,0,0,0,.24,5.38h-5.76a41.86,41.86,0,0,0,.29-5.67v-22.61a36.11,36.11,0,0,0-.19-4.27,42.79,42.79,0,0,0,4.7.19H242v-3.41h-13.1a46.13,46.13,0,0,0-5.57.29v-5.42a43.42,43.42,0,0,0,5.57.29H242Zm-4,18.53a23.92,23.92,0,0,0-2-4l4.42-1.54a27.16,27.16,0,0,1,2.54,5.52h3.26a26.4,26.4,0,0,0,2.69-5.47l4.9,1a21.7,21.7,0,0,1-2.5,4.46h1.68a29.79,29.79,0,0,0,4.08-.19v4.71a34.27,34.27,0,0,0-4.18-.19H247v3.55h5.57a27.43,27.43,0,0,0,4-.19v4.66c-1.2-.1-2.11-0.14-4.08-0.14H247v3a37.67,37.67,0,0,0,.29,5.71h-5.47a47.22,47.22,0,0,0,.24-5.71v-3h-4.51a38,38,0,0,0-4.37.19v-4.7a34.66,34.66,0,0,0,4.46.19h4.42v-3.55H236.5a25.77,25.77,0,0,0-3.74.19v-4.71a32.2,32.2,0,0,0,4.22.19h1Z"/><path class="a" d="M292.32,1081.52a22.05,22.05,0,0,0-.19,3.89c-0.19,8.21-1.49,12.82-4.75,17-2.88,3.7-6.38,6.14-12.38,8.64a17,17,0,0,0-3.79-5.47,22.13,22.13,0,0,0,8.4-4.08c4.9-3.89,6.43-8,6.43-17.09a12.16,12.16,0,0,0-.24-2.88h6.53Zm19.49-6c-0.67.82-.67,0.86-1.92,3.36a30.46,30.46,0,0,1-7.39,9.65,30,30,0,0,1-5.76,4,16.23,16.23,0,0,0-4.32-4.37,22.25,22.25,0,0,0,7-4.42,19.91,19.91,0,0,0,4.56-6.1h-25.2a46.11,46.11,0,0,0-6.53.29v-6a38.27,38.27,0,0,0,6.62.38h25.06c2.88,0,3.31,0,4.66-.43Z"/><path class="a" d="M319.39,1082.43a75.82,75.82,0,0,1,12.77,6.53l-3,5.42a55.71,55.71,0,0,0-13-7Zm-2.16,21.51a42.65,42.65,0,0,0,13.87-3.12c8.78-3.07,16-10.95,19.44-21.17a23.35,23.35,0,0,0,5,4.27c-6,14.54-16.08,22.42-33.27,25.78a28.31,28.31,0,0,0-3.36.82Zm5.86-33.12a79.09,79.09,0,0,1,12.77,6.19l-3.07,5.28a58.13,58.13,0,0,0-12.82-6.58Zm25-1a31.1,31.1,0,0,1,5,7.06l-3.36,1.78a32.37,32.37,0,0,0-5-7.15Zm7.44,5.81a35.34,35.34,0,0,0-4.9-7l3.22-1.68a27.76,27.76,0,0,1,5,6.77Z"/><path class="a" d="M382.37,1081.52a22.05,22.05,0,0,0-.19,3.89c-0.19,8.21-1.49,12.82-4.75,17-2.88,3.7-6.38,6.14-12.38,8.64a17,17,0,0,0-3.79-5.47,22.13,22.13,0,0,0,8.4-4.08c4.9-3.89,6.43-8,6.43-17.09a12.16,12.16,0,0,0-.24-2.88h6.53Zm19.49-6c-0.67.82-.67,0.86-1.92,3.36a30.46,30.46,0,0,1-7.39,9.65,30,30,0,0,1-5.76,4,16.23,16.23,0,0,0-4.32-4.37,22.25,22.25,0,0,0,7-4.42,19.91,19.91,0,0,0,4.56-6.1h-25.2a46.11,46.11,0,0,0-6.53.29v-6a38.27,38.27,0,0,0,6.62.38H394c2.88,0,3.31,0,4.66-.43Z"/><path class="a" d="M425.23,1097.36c-2.74,6.19-5.81,9-9.74,9-5.47,0-9.41-5.57-9.41-13.3a20.62,20.62,0,0,1,5.28-14c4-4.42,9.7-6.72,16.51-6.72,11.52,0,19,7,19,17.81,0,8.3-4.32,14.93-11.67,17.91a31.4,31.4,0,0,1-7.54,2,15.31,15.31,0,0,0-2.93-5.62c4.42-.58,7.3-1.34,9.55-2.64a13.44,13.44,0,0,0,6.67-12,11.89,11.89,0,0,0-5.9-10.66,10.48,10.48,0,0,0-4.85-1.44A69.45,69.45,0,0,1,425.23,1097.36Zm-7.06-17.19a16.07,16.07,0,0,0-6.53,13c0,3.94,1.68,7.06,3.79,7.06,1.58,0,3.22-2,4.94-6.14a63.27,63.27,0,0,0,4-16.23A12.22,12.22,0,0,0,418.18,1080.17Z"/><path class="a" d="M484.61,1087a45.1,45.1,0,0,0-4.7-.19H467a38.88,38.88,0,0,0-4.42.19v-3.89a63.57,63.57,0,0,1-9.07,4.94,17.25,17.25,0,0,0-2.83-4.9,44.36,44.36,0,0,0,12.38-7.11c3.65-3,6-5.57,7.25-7.92h6a35.25,35.25,0,0,0,8.3,8.4,42.32,42.32,0,0,0,12.1,6.38,16.78,16.78,0,0,0-2.83,5.33,63.07,63.07,0,0,1-9.22-5.09V1087Zm7.49,7.63c-0.48.48-1.54,1.68-2.11,2.4l-9.26,11.76c-1.2,1.58-2,2.74-3,4.27l-5.52-3.07a33.79,33.79,0,0,0,3.7-4l7.87-9.7h-21.6c-2,0-3.94.1-6,.29v-5.42a59.33,59.33,0,0,0,6,.29h21.89a27.07,27.07,0,0,0,4.94-.24Zm-11.86-12.43c1.2,0,2.11,0,2.83,0a39.23,39.23,0,0,1-9.65-9.22,42.84,42.84,0,0,1-9.46,9.17,24.83,24.83,0,0,0,2.78.1h13.49Z"/><path class="a" d="M501.5,1074c2,0.43,5,.62,11.14.62a19,19,0,0,0,1.92-6l6.29,0.67a36.75,36.75,0,0,0-1.92,4.32c-0.24.53-.34,0.67-0.43,0.86,0.38,0,.38,0,3-0.19a64.79,64.79,0,0,0,12.58-1.63l0.34,5.47c-1.34.1-1.34,0.1-3.79,0.38-3.5.43-9.6,0.82-14.45,1a24.82,24.82,0,0,1-4.42,6.38l0,0.1c0.34-.24.34-0.24,1-0.72a11.61,11.61,0,0,1,6.77-2.16c3.74,0,6.1,1.78,6.86,5.09q5.54-2,7.34-2.59a15,15,0,0,0,3.55-1.44l2.26,5.52a42.32,42.32,0,0,0-5.33,1.3q-1,.29-7.2,2.45V1094c0,1.25,0,1.25,0,1.92v1.92c0,0.82,0,1.25,0,1.58a19.77,19.77,0,0,0,.14,2.54l-5.57.14a38,38,0,0,0,.29-5.57v-1.15a29.21,29.21,0,0,0-4.61,2.5c-1.68,1.25-2.5,2.54-2.5,3.94,0,2.5,2.3,3.5,8.11,3.5s10.71-.72,14.11-2l0.48,6.19a14.09,14.09,0,0,0-2.21.19,87.18,87.18,0,0,1-12.29.86c-5.09,0-8.26-.58-10.71-2a7,7,0,0,1-3.5-6.19,7.65,7.65,0,0,1,2.11-5.33c2.16-2.69,4.9-4.51,10.32-6.77a2.63,2.63,0,0,0-2.93-2.59c-2.78,0-6.14,1.68-9.84,4.94a21.62,21.62,0,0,0-4.18,4.37l-4.37-4.32a29.38,29.38,0,0,0,4.32-4.27,63.55,63.55,0,0,0,5.76-8.21,2.34,2.34,0,0,1,.38-0.62c-0.19,0-.82,0-0.82,0-0.77,0-5-.1-6-0.1s-0.91,0-1.34,0a5.32,5.32,0,0,0-.77,0Z"/><path class="a" d="M554.35,1107a43.3,43.3,0,0,0,.24,5.57h-5.66a46.87,46.87,0,0,0,.29-5.62v-13.25c0-2.54,0-3.31.1-5.42a26.77,26.77,0,0,1-3.74,5.14,28.26,28.26,0,0,0-2.11-5.81,40.19,40.19,0,0,0,10.08-19.63l5.33,1.44a104.14,104.14,0,0,1-4.51,11.23v18.82A41.07,41.07,0,0,0,567,1082h-5.14a44.49,44.49,0,0,0-5.09.29V1077c1.49,0.14,3.36.24,5.23,0.24h7v-4.37a27.37,27.37,0,0,0-.34-4.51h5.71a34.19,34.19,0,0,0-.29,4.56v4.32H583a45.63,45.63,0,0,0,5.52-.29v5.42a47.76,47.76,0,0,0-5.38-.29h-7.06a41.86,41.86,0,0,0,5.62,9.65,38.14,38.14,0,0,0,8.16,8,23.85,23.85,0,0,0-3.31,4.94,47.08,47.08,0,0,1-5.38-5.57v4.56a24,24,0,0,0-3.5-.19H574v3.84a36.85,36.85,0,0,0,.34,5.23h-5.71a38.35,38.35,0,0,0,.34-5.23v-3.84h-3.36a23.84,23.84,0,0,0-3.41.19v-4.51a34.27,34.27,0,0,1-5,5.23,18.46,18.46,0,0,0-2.83-3.94V1107ZM569,1092.89c0-2.5,0-3.5.1-5.76a42.49,42.49,0,0,1-6.43,11.47,28.83,28.83,0,0,0,3.17.14H569v-5.86Zm8.54,5.86a31.73,31.73,0,0,0,3.22-.14,52.19,52.19,0,0,1-6.82-11.62c0.1,2.69.1,3.84,0.1,5.76v6h3.5Z"/><path class="a" d="M597.07,1097a59.2,59.2,0,0,1-1.92,13.3l-3.46-1.68a41,41,0,0,0,2.16-12.34Zm29-14.06c0,1.78,0,2,0,2.93h5a37.87,37.87,0,0,0,3.89-.14,26,26,0,0,0-.19,3.41v6.48a29.28,29.28,0,0,0,.14,3.46c-1.39-.1-2.35-0.14-3.7-0.14H627a16.24,16.24,0,0,0,4.13,5.14,23.64,23.64,0,0,0,6.62,3.79,17.67,17.67,0,0,0-2.5,5A23.94,23.94,0,0,1,624,1102.3a20.73,20.73,0,0,1-10.75,10.61,14.35,14.35,0,0,0-2.83-4.08c-0.91,2.83-2,3.46-5.71,3.46a26,26,0,0,1-2.69-.14,13.35,13.35,0,0,0-.77-4.75,15.28,15.28,0,0,0,3.26.43c2,0,2.35-.58,2.83-5.67l-2,.82a34.92,34.92,0,0,0-1.3-6.53l1.82-.58a30.91,30.91,0,0,1,1.49,5.76c0.19-2.54.29-3.84,0.29-6.62h-9.75c-1.49,0-2.83,0-3.89.14a33.19,33.19,0,0,0,.19-4.08v-16.61a43.6,43.6,0,0,0-.19-4.94,33.3,33.3,0,0,0,4.85.24h8.4a27.71,27.71,0,0,0,4.51-.24v4.66a19.57,19.57,0,0,0-3.65-.24h-1.58v3.12h1a21.92,21.92,0,0,0,3.22-.19v1.3a30.42,30.42,0,0,0,5.66-4.13,20.82,20.82,0,0,0,4.56-5.52H626a17.63,17.63,0,0,0,3.94,4.42,28.77,28.77,0,0,0,7.87,4.85,16.18,16.18,0,0,0-2.16,4.94,32.88,32.88,0,0,1-3.5-2v2.4a24.48,24.48,0,0,0-3.36-.19h-2.69Zm-25.78,13.63c0.34,3.6.48,6.1,0.48,9V1108l-3.17.48c0.14-2.45.19-3.36,0.19-6.62,0-2.3,0-2.88-.19-4.8Zm2-22.66H598.8v3.12h3.55v-3.12Zm0,6.82H598.8v3.12h3.55v-3.12Zm-3.55,6.82v3.22h3.55v-3.22H598.8Zm4.46,8.74a51.5,51.5,0,0,1,1.34,9.41l-2.59.77a49,49,0,0,0-1-9.6ZM619,1083a21.78,21.78,0,0,0-3.26.19v-2.3c-1,.67-1.49,1.06-3,2a12.75,12.75,0,0,0-2-3.79v1.87a21.93,21.93,0,0,0-3.22-.19h-1v3.12h0.91a19.8,19.8,0,0,0,3.22-.19v4.08a22.8,22.8,0,0,0-3.22-.19h-0.91v3.22h1.68a24.14,24.14,0,0,0,3.84-.19c-0.1.86-.14,1.92-0.19,4a78.73,78.73,0,0,1-1.3,13.68c4.75-2.06,8-5.18,9.65-9.31H616.8a30.38,30.38,0,0,0-3.79.19,24.34,24.34,0,0,0,.19-3.5v-6.48c0-1.58,0-2.16-.14-3.41a35.11,35.11,0,0,0,3.79.14h4.7V1083H619Zm-1.34,6.86v5.09h3.5a49.25,49.25,0,0,0,.34-5.09h-3.84Zm11.62-11.09a30.23,30.23,0,0,1-5.81-5.81,31,31,0,0,1-5.14,5.81h10.94Zm-3.22,11.09c-0.1,2.83-.14,3.65-0.29,5.09h4.61v-5.09h-4.32Z"/><path class="a" d="M667.73,1087.13c0,0.19,0,.58,0,1.15a14.61,14.61,0,0,1,1.54,6.77c0,5.23-2.5,9.75-7.15,13-2,1.39-4.22,2.4-8.69,3.94a15.75,15.75,0,0,0-3.41-5.42c3.94-.77,5.9-1.44,8.16-2.78,3.26-1.87,5.18-4.32,5.57-7-1.39,2.21-3.89,3.41-7.06,3.41a8.85,8.85,0,0,1-5.57-1.73,7.5,7.5,0,0,1-3.31-6.48c0-5.09,4-8.74,9.55-8.74a8,8,0,0,1,5,1.44,2,2,0,0,1,0-.58c0-.1,0-2.78,0-4.08-6.86.19-11.38,0.34-13.49,0.48-7.25.53-7.25,0.53-8.54,0.72l-0.19-5.71a20.76,20.76,0,0,0,2.35.1c1.2,0,2,0,8.16-.24,3.12-.1,3.6-0.1,7.54-0.19l4.08-.14c0-4.56,0-4.56-.29-5.81l6,0a37.79,37.79,0,0,0-.24,5.71c8.35,0,12.1-.14,13.87-0.34l0,5.52c-1.78-.14-4.08-0.24-8.06-0.24-1.15,0-2,0-5.81.1V1083Zm-9.79.48c-2.45,0-4.46,1.73-4.46,3.84a3.79,3.79,0,0,0,4.08,3.79,4.37,4.37,0,0,0,4.7-4.32C662.26,1088.91,660.58,1087.61,657.94,1087.61Z"/><path class="a" d="M700.18,1088.72c4.37-1.73,6.48-2.21,10.08-2.21,8.21,0,13.49,4.22,13.49,10.8,0,4.56-2.26,8.21-6.53,10.61a23.75,23.75,0,0,1-11.62,2.74c-4,0-7.39-.77-9.31-2.21a6.85,6.85,0,0,1-2.88-5.52c0-4,3.46-6.87,8.26-6.87A10.33,10.33,0,0,1,710,1100a12.91,12.91,0,0,1,2.21,4.32c4-1.49,5.71-3.55,5.71-7,0-3.75-3.7-6.19-9.5-6.19a29.58,29.58,0,0,0-19.78,8.07l-3.26-5.18a43.18,43.18,0,0,0,6.77-4.51,160.3,160.3,0,0,0,14.35-12.48l0.86-.86,0,0c-1.82.24-4.9,0.43-13.58,0.82a16.24,16.24,0,0,0-2.3.24l-0.24-5.76a43.35,43.35,0,0,0,5.66.29c4.08,0,9.94-.24,14.59-0.58a7.05,7.05,0,0,0,3-.62l3,4.22a10.27,10.27,0,0,0-2.5,2c-2.4,2.21-5.9,5.33-7.54,6.72-0.86.72-4.32,3.31-5.28,3.94a18.72,18.72,0,0,1-2,1.25Zm1.44,12c-1.73,0-2.83.86-2.83,2.21,0,1.92,2.16,3,5.71,3a13,13,0,0,0,2.5-.19C706.13,1102.4,704.31,1100.67,701.62,1100.67Z"/><path class="ae" d="M710,1130.5H190a40,40,0,0,1,0-80H710a39.48,39.48,0,0,1,39.5,39.75v0.13C749.5,1112.38,732,1130.5,710,1130.5Z"/></svg>