<?xml version="1.0" encoding="utf-8"?>
<!-- Generator: Adobe Illustrator 18.1.1, SVG Export Plug-In . SVG Version: 6.00 Build 0)  -->
<svg version="1.1" id="レイヤー_1" xmlns="http://www.w3.org/2000/svg" xmlns:xlink="http://www.w3.org/1999/xlink" x="0px"
	 y="0px" width="423.4px" height="146px" viewBox="0 0 423.4 146" enable-background="new 0 0 423.4 146" xml:space="preserve">
<g id="XMLID_52_">
	<g id="XMLID_4_">
		<g id="XMLID_53_">
			<g id="XMLID_65_">
				<path id="XMLID_69_" d="M242.3-126c-0.8-0.2-0.8-0.2-1-1c-0.3-1.4-0.6-2.7-0.8-4.1c-0.4-2.7-0.5-5.4-0.6-8.1
					c-0.1-2.5,0-5,0.1-7.5c0-0.7,0.1-1.4,0.1-2.1c0.1-0.8,0-0.8,0.7-1c3.4-0.6,7.2-0.6,10.5-1.8c1.6-0.6,2.8-1.8,2.5-3.5
					c-0.3-2.1-1.7-3.1-3.7-3.4c-1-0.1-2,0.6-2.8,1c-2.1,1.1-4.3,1.9-6.6,2.6c0.3-1.5,0.4-3.1,0.6-4.6c0.2-1.7,0.7-3.8-0.4-5.2
					c-1.2-1.5-3.2-2.3-4.8-3.2c-1.3-0.7-2.5-1.4-3.8-2.1c5.1-0.6,10.2-1.1,15.1-2.3c0.5-0.1,1.3-0.3,1.7-0.7
					c0.6-0.6,0.2-1.7-0.1-2.3c-0.8-1.7-2.6-2.8-4.5-2.8c-1.9,0-3.8,0.8-5.6,1.4c-2.4,0.7-4.8,1.5-7.2,2.1c-2.8,0.7-5.6,1.4-8.4,1.7
					c-2.6,0.3-5.5,0.7-8-0.5c2.7,4.3,8.5,3.8,13,3.5c0.5,0,1.3-0.3,1.8-0.1c0.3,0.1,0.8,0.6,1.1,0.9c0.6,0.5,1.2,1.1,1.7,1.8
					c2,2.8,2.2,6.6,2.2,9.9c0,1.1,0,2.2,0,3.4c0,0.2,0.1,0.8,0,0.9c-0.1,0.1-0.8,0.2-1,0.2c-1.5,0.3-3,0.7-4.5,0.9
					c-2.9,0.5-5.9,0.8-8.8,0.6c-2.8-0.2-5.5-1.5-5.1-4.8c-1.3,1.9-2,4.9-0.3,6.7c1.9,2.1,5.3,2.1,7.9,2.1c3.9-0.1,7.8-0.8,11.6-1.6
					c-0.1,7.3,0.3,14.5,0.7,21.8c-7.5-0.3-23.5-0.9-22.7,10.5c0.4,5.6,6.1,8.2,10.9,9.1c4.4,0.9,10,1.1,13.9-1.4
					c3.3-2.1,3.8-5.9,4.2-9.5c3.7,1.9,6.1,5.6,9.6,7.8c1.1,0.7,1.9,0.9,3.1,0.4c1.7-0.7,2.4-2.7,2.5-4.4c0.2-2.8-2-5-4.1-6.5
					C249.7-123.2,246-124.8,242.3-126z M231.5-112.4c-3.7,2.5-8.9,2.5-12.8,0.5c-3.4-1.7-6.4-5.4-3.9-9.1c1.9-2.9,5.7-3.6,9-3.5
					c3.6,0.1,7.5,0.9,10.8,2.4c0.6,0.3,0.5,0.4,0.6,1.1c0.1,1.2,0.1,2.5-0.1,3.7C234.5-115.4,233.2-113.6,231.5-112.4
					C229.4-111,233.6-113.8,231.5-112.4z M205.6-167.8c0.1-2.2-0.9-4.5-2.3-6.2c-1.6-1.9-3.8-3.9-6.3-4.6c1.5,3.1,1.7,6.6,1.4,10
					c-0.4,4.3-1.4,8.5-2.1,12.7c-1,5.7-2.1,11.4-2.6,17.2c-0.5,5.3-0.6,10.8,0,16.1c0.4,3.4,1.1,6.8,2.4,9.9
					c0.7,1.6,1.5,3.2,2.5,4.6c0.6,0.8,1.4,1.9,2.5,2c1.8,0.2,2.9-0.8,3.1-2.5c0.3-2.3-0.3-4.7-0.2-7.1c0.1-4.3,1-8.5,1.7-12.7
					c-1.3,3-3.2,9.4-7.8,7.3c-1.8-0.8-2.6-2.5-3.1-4.3c-0.6-2.1-0.9-4.3-1.1-6.5c-0.2-3.8,0.1-7.7,1.1-11.4
					c1.1-4.4,3.1-8.5,5.2-12.4c1.3-2.5,2.8-4.9,4.2-7.3C205.1-164.4,205.6-165.9,205.6-167.8C205.7-169.6,205.6-165.2,205.6-167.8z"
					/>
				<path id="XMLID_66_" d="M258.7-162.6c-2.7,0.2-3.9-3.3-5.2-5.1c-1.3-1.8-2.8-3-5-3.4c3.2-0.8,7-0.6,9.8,1.1
					c1.3,0.7,2.4,1.9,2.7,3.4C261.5-164.8,260.7-162.8,258.7-162.6C256.8-162.5,260.4-162.7,258.7-162.6z M264.7-168.5
					c-0.8,0.1-1.4-0.4-1.9-1c-1-1-1.7-2.2-2.6-3.3c-1.5-2-3.2-3.2-5.7-3.7c3-0.5,6.4-0.8,9.3,0.3c1.5,0.6,2.7,1.6,3.2,3.2
					C267.6-171.1,267-168.6,264.7-168.5C263.7-168.4,265.9-168.5,264.7-168.5z"/>
			</g>
			<path id="XMLID_62_" d="M161.7-120c-2.9-1.4-6-2.5-9.2-3.4c-1.2-0.3-2.5-0.6-3.7-0.9c-0.2,0-0.8,0-0.9-0.2
				c-0.1-0.1-0.2-0.8-0.2-1c-1-4.5-2-9.3-2.1-14c0-0.3-0.1-0.9,0-1.1c0.1-0.2,0.3-0.2,0.6-0.2c1.3-0.2,2.6-0.5,3.9-0.7
				c3-0.6,6-1.1,9-1.8c1.4-0.3,4.3-0.7,4.9-2.3c0.3-0.8-0.1-2-0.4-2.6c-0.4-1-1.3-1.5-2.3-1.9c-1.3-0.4-2.9-0.7-4.2-0.2
				c-0.9,0.3-1.7,0.9-2.5,1.3c-2.9,1.6-5.9,3.1-9.2,3.7c0.1-3.4,0.1-6.8,0.3-10.2c0-0.4-0.1-1.4,0.1-1.8c0.2-0.3,1.2-0.3,1.6-0.4
				c2.9-0.6,5.9-1.2,8.8-1.8c2.4-0.5,4.9-1,7.3-1.7c0.7-0.2,1.4-0.4,2.1-0.7c0.8-0.3,2.2-0.8,2.6-1.7c0.7-1.8-1.6-3.4-2.9-4
				c-1.9-0.8-3.8-1-5.7-0.1c-4.3,1.9-8.5,3.8-13,5.1c0.2-1.3,0.3-2.7,0.5-4c0.4-2.3,1.5-4.6,2.2-6.8c0.4-1.4,0.6-2.8-0.3-4
				c-1.6-2.3-5.2-2.7-7.8-2.9c-3-0.2-6.2,0.2-9,1.4c3.5,0.1,6.4,2.2,7.7,5.5c0.6,1.6,0.6,3.4,0.6,5.1c0,1.6,0,3.2,0,4.9
				c0,0.6,0,1.1,0,1.7c0,0.6,0.1,0.5-0.4,0.7c-0.8,0.2-1.7,0.3-2.6,0.5c-3,0.7-6,1-9.1,1.1c-4.3,0.1-8.4,0-12.5-1.6
				c1.7,2,4,4.2,6.4,5.4c2.3,1.1,4.9,1,7.3,0.8c3.7-0.2,7.3-0.9,10.9-1.5c0,1.8,0,3.7-0.1,5.5c0,1.1,0,2.2,0,3.2c0,0.7,0,1.4,0.1,2
				c0,0.2,0.2,1,0,1.2c-0.2,0.3-1.4,0.4-1.7,0.4c-1.3,0.3-2.7,0.6-4,0.9c-3.2,0.6-6.4,1-9.7,1.1c-1.4,0.1-3.1,0.1-4.3-0.7
				c-1.1-0.8-1.8-2.4-1.1-3.7c-1.3,1.7-2,3.9-0.4,5.7c1.8,2,5.1,1.9,7.5,1.9c4.7,0.1,9.2-0.6,13.8-1.2c0.2,2.4,0.3,4.8,0.5,7.3
				c0.1,1.6,0.2,3.1,0.2,4.7c0,0.4,0.2,2.3-0.1,2.6c-0.3,0.2-2.6-0.1-2.9-0.1c-1.5,0-3,0-4.6,0.2c-3.6,0.3-7.3,0.9-10.6,2.3
				c-2.6,1.2-5,3-5.8,5.8c-0.9,3.1,0.1,6.3,2.5,8.5c2.7,2.5,6.4,3.6,9.9,3.9c3.5,0.3,7.2,0.1,10.6-0.9c2.6-0.7,5.1-2.1,6.4-4.6
				c1.3-2.5,1.4-5.4,1.6-8.2c1.3,0.7,2.6,1.4,3.9,2.3c2.5,1.6,5.1,3.3,7.3,5.2c2,1.7,3.6,3.7,6.4,3.7c2.9,0,3.9-4.1,3-6.3
				C167.9-116.6,164.5-118.6,161.7-120C157.1-122.2,166.3-117.7,161.7-120z M136.8-110.6c-3.9,2.1-9.4,2.1-13.6,0.9
				c-3.5-1.1-7-3.8-5.7-7.9c1.6-5,7.8-5,12.1-5c3.8,0,7.6,0.7,11.1,2c0.6,0.2,0.5,0.5,0.5,1.2c0.1,1.2,0,2.5-0.3,3.7
				C140.3-113.4,138.8-111.6,136.8-110.6C134.2-109.2,139.3-111.8,136.8-110.6z"/>
			<path id="XMLID_56_" d="M304.8-138.8c-1.8,1-3.7,2-5.5,2.9c2.4-3.6,4.7-7.1,7.5-10.5c4.4-5.2,9-10.2,13.9-15
				c1.6-1.6,3.3-3.2,5.1-4.5c1.3-0.9,3.2-1.7,4.1-3c0.8-1.3-0.3-2.7-1.1-3.7c-1.4-1.8-3.3-3.3-5.3-4.4c-0.9-0.5-1.9-1.1-2.9-1
				c-0.6,0.1-1.2,0.3-1.7,0.5c-1.6,0.5-3.1,1.2-4.7,1.8c-4.6,1.8-9.3,3.4-14.2,4.3c-1.6,0.3-3.4,0.7-5.1,0.4c-2.6-0.5-4.1-2.5-4.8-5
				c-1.8,2.3-2.4,4.7-1.2,7.4c1,2.4,3.1,4.8,5.6,5.5c1.5,0.4,2.7,0.1,4-0.8c1.5-1,2.9-2,4.5-2.9c3.9-2.2,7.9-4.4,12.1-6.3
				c1.9-0.8,5.6-2.4,6.1,0.9c0.2,1-0.4,1.9-1,2.7c-0.8,1.1-1.6,2.2-2.5,3.3c-3.8,4.8-7.8,9.4-11.7,14.1c-3.8,4.5-7.4,9.2-11.4,13.5
				c-3.1,3.3-7,6.2-9.4,10.1c-0.7,1.1-1.1,2.4-1.2,3.7c-0.1,1.8,1.2,5.1,3.5,4.7c2.3-0.4,4.1-2.9,5.5-4.6c1.9-2.3,3.7-4.6,5.6-6.8
				c3.6-3.9,7.7-7.5,12.4-10.1c1.1-0.6,2.3-1.2,3.5-1.7C311.2-141.9,307.9-140.4,304.8-138.8z M326.5-144.1c-1.2,0-2.5,0.1-3.7,0.2
				c3.8-0.1,7.5,0.6,10.2,3.4c2.5,2.6,3.6,6.4,3.6,9.9c0,8-5.2,14.4-11.5,18.6c-4.2,2.8-8.8,5-13.6,6.6c6.7-0.3,13.5-1.2,19.8-3.6
				c4.6-1.7,9.1-4.3,12.1-8.3c5-6.6,4.7-16.2-1.7-21.8C337.6-142.6,331.9-144.1,326.5-144.1C325.3-144.1,338.2-144.1,326.5-144.1z"
				/>
			<path id="XMLID_55_" d="M391.5-113.2c-4.6,0-10-1.4-13.1-5c-4.5-5.2-4.3-12-3.5-18.3c0.8-6.1,2.9-11.7,5.2-17.4
				c1.3-3.3,2.6-6.6,3.7-10c0.9-2.9,1.6-6.1,0.7-9c-1-3.3-3.4-5.6-6.7-6.8c-3.3-1.2-6.4,0.1-9.4,1.5c8.5,2.3,8.5,11.9,7.8,19
				c-0.4,4.2-1,8.3-1.6,12.5c-0.7,5.3-1.1,10.5-1.7,15.8c-0.5,4.5-1.1,9.3-0.1,13.8c0.8,3.3,2.7,5.9,5.4,8
				c6.9,5.2,16.9,5.7,24.8,2.6c8.5-3.3,14.4-10.8,18.6-18.6c0.7-1.2,1.3-2.5,1.9-3.8c-2.7,4.2-6,8-10.2,10.7
				c-3.8,2.5-8.2,3.8-12.7,4.4C397.5-113.3,394.5-113.2,391.5-113.2z"/>
		</g>
		<rect id="XMLID_10_" x="122.3" y="-85.4" fill="none" width="298.8" height="22.6"/>
		<text id="XMLID_1_" transform="matrix(1 0 0 1 122.2939 -69.8953)"><tspan x="0" y="0" font-family="'BigCaslon-Medium'" font-size="18" letter-spacing="6">MABOROSHI C</tspan><tspan x="211.2" y="0" font-family="'BigCaslon-Medium'" font-size="18" letter-spacing="1">o</tspan><tspan x="221.9" y="0" font-family="'BigCaslon-Medium'" font-size="18" letter-spacing="1">.</tspan><tspan x="228.2" y="0" font-family="'BigCaslon-Medium'" font-size="18" letter-spacing="6">, Lt</tspan><tspan x="281.3" y="0" font-family="'BigCaslon-Medium'" font-size="18" letter-spacing="3">d</tspan><tspan x="294.5" y="0" font-family="'BigCaslon-Medium'" font-size="18" letter-spacing="5">.</tspan></text>
	</g>
	<path id="XMLID_75_" d="M108.4-205.7c-12,1.8-23.9,4.2-35.6,7.7c-13,3.9-25.6,9.1-37.3,15.9c-8.1,4.7-15.9,10.2-22.7,16.7
		c-4,3.7-7.7,7.7-10.8,12.2c-0.6,0.8-1.4,1.8-1.8,2.7c0,0.1-0.1,0.2-0.1,0.2c0,0,0,0,0,0c0,0.1,0.3,0.6,0.3,0.7
		c0.3,0.7,0.6,1.3,0.9,2c2.1,4.5,4.2,8.9,6.3,13.4c1,2.1,2,4.3,3,6.4c10.5-5.3,21.7-9.1,33.3-11.2c-5.7,3.8-11,8.2-15.9,13
		c-2.5,2.5-4.8,5-7.1,7.7c-0.6,0.7-1.1,1.3-1.6,2c-0.6,0.7-1.4,1.5-1.8,2.3c-0.2,0.5-0.1,0.5,0.1,1c0.2,0.4,0.4,0.8,0.6,1.2
		c0.4,0.9,0.8,1.7,1.2,2.6c1.8,3.8,3.5,7.5,5.3,11.3c6.9-5.1,14.5-9,22.7-11.3c-4,3.9-7.2,8.7-9.1,14c-2.3,6.6-2.3,13.6-0.9,20.4
		c1,5.1,2.8,10,5,14.7c0.3-0.5,0-1.2-0.1-1.8c-0.1-0.7-0.2-1.4-0.2-2.1c-0.1-1.5-0.2-3-0.2-4.4c0-2.9,0.2-5.9,0.8-8.7
		c1-5.1,2.8-9.7,5.2-14.3c0,0,0,0.1,0,0c1.5-2.5,3.1-4.8,4.9-7c2-2.4,4.3-4.7,6.8-6.6c1.3-1,2.7-2,4.1-2.9c0.7-0.4,1.5-0.7,1.9-1.4
		c0.5-0.8,0.8-1.7,1.2-2.6c1.7-3.6,3.4-7.3,5.1-10.9c-7.4-1-14.9-1-22.3,0c5.7-3.9,11.7-7.2,18.1-9.9c3.1-1.3,6.3-2.5,9.6-3.4
		c0.3-0.1,0.8-0.1,1-0.3c0.2-0.2,0.4-1,0.6-1.3c0.4-0.9,0.8-1.8,1.3-2.7c0.8-1.6,1.5-3.2,2.3-4.9c1.8-3.8,3.5-7.6,5.3-11.3
		c-14.5-3-29.3-3.7-44-2.2c2.5-1.4,5-2.8,7.7-4c3.2-1.4,6.4-2.6,9.8-3.7c5.1-1.8,10.6-3.1,15.9-4.1c4.2-0.8,8.3-1.5,12.5-2
		c1-0.1,2-0.2,3.1-0.3c0.5-0.1,1-0.1,1.5-0.2c0.3,0,0.5,0,0.8-0.1c0.5,0,0.5,0,0.7-0.4c0.6-0.8,0.9-2,1.3-2.9c0.5-1.1,1-2.2,1.5-3.2
		c4.1-8.8,8.1-17.8,12.4-26.5C109.9-205.9,109.1-205.8,108.4-205.7z"/>
</g>
<g id="XMLID_3_">
	<g id="XMLID_6_">
		<g id="XMLID_9_">
			<g id="XMLID_21_">
				<path id="XMLID_28_" fill="#FFFFFF" d="M242.3,80c-0.8-0.2-0.8-0.2-1-1c-0.3-1.4-0.6-2.7-0.8-4.1c-0.4-2.7-0.5-5.4-0.6-8.1
					c-0.1-2.5,0-5,0.1-7.5c0-0.7,0.1-1.4,0.1-2.1c0.1-0.8,0-0.8,0.7-1c3.4-0.6,7.2-0.6,10.5-1.8c1.6-0.6,2.8-1.8,2.5-3.5
					c-0.3-2.1-1.7-3.1-3.7-3.4c-1-0.1-2,0.6-2.8,1c-2.1,1.1-4.3,1.9-6.6,2.6c0.3-1.5,0.4-3.1,0.6-4.6c0.2-1.7,0.7-3.8-0.4-5.2
					c-1.2-1.5-3.2-2.3-4.8-3.2c-1.3-0.7-2.5-1.4-3.8-2.1c5.1-0.6,10.2-1.1,15.1-2.3c0.5-0.1,1.3-0.3,1.7-0.7
					c0.6-0.6,0.2-1.7-0.1-2.3c-0.8-1.7-2.6-2.8-4.5-2.8c-1.9,0-3.8,0.8-5.6,1.4c-2.4,0.7-4.8,1.5-7.2,2.1c-2.8,0.7-5.6,1.4-8.4,1.7
					c-2.6,0.3-5.5,0.7-8-0.5c2.7,4.3,8.5,3.8,13,3.5c0.5,0,1.3-0.3,1.8-0.1c0.3,0.1,0.8,0.6,1.1,0.9c0.6,0.5,1.2,1.1,1.7,1.8
					c2,2.8,2.2,6.6,2.2,9.9c0,1.1,0,2.2,0,3.4c0,0.2,0.1,0.8,0,0.9c-0.1,0.1-0.8,0.2-1,0.2c-1.5,0.3-3,0.7-4.5,0.9
					c-2.9,0.5-5.9,0.8-8.8,0.6c-2.8-0.2-5.5-1.5-5.1-4.8c-1.3,1.9-2,4.9-0.3,6.7c1.9,2.1,5.3,2.1,7.9,2.1c3.9-0.1,7.8-0.8,11.6-1.6
					c-0.1,7.3,0.3,14.5,0.7,21.8c-7.5-0.3-23.5-0.9-22.7,10.5c0.4,5.6,6.1,8.2,10.9,9.1c4.4,0.9,10,1.1,13.9-1.4
					c3.3-2.1,3.8-5.9,4.2-9.5c3.7,1.9,6.1,5.6,9.6,7.8c1.1,0.7,1.9,0.9,3.1,0.4c1.7-0.7,2.4-2.7,2.5-4.4c0.2-2.8-2-5-4.1-6.5
					C249.7,82.8,246,81.2,242.3,80z M231.5,93.6c-3.7,2.5-8.9,2.5-12.8,0.5c-3.4-1.7-6.4-5.4-3.9-9.1c1.9-2.9,5.7-3.6,9-3.5
					c3.6,0.1,7.5,0.9,10.8,2.4c0.6,0.3,0.5,0.4,0.6,1.1c0.1,1.2,0.1,2.5-0.1,3.7C234.5,90.6,233.2,92.4,231.5,93.6
					C229.4,95,233.6,92.2,231.5,93.6z M205.6,38.2c0.1-2.2-0.9-4.5-2.3-6.2c-1.6-1.9-3.8-3.9-6.3-4.6c1.5,3.1,1.7,6.6,1.4,10
					c-0.4,4.3-1.4,8.5-2.1,12.7c-1,5.7-2.1,11.4-2.6,17.2c-0.5,5.3-0.6,10.8,0,16.1c0.4,3.4,1.1,6.8,2.4,9.9
					c0.7,1.6,1.5,3.2,2.5,4.6c0.6,0.8,1.4,1.9,2.5,2c1.8,0.2,2.9-0.8,3.1-2.5c0.3-2.3-0.3-4.7-0.2-7.1c0.1-4.3,1-8.5,1.7-12.7
					c-1.3,3-3.2,9.4-7.8,7.3c-1.8-0.8-2.6-2.5-3.1-4.3c-0.6-2.1-0.9-4.3-1.1-6.5c-0.2-3.8,0.1-7.7,1.1-11.4
					c1.1-4.4,3.1-8.5,5.2-12.4c1.3-2.5,2.8-4.9,4.2-7.3C205.1,41.6,205.6,40.1,205.6,38.2C205.7,36.4,205.6,40.8,205.6,38.2z"/>
				<path id="XMLID_22_" fill="#FFFFFF" d="M258.7,43.4c-2.7,0.2-3.9-3.3-5.2-5.1c-1.3-1.8-2.8-3-5-3.4c3.2-0.8,7-0.6,9.8,1.1
					c1.3,0.7,2.4,1.9,2.7,3.4C261.5,41.2,260.7,43.2,258.7,43.4C256.8,43.5,260.4,43.3,258.7,43.4z M264.7,37.5
					c-0.8,0.1-1.4-0.4-1.9-1c-1-1-1.7-2.2-2.6-3.3c-1.5-2-3.2-3.2-5.7-3.7c3-0.5,6.4-0.8,9.3,0.3c1.5,0.6,2.7,1.6,3.2,3.2
					C267.6,34.9,267,37.4,264.7,37.5C263.7,37.6,265.9,37.5,264.7,37.5z"/>
			</g>
			<path id="XMLID_18_" fill="#FFFFFF" d="M161.7,86c-2.9-1.4-6-2.5-9.2-3.4c-1.2-0.3-2.5-0.6-3.7-0.9c-0.2,0-0.8,0-0.9-0.2
				c-0.1-0.1-0.2-0.8-0.2-1c-1-4.5-2-9.3-2.1-14c0-0.3-0.1-0.9,0-1.1c0.1-0.2,0.3-0.2,0.6-0.2c1.3-0.2,2.6-0.5,3.9-0.7
				c3-0.6,6-1.1,9-1.8c1.4-0.3,4.3-0.7,4.9-2.3c0.3-0.8-0.1-2-0.4-2.6c-0.4-1-1.3-1.5-2.3-1.9c-1.3-0.4-2.9-0.7-4.2-0.2
				c-0.9,0.3-1.7,0.9-2.5,1.3c-2.9,1.6-5.9,3.1-9.2,3.7c0.1-3.4,0.1-6.8,0.3-10.2c0-0.4-0.1-1.4,0.1-1.8c0.2-0.3,1.2-0.3,1.6-0.4
				c2.9-0.6,5.9-1.2,8.8-1.8c2.4-0.5,4.9-1,7.3-1.7c0.7-0.2,1.4-0.4,2.1-0.7c0.8-0.3,2.2-0.8,2.6-1.7c0.7-1.8-1.6-3.4-2.9-4
				c-1.9-0.8-3.8-1-5.7-0.1c-4.3,1.9-8.5,3.8-13,5.1c0.2-1.3,0.3-2.7,0.5-4c0.4-2.3,1.5-4.6,2.2-6.8c0.4-1.4,0.6-2.8-0.3-4
				c-1.6-2.3-5.2-2.7-7.8-2.9c-3-0.2-6.2,0.2-9,1.4c3.5,0.1,6.4,2.2,7.7,5.5c0.6,1.6,0.6,3.4,0.6,5.1c0,1.6,0,3.2,0,4.9
				c0,0.6,0,1.1,0,1.7c0,0.6,0.1,0.5-0.4,0.7c-0.8,0.2-1.7,0.3-2.6,0.5c-3,0.7-6,1-9.1,1.1c-4.3,0.1-8.4,0-12.5-1.6
				c1.7,2,4,4.2,6.4,5.4c2.3,1.1,4.9,1,7.3,0.8c3.7-0.2,7.3-0.9,10.9-1.5c0,1.8,0,3.7-0.1,5.5c0,1.1,0,2.2,0,3.2c0,0.7,0,1.4,0.1,2
				c0,0.2,0.2,1,0,1.2c-0.2,0.3-1.4,0.4-1.7,0.4c-1.3,0.3-2.7,0.6-4,0.9c-3.2,0.6-6.4,1-9.7,1.1c-1.4,0.1-3.1,0.1-4.3-0.7
				c-1.1-0.8-1.8-2.4-1.1-3.7c-1.3,1.7-2,3.9-0.4,5.7c1.8,2,5.1,1.9,7.5,1.9c4.7,0.1,9.2-0.6,13.8-1.2c0.2,2.4,0.3,4.8,0.5,7.3
				c0.1,1.6,0.2,3.1,0.2,4.7c0,0.4,0.2,2.3-0.1,2.6c-0.3,0.2-2.6-0.1-2.9-0.1c-1.5,0-3,0-4.6,0.2c-3.6,0.3-7.3,0.9-10.6,2.3
				c-2.6,1.2-5,3-5.8,5.8c-0.9,3.1,0.1,6.3,2.5,8.5c2.7,2.5,6.4,3.6,9.9,3.9c3.5,0.3,7.2,0.1,10.6-0.9c2.6-0.7,5.1-2.1,6.4-4.6
				c1.3-2.5,1.4-5.4,1.6-8.2c1.3,0.7,2.6,1.4,3.9,2.3c2.5,1.6,5.1,3.3,7.3,5.2c2,1.7,3.6,3.7,6.4,3.7c2.9,0,3.9-4.1,3-6.3
				C167.9,89.4,164.5,87.4,161.7,86C157.1,83.8,166.3,88.3,161.7,86z M136.8,95.4c-3.9,2.1-9.4,2.1-13.6,0.9c-3.5-1.1-7-3.8-5.7-7.9
				c1.6-5,7.8-5,12.1-5c3.8,0,7.6,0.7,11.1,2c0.6,0.2,0.5,0.5,0.5,1.2c0.1,1.2,0,2.5-0.3,3.7C140.3,92.6,138.8,94.4,136.8,95.4
				C134.2,96.8,139.3,94.2,136.8,95.4z"/>
			<path id="XMLID_12_" fill="#FFFFFF" d="M304.8,67.2c-1.8,1-3.7,2-5.5,2.9c2.4-3.6,4.7-7.1,7.5-10.5c4.4-5.2,9-10.2,13.9-15
				c1.6-1.6,3.3-3.2,5.1-4.5c1.3-0.9,3.2-1.7,4.1-3c0.8-1.3-0.3-2.7-1.1-3.7c-1.4-1.8-3.3-3.3-5.3-4.4c-0.9-0.5-1.9-1.1-2.9-1
				c-0.6,0.1-1.2,0.3-1.7,0.5c-1.6,0.5-3.1,1.2-4.7,1.8c-4.6,1.8-9.3,3.4-14.2,4.3c-1.6,0.3-3.4,0.7-5.1,0.4c-2.6-0.5-4.1-2.5-4.8-5
				c-1.8,2.3-2.4,4.7-1.2,7.4c1,2.4,3.1,4.8,5.6,5.5c1.5,0.4,2.7,0.1,4-0.8c1.5-1,2.9-2,4.5-2.9c3.9-2.2,7.9-4.4,12.1-6.3
				c1.9-0.8,5.6-2.4,6.1,0.9c0.2,1-0.4,1.9-1,2.7c-0.8,1.1-1.6,2.2-2.5,3.3c-3.8,4.8-7.8,9.4-11.7,14.1c-3.8,4.5-7.4,9.2-11.4,13.5
				c-3.1,3.3-7,6.2-9.4,10.1c-0.7,1.1-1.1,2.4-1.2,3.7c-0.1,1.8,1.2,5.1,3.5,4.7c2.3-0.4,4.1-2.9,5.5-4.6c1.9-2.3,3.7-4.6,5.6-6.8
				c3.6-3.9,7.7-7.5,12.4-10.1c1.1-0.6,2.3-1.2,3.5-1.7C311.2,64.1,307.9,65.6,304.8,67.2z M326.5,61.9c-1.2,0-2.5,0.1-3.7,0.2
				c3.8-0.1,7.5,0.6,10.2,3.4c2.5,2.6,3.6,6.4,3.6,9.9c0,8-5.2,14.4-11.5,18.6c-4.2,2.8-8.8,5-13.6,6.6c6.7-0.3,13.5-1.2,19.8-3.6
				c4.6-1.7,9.1-4.3,12.1-8.3c5-6.6,4.7-16.2-1.7-21.8C337.6,63.4,331.9,61.9,326.5,61.9C325.3,61.9,338.2,61.9,326.5,61.9z"/>
			<path id="XMLID_11_" fill="#FFFFFF" d="M391.5,92.8c-4.6,0-10-1.4-13.1-5c-4.5-5.2-4.3-12-3.5-18.3c0.8-6.1,2.9-11.7,5.2-17.4
				c1.3-3.3,2.6-6.6,3.7-10c0.9-2.9,1.6-6.1,0.7-9c-1-3.3-3.4-5.6-6.7-6.8c-3.3-1.2-6.4,0.1-9.4,1.5c8.5,2.3,8.5,11.9,7.8,19
				c-0.4,4.2-1,8.3-1.6,12.5c-0.7,5.3-1.1,10.5-1.7,15.8c-0.5,4.5-1.1,9.3-0.1,13.8c0.8,3.3,2.7,5.9,5.4,8
				c6.9,5.2,16.9,5.7,24.8,2.6c8.5-3.3,14.4-10.8,18.6-18.6c0.7-1.2,1.3-2.5,1.9-3.8c-2.7,4.2-6,8-10.2,10.7
				c-3.8,2.5-8.2,3.8-12.7,4.4C397.5,92.7,394.5,92.8,391.5,92.8z"/>
		</g>
		<g id="XMLID_2_">
			<path id="XMLID_33_" fill="#FFFFFF" d="M133.4,136.1v-0.2c0.5,0,0.9-0.1,1.3-0.3c0.3-0.2,0.6-0.4,0.7-0.7
				c0.1-0.2,0.1-0.4,0.2-0.6c0-0.2,0.1-0.5,0.1-0.7c0-0.8,0-1.5,0-2.3s0-1.5,0-2.2V124c-0.4,0.9-0.8,1.7-1.1,2.4
				c-0.3,0.7-0.7,1.5-1,2.2c-0.3,0.7-0.7,1.4-1,2.2c-0.3,0.7-0.7,1.6-1.1,2.4c-0.1,0.1-0.1,0.3-0.3,0.6c-0.1,0.3-0.2,0.5-0.3,0.8
				c-0.1,0.3-0.2,0.5-0.3,0.7c-0.1,0.2-0.2,0.4-0.2,0.4h-0.1c-0.4-0.9-0.8-1.8-1.1-2.6s-0.7-1.7-1.1-2.5c-0.4-0.8-0.7-1.6-1-2.3
				c-0.3-0.7-0.6-1.3-0.8-1.9c-0.3-0.6-0.5-1-0.6-1.4c-0.2-0.4-0.3-0.6-0.3-0.8c0,0.8,0,1.5,0,2.1c0,0.6,0,1.2,0,1.8
				c0,0.6,0,1.2,0,1.9s0,1.4,0,2.3c0,0.6,0,1.1,0.1,1.5c0,0.4,0.1,0.8,0.3,1c0.1,0.3,0.4,0.5,0.7,0.7c0.3,0.2,0.7,0.3,1.2,0.4v0.2
				h-4.7v-0.2c0.4-0.1,0.8-0.2,1-0.4c0.3-0.2,0.5-0.4,0.6-0.7c0.2-0.3,0.3-0.6,0.3-1.1c0.1-0.4,0.1-0.9,0.1-1.6c0-0.5,0-1.1,0.1-1.8
				c0-0.7,0-1.5,0-2.3c0-0.3,0-0.6,0-0.9c0-0.2,0-0.5,0-0.7c0-0.2,0-0.5,0-0.7s0-0.5,0-0.9c0-0.3-0.1-0.6-0.2-0.8
				c-0.1-0.2-0.3-0.4-0.5-0.5c-0.2-0.1-0.4-0.2-0.6-0.3c-0.2-0.1-0.4-0.1-0.5-0.1v-0.2h3.8l4.3,9.8c0.5-1.1,1-2.3,1.5-3.4
				c0.5-1.1,1-2.1,1.4-3.1c0.4-0.9,0.7-1.7,1-2.3c0.3-0.6,0.4-1,0.4-1.1h3.8v0.2c-0.5,0-0.9,0.1-1.1,0.3c-0.3,0.2-0.4,0.4-0.5,0.7
				c-0.1,0.2-0.1,0.5-0.1,1c0,0.4,0,0.9-0.1,1.3c0,0.6,0,1.1,0,1.7s0,1.1,0,1.6c0,0.6,0,1.3,0,1.9c0,0.6,0,1.3,0,2
				c0,0.2,0,0.5,0,0.7c0,0.2,0.1,0.4,0.2,0.5c0,0,0.1,0.1,0.1,0.2s0.2,0.2,0.3,0.3c0.1,0.1,0.3,0.2,0.5,0.3c0.2,0.1,0.5,0.1,0.8,0.1
				v0.2H133.4z"/>
			<path id="XMLID_35_" fill="#FFFFFF" d="M154.7,136.1v-0.2c0,0,0.1,0,0.3,0c0.1,0,0.3-0.1,0.4-0.1c0.1-0.1,0.3-0.1,0.4-0.3
				c0.1-0.1,0.2-0.2,0.2-0.4c0-0.1,0-0.3-0.1-0.5s-0.2-0.5-0.3-0.9c-0.1-0.4-0.3-0.7-0.4-1.2c-0.2-0.4-0.3-0.9-0.5-1.3h-4.8
				c-0.2,0.5-0.4,0.9-0.5,1.3s-0.3,0.8-0.5,1.3c-0.3,0.6-0.4,1.1-0.4,1.4c0,0.2,0,0.3,0.1,0.4c0.1,0.1,0.2,0.2,0.4,0.3
				c0.1,0.1,0.3,0.1,0.5,0.1c0.2,0,0.3,0.1,0.5,0.1v0.2h-3.8v-0.2c0.3,0,0.6-0.1,0.8-0.3c0.2-0.1,0.4-0.2,0.4-0.3
				c0.1-0.1,0.2-0.3,0.4-0.6c0.2-0.3,0.4-0.8,0.7-1.4c0.3-0.6,0.5-1.2,0.8-1.9c0.3-0.7,0.6-1.5,1-2.2c0.3-0.8,0.7-1.5,1-2.3
				c0.3-0.8,0.6-1.5,0.9-2.2l-0.2-0.4c0.2-0.1,0.4-0.2,0.6-0.3c0.2-0.1,0.3-0.3,0.5-0.4c0.1-0.1,0.2-0.3,0.3-0.4
				c0.1-0.1,0.2-0.2,0.2-0.3h0.1c0.4,1,0.7,1.9,1.1,2.8c0.3,0.9,0.7,1.8,1,2.6c0.3,0.8,0.6,1.6,0.9,2.4c0.3,0.8,0.6,1.5,0.9,2.3
				c0.1,0.4,0.3,0.7,0.4,0.9c0.1,0.2,0.2,0.5,0.4,0.8c0,0,0.1,0.1,0.2,0.3c0.1,0.1,0.2,0.2,0.3,0.4c0.1,0.1,0.3,0.2,0.5,0.3
				s0.4,0.2,0.7,0.2v0.2H154.7z M152.4,125.2c-0.1,0.2-0.2,0.4-0.3,0.7s-0.3,0.7-0.5,1.2c-0.2,0.5-0.4,1-0.7,1.6
				c-0.2,0.6-0.5,1.3-0.8,2h4.5c-0.2-0.5-0.4-1.1-0.6-1.6s-0.4-1.1-0.6-1.6c-0.2-0.5-0.4-1-0.5-1.4S152.5,125.5,152.4,125.2z"/>
			<path id="XMLID_38_" fill="#FFFFFF" d="M178.1,133.7c-0.1,0.3-0.3,0.7-0.5,0.9c-0.2,0.3-0.5,0.5-0.7,0.7
				c-0.3,0.2-0.5,0.3-0.8,0.4c-0.5,0.2-1,0.3-1.5,0.3s-1.1,0.1-1.6,0.1h-6.2v-0.2c0.3,0,0.6-0.1,0.9-0.2s0.5-0.3,0.7-0.5
				c0.1-0.1,0.1-0.2,0.1-0.3s0.1-0.3,0.1-0.5c0-0.2,0.1-0.4,0.1-0.6c0-0.2,0-0.4,0-0.6c0-0.2,0-0.4,0-0.7s0-0.6,0-0.9
				c0-0.3,0-0.7,0-1.1c0-0.4,0-0.7,0-1c0-0.4,0-0.7,0-1c0-0.3,0-0.5,0-0.8c0-0.3,0-0.5,0-0.8c0-0.3,0-0.6,0-1c0-0.2,0-0.4,0-0.7
				c0-0.2,0-0.4-0.1-0.6c0-0.2-0.1-0.4-0.1-0.5c0-0.2-0.1-0.3-0.2-0.4c-0.2-0.2-0.4-0.3-0.5-0.4c-0.2-0.1-0.4-0.1-0.8-0.2v-0.2h6.1
				c0.5,0,0.9,0,1.3,0.1s0.8,0.2,1.2,0.3c0.6,0.2,1.1,0.6,1.5,1s0.6,1.1,0.6,1.8c0,0.8-0.3,1.4-0.8,1.9c-0.5,0.5-1.2,0.8-2,1v0.1
				c0.4,0,0.9,0.2,1.3,0.3c0.4,0.2,0.8,0.4,1.1,0.7c0.3,0.3,0.6,0.6,0.8,1c0.2,0.4,0.3,0.8,0.3,1.3
				C178.3,133,178.2,133.4,178.1,133.7z M175,124.7c-0.3-0.5-0.7-0.8-1.1-1c-0.5-0.2-1.2-0.4-2.1-0.4c-0.3,0-0.5,0-0.7,0
				c-0.2,0-0.4,0.1-0.5,0.1c0,0.1,0,0.1,0,0.2c0,0.1,0,0.1,0,0.2c0,0.1,0,0.2,0,0.3c0,0.1,0,0.3,0,0.5c0,0.4,0,0.9,0,1.4
				c0,0.5,0,1,0,1.4c0,0.4,0,0.8,0,1.2s0,0.5,0,0.6c0.4,0,0.7,0,1,0c0.3,0,0.5,0,0.7,0c1.1-0.1,1.9-0.4,2.5-0.9s0.8-1.2,0.8-2.1
				C175.5,125.7,175.3,125.2,175,124.7z M176,131.8c-0.1-0.3-0.3-0.6-0.5-0.8c-0.2-0.3-0.4-0.5-0.7-0.7c-0.3-0.2-0.6-0.3-0.9-0.4
				c-0.3-0.1-0.5-0.1-0.8-0.2c-0.3,0-0.6,0-0.9,0h-1.7c0,0.4,0,0.8,0,1.2s0,0.8,0,1.1c0,0.3,0,0.6,0,0.9c0,0.3,0,0.5,0,0.7
				c0,0.5,0,0.8,0.1,1.1c0,0.3,0.1,0.5,0.3,0.7c0.1,0.1,0.3,0.2,0.5,0.3c0.2,0.1,0.5,0.1,0.9,0.1c0.3,0,0.7,0,1.1-0.1
				c0.4,0,0.8-0.2,1.2-0.4c0.5-0.3,0.9-0.6,1.2-1.1c0.3-0.4,0.4-1,0.4-1.6C176.2,132.4,176.1,132.1,176,131.8z"/>
			<path id="XMLID_42_" fill="#FFFFFF" d="M199.5,132.2c-0.4,0.8-0.8,1.5-1.5,2.1c-0.6,0.6-1.3,1.1-2.2,1.4
				c-0.8,0.3-1.7,0.5-2.6,0.5c-0.9,0-1.8-0.2-2.6-0.5c-0.8-0.3-1.5-0.8-2.1-1.4s-1.1-1.3-1.4-2.1c-0.4-0.8-0.5-1.7-0.5-2.7
				c0-1,0.2-2,0.6-2.8c0.4-0.8,0.9-1.5,1.5-2.1c0.6-0.6,1.4-1,2.2-1.3c0.8-0.3,1.7-0.5,2.7-0.5c1,0,1.9,0.2,2.7,0.5
				c0.8,0.4,1.5,0.8,2.1,1.4c0.6,0.6,1,1.3,1.3,2.1s0.5,1.6,0.5,2.5C200,130.5,199.8,131.4,199.5,132.2z M197.5,127.3
				c-0.2-0.7-0.5-1.4-0.8-2c-0.4-0.6-0.8-1.1-1.4-1.5s-1.2-0.6-2-0.6c-0.8,0-1.5,0.2-2,0.6c-0.6,0.4-1,0.9-1.4,1.5
				c-0.4,0.6-0.6,1.3-0.8,2c-0.2,0.8-0.3,1.5-0.3,2.3c0,0.8,0.1,1.6,0.3,2.4s0.5,1.4,0.9,2s0.9,1,1.4,1.4c0.6,0.3,1.2,0.5,2,0.5
				c0.8,0,1.4-0.2,2-0.6c0.6-0.4,1-0.9,1.4-1.5c0.4-0.6,0.7-1.3,0.8-2c0.2-0.8,0.3-1.5,0.3-2.3C197.8,128.8,197.7,128.1,197.5,127.3
				z"/>
			<path id="XMLID_45_" fill="#FFFFFF" d="M217.8,136.1c-0.1-0.1-0.2-0.2-0.2-0.2s-0.1-0.1-0.2-0.2c-0.1-0.1-0.1-0.2-0.2-0.3
				s-0.2-0.3-0.4-0.6c-0.2-0.3-0.4-0.6-0.6-0.9c-0.2-0.3-0.4-0.5-0.5-0.8c-0.2-0.3-0.4-0.5-0.6-0.8c-0.2-0.3-0.5-0.6-0.7-0.9
				c-0.2-0.3-0.5-0.5-0.8-0.8c-0.3-0.2-0.6-0.4-0.9-0.5c-0.2,0-0.4-0.1-0.5-0.1c-0.1,0-0.2,0-0.4,0c0,0.8,0,1.5,0,2
				c0,0.6,0,1.1,0,1.5c0,0.4,0,0.7,0,1c0,0.3,0.1,0.5,0.2,0.7c0.1,0.2,0.3,0.3,0.6,0.5s0.7,0.3,1.2,0.3v0.2h-5.8v-0.2
				c0.3,0,0.6-0.1,0.9-0.2c0.3-0.1,0.5-0.2,0.6-0.4c0.1-0.1,0.1-0.2,0.1-0.3c0-0.1,0.1-0.3,0.1-0.5c0-0.2,0-0.4,0-0.6
				c0-0.2,0-0.4,0-0.6c0-0.2,0-0.4,0-0.7s0-0.6,0-0.9c0-0.3,0-0.7,0-1.1c0-0.4,0-0.7,0-1v-3.5c0-0.2,0-0.4,0-0.7c0-0.2,0-0.4,0-0.6
				c0-0.2,0-0.4-0.1-0.5c0-0.2-0.1-0.3-0.2-0.4c-0.2-0.2-0.4-0.3-0.6-0.4c-0.2-0.1-0.5-0.1-0.8-0.2v-0.2c0.1,0,0.3,0,0.7,0
				c0.4,0,0.9,0,1.4,0s1,0,1.5,0c0.5,0,0.9,0,1.3,0c0.8,0,1.5,0,2.1,0.1c0.6,0,1.2,0.2,1.7,0.5c0.5,0.3,1,0.7,1.3,1.1
				s0.5,1.1,0.5,1.8c0,0.4-0.1,0.8-0.2,1.2c-0.2,0.4-0.4,0.7-0.6,0.9c-0.3,0.3-0.6,0.5-0.9,0.7c-0.4,0.2-0.7,0.4-1.1,0.5v0.1
				c0.2,0.1,0.4,0.3,0.6,0.5c0.2,0.2,0.4,0.4,0.6,0.7c0.3,0.5,0.7,0.9,1,1.5s0.7,1,1,1.4c0.4,0.6,0.9,1.1,1.3,1.4s0.9,0.5,1.5,0.6
				v0.2H217.8z M216,124.9c-0.3-0.5-0.7-0.8-1.3-1.1c-0.3-0.1-0.6-0.2-0.9-0.3c-0.3-0.1-0.7-0.1-1-0.1c-0.3,0-0.5,0-0.6,0
				c-0.2,0-0.3,0-0.4,0c0,0.1,0,0.1,0,0.2c0,0.1,0,0.1,0,0.2c0,0.1,0,0.2,0,0.4c0,0.2,0,0.4,0,0.6c0,0.4,0,0.9,0,1.4s0,1,0,1.5
				c0,0.5,0,0.9,0,1.3c0,0.4,0,0.6,0,0.7c0.5,0,1,0,1.4-0.1c0.4,0,0.8-0.1,1.2-0.3c0.4-0.1,0.7-0.3,1-0.5c0.3-0.2,0.5-0.4,0.7-0.7
				s0.3-0.5,0.4-0.8s0.1-0.6,0.1-0.9C216.4,125.9,216.3,125.4,216,124.9z"/>
			<path id="XMLID_48_" fill="#FFFFFF" d="M240.9,132.2c-0.4,0.8-0.8,1.5-1.5,2.1c-0.6,0.6-1.3,1.1-2.2,1.4
				c-0.8,0.3-1.7,0.5-2.6,0.5c-0.9,0-1.8-0.2-2.6-0.5c-0.8-0.3-1.5-0.8-2.1-1.4s-1.1-1.3-1.4-2.1c-0.4-0.8-0.5-1.7-0.5-2.7
				c0-1,0.2-2,0.6-2.8c0.4-0.8,0.9-1.5,1.5-2.1c0.6-0.6,1.4-1,2.2-1.3c0.8-0.3,1.7-0.5,2.7-0.5c1,0,1.9,0.2,2.7,0.5
				c0.8,0.4,1.5,0.8,2.1,1.4c0.6,0.6,1,1.3,1.3,2.1c0.3,0.8,0.5,1.6,0.5,2.5C241.4,130.5,241.2,131.4,240.9,132.2z M238.9,127.3
				c-0.2-0.7-0.5-1.4-0.8-2c-0.4-0.6-0.8-1.1-1.4-1.5c-0.6-0.4-1.2-0.6-2-0.6c-0.8,0-1.5,0.2-2,0.6c-0.6,0.4-1,0.9-1.4,1.5
				c-0.4,0.6-0.6,1.3-0.8,2s-0.3,1.5-0.3,2.3c0,0.8,0.1,1.6,0.3,2.4c0.2,0.8,0.5,1.4,0.9,2c0.4,0.6,0.9,1,1.4,1.4
				c0.6,0.3,1.2,0.5,2,0.5c0.8,0,1.4-0.2,2-0.6c0.6-0.4,1-0.9,1.4-1.5c0.4-0.6,0.7-1.3,0.8-2c0.2-0.8,0.3-1.5,0.3-2.3
				C239.2,128.8,239.1,128.1,238.9,127.3z"/>
			<path id="XMLID_51_" fill="#FFFFFF" d="M258.2,134.1c-0.2,0.5-0.6,0.8-1,1.2s-0.9,0.6-1.5,0.7c-0.6,0.2-1.2,0.2-1.9,0.2
				c-0.6,0-1.1,0-1.5-0.1c-0.4-0.1-0.8-0.2-1-0.3c-0.3-0.1-0.5-0.2-0.6-0.3c-0.1-0.1-0.2-0.1-0.3-0.1s-0.1,0.1-0.2,0.2
				c-0.1,0.1-0.2,0.3-0.3,0.4h-0.2l-0.1-3.6h0.2c0.1,0.3,0.2,0.6,0.4,0.9c0.2,0.3,0.4,0.6,0.5,0.9c0.2,0.3,0.4,0.5,0.6,0.7
				c0.2,0.2,0.4,0.4,0.6,0.5c0.2,0.1,0.5,0.2,0.8,0.3c0.3,0.1,0.7,0.2,1,0.2c0.9,0,1.6-0.2,2.2-0.7c0.6-0.5,0.8-1.1,0.8-2
				c0-0.3-0.1-0.6-0.2-0.9c-0.1-0.3-0.3-0.5-0.4-0.7c-0.2-0.2-0.4-0.3-0.7-0.5s-0.5-0.3-0.8-0.4c-0.3-0.1-0.5-0.2-0.8-0.3
				c-0.2-0.1-0.4-0.1-0.6-0.2c-0.2-0.1-0.4-0.1-0.6-0.2c-0.2-0.1-0.4-0.2-0.7-0.3c-0.3-0.1-0.6-0.3-0.9-0.5s-0.5-0.5-0.8-0.7
				c-0.2-0.3-0.4-0.6-0.5-0.9c-0.1-0.3-0.2-0.7-0.2-1.1c0-0.6,0.1-1.2,0.4-1.7c0.2-0.5,0.6-0.9,1-1.2c0.4-0.3,0.9-0.5,1.4-0.7
				c0.5-0.2,1.1-0.2,1.6-0.2c0.5,0,1,0,1.4,0.1c0.4,0.1,0.7,0.2,0.9,0.3c0.2,0.1,0.4,0.2,0.6,0.3s0.2,0.1,0.2,0.1
				c0,0,0.1-0.1,0.2-0.2c0.1-0.1,0.2-0.3,0.3-0.4h0.2v3.3h-0.2c-0.1-0.4-0.3-0.8-0.6-1.2c-0.2-0.4-0.5-0.7-0.8-1s-0.6-0.6-1-0.7
				c-0.4-0.2-0.8-0.3-1.3-0.3c-0.4,0-0.7,0.1-1.1,0.2s-0.6,0.3-0.9,0.5c-0.2,0.2-0.4,0.5-0.6,0.8s-0.2,0.7-0.2,1.1
				c0,0.6,0.2,1.1,0.6,1.5c0.4,0.4,0.9,0.7,1.5,0.9c0.2,0.1,0.5,0.2,0.7,0.3c0.2,0.1,0.4,0.1,0.6,0.2c0.2,0.1,0.4,0.1,0.6,0.2
				c0.2,0.1,0.4,0.2,0.7,0.2c0.8,0.3,1.4,0.7,1.9,1.3c0.4,0.6,0.7,1.3,0.7,2.1C258.6,133.1,258.5,133.7,258.2,134.1z"/>
			<path id="XMLID_58_" fill="#FFFFFF" d="M275.8,136.1v-0.2c0.4,0,0.8-0.1,1.1-0.2s0.5-0.3,0.6-0.4c0,0,0-0.1,0.1-0.2
				c0-0.1,0-0.2,0-0.4c0-0.1,0-0.3,0-0.4c0-0.2,0-0.3,0-0.5c0-0.4,0-0.8,0-1.2c0-0.4,0-0.8,0-1.2c0-0.4,0-0.7,0-1c0-0.3,0-0.5,0-0.6
				h-7.1v3.9c0,0.3,0,0.7,0,1c0,0.3,0.1,0.6,0.2,0.7c0.1,0.2,0.3,0.4,0.6,0.5c0.3,0.1,0.5,0.2,0.8,0.2v0.2h-5.3v-0.2
				c0.3,0,0.6-0.1,0.9-0.2c0.3-0.1,0.5-0.3,0.6-0.4c0-0.1,0.1-0.2,0.1-0.3c0-0.1,0.1-0.3,0.1-0.5c0-0.2,0-0.4,0-0.6
				c0-0.2,0-0.4,0-0.6c0-0.2,0-0.4,0-0.7s0-0.6,0-0.9c0-0.3,0-0.7,0-1.1c0-0.4,0-0.7,0-1v-3.5c0-0.2,0-0.4,0-0.6c0-0.2,0-0.4,0-0.6
				c0-0.2,0-0.4-0.1-0.5s-0.1-0.3-0.2-0.4c-0.2-0.2-0.4-0.4-0.6-0.4s-0.5-0.2-0.8-0.2v-0.2h5.4v0.2c-0.2,0-0.3,0.1-0.5,0.1
				c-0.2,0-0.4,0.1-0.5,0.2c-0.2,0.1-0.3,0.2-0.4,0.4c-0.1,0.2-0.2,0.4-0.2,0.7c0,0.4,0,0.9,0,1.4c0,0.5,0,1,0,1.4
				c0,0.4,0,0.8,0,1.2c0,0.3,0,0.5,0,0.7h7.1c0-0.4,0-0.7,0-1c0-0.3,0-0.6,0-0.9s0-0.6,0-0.9c0-0.3,0-0.7,0-1.1c0-0.2,0-0.5,0-0.7
				c0-0.2-0.1-0.4-0.2-0.6c-0.2-0.3-0.5-0.5-0.7-0.6s-0.6-0.1-0.8-0.1v-0.2h5.4v0.2c-0.3,0-0.6,0.1-0.8,0.2s-0.5,0.3-0.6,0.5
				c0,0.1-0.1,0.2-0.1,0.4c0,0.2,0,0.3-0.1,0.5c0,0.2,0,0.4,0,0.6c0,0.2,0,0.4,0,0.6v3.1c0,0.4,0,0.8,0,1.2c0,0.3,0,0.7,0,1
				c0,0.3,0,0.7,0,1c0,0.4,0,0.8,0,1.2c0,0.3,0,0.7,0,1c0,0.3,0.1,0.5,0.1,0.6c0.2,0.2,0.4,0.4,0.6,0.5c0.3,0.1,0.6,0.2,0.9,0.2v0.2
				H275.8z"/>
			<path id="XMLID_60_" fill="#FFFFFF" d="M289.6,136.1v-0.2c0.3,0,0.6-0.1,0.8-0.2s0.5-0.3,0.7-0.5c0.1-0.1,0.1-0.2,0.1-0.3
				c0-0.1,0.1-0.3,0.1-0.5c0-0.2,0-0.4,0-0.6c0-0.2,0-0.4,0-0.6c0-0.2,0-0.4,0-0.7s0-0.6,0-0.9c0-0.3,0-0.7,0-1.1c0-0.4,0-0.7,0-1
				v-3.5c0-0.2,0-0.4,0-0.6c0-0.2,0-0.4,0-0.6c0-0.2,0-0.4-0.1-0.5s-0.1-0.3-0.2-0.4c-0.2-0.2-0.4-0.4-0.6-0.4s-0.5-0.2-0.8-0.2
				v-0.2h5.4v0.2c-0.3,0-0.5,0.1-0.8,0.2c-0.3,0.1-0.5,0.3-0.7,0.6c-0.1,0.2-0.2,0.5-0.2,0.8c0,0.3,0,0.6,0,0.9c0,0.3,0,0.6,0,0.9
				s0,0.6,0,0.9c0,0.3,0,0.6,0,0.9c0,0.3,0,0.7,0,1v4.1c0,0.3,0,0.7,0,1c0,0.3,0.1,0.6,0.2,0.7c0.1,0.2,0.4,0.4,0.7,0.5
				c0.3,0.1,0.6,0.2,0.8,0.2v0.2H289.6z"/>
			<path id="XMLID_76_" fill="#FFFFFF" d="M325.8,127.3c-0.2-0.6-0.4-1.1-0.7-1.6c-0.3-0.5-0.7-0.9-1.1-1.3s-0.9-0.7-1.4-0.9
				c-0.5-0.2-1.1-0.3-1.7-0.3c-0.8,0-1.6,0.2-2.2,0.6c-0.6,0.4-1.2,0.9-1.6,1.5c-0.4,0.6-0.8,1.3-1,2.1c-0.2,0.8-0.4,1.6-0.4,2.4
				c0,0.9,0.1,1.7,0.4,2.4s0.6,1.4,1.1,2c0.5,0.6,1,1,1.7,1.3c0.6,0.3,1.4,0.5,2.2,0.5c0.6,0,1.2-0.1,1.8-0.3c0.5-0.2,1-0.5,1.5-0.9
				s0.8-0.8,1.1-1.3s0.5-1,0.6-1.5h0.2l-0.1,4h-0.2c-0.1-0.2-0.3-0.4-0.5-0.6c-0.2-0.2-0.3-0.3-0.3-0.3c0,0-0.1,0.1-0.3,0.2
				c-0.2,0.1-0.5,0.3-0.8,0.4c-0.4,0.2-0.8,0.3-1.3,0.4c-0.5,0.1-1.1,0.2-1.8,0.2c-1.1,0-2.1-0.2-3-0.5c-0.9-0.3-1.7-0.8-2.3-1.3
				s-1.1-1.3-1.4-2.1c-0.3-0.8-0.5-1.7-0.5-2.7c0-0.2,0-0.5,0-0.7s0.1-0.6,0.2-0.9c0.1-0.3,0.2-0.6,0.3-1c0.1-0.3,0.3-0.7,0.5-1
				c0.3-0.4,0.6-0.8,0.9-1.2c0.4-0.4,0.8-0.7,1.3-1c0.5-0.3,1.1-0.5,1.7-0.7c0.6-0.2,1.3-0.3,2.1-0.3c0.7,0,1.3,0.1,1.9,0.2
				c0.5,0.1,1,0.3,1.4,0.4c0.4,0.2,0.6,0.3,0.8,0.4c0.2,0.1,0.3,0.2,0.3,0.2c0,0,0.1,0,0.1-0.1c0.1-0.1,0.1-0.1,0.2-0.2
				s0.2-0.2,0.2-0.3c0.1-0.1,0.2-0.2,0.2-0.3h0.2v4L325.8,127.3z"/>
			<path id="XMLID_78_" fill="#FFFFFF" d="M342,133.4c-0.2,0.5-0.5,1-0.9,1.4c-0.4,0.4-0.8,0.7-1.3,1c-0.5,0.2-1,0.3-1.6,0.3
				c-0.5,0-1-0.1-1.5-0.3c-0.5-0.2-1-0.4-1.4-0.8s-0.8-0.8-1-1.4c-0.3-0.6-0.4-1.2-0.4-2c0-0.6,0.1-1.1,0.3-1.6s0.5-1,0.9-1.4
				c0.4-0.4,0.8-0.7,1.4-1c0.5-0.2,1.1-0.4,1.8-0.4c0.5,0,1,0.1,1.5,0.3s0.9,0.4,1.3,0.8c0.4,0.4,0.7,0.8,1,1.3s0.4,1.2,0.4,1.9
				C342.3,132.3,342.2,132.9,342,133.4z M340.5,130.4c-0.1-0.5-0.2-0.9-0.4-1.3c-0.2-0.4-0.5-0.7-0.8-1c-0.3-0.3-0.8-0.4-1.2-0.4
				c-0.4,0-0.8,0.1-1.1,0.4c-0.3,0.2-0.6,0.6-0.8,0.9c-0.2,0.4-0.4,0.8-0.5,1.3c-0.1,0.5-0.2,1-0.2,1.5c0,0.6,0,1.1,0.1,1.6
				c0.1,0.5,0.3,0.9,0.5,1.3s0.5,0.7,0.8,0.9c0.3,0.2,0.7,0.3,1.2,0.3s0.9-0.1,1.2-0.4c0.3-0.3,0.6-0.6,0.8-1.1s0.3-0.9,0.4-1.4
				s0.1-0.9,0.1-1.4C340.7,131.3,340.6,130.8,340.5,130.4z"/>
			<path id="XMLID_81_" fill="#FFFFFF" d="M347.2,135.9c-0.2,0.2-0.4,0.3-0.8,0.3c-0.3,0-0.6-0.1-0.8-0.3c-0.2-0.2-0.3-0.4-0.3-0.7
				c0-0.3,0.1-0.6,0.3-0.8s0.5-0.3,0.8-0.3c0.3,0,0.6,0.1,0.8,0.3c0.2,0.2,0.3,0.5,0.3,0.8C347.5,135.4,347.4,135.7,347.2,135.9z"/>
			<path id="XMLID_83_" fill="#FFFFFF" d="M354.1,136.9c-0.1,0.2-0.2,0.5-0.4,0.7c-0.2,0.2-0.3,0.4-0.5,0.6
				c-0.2,0.2-0.4,0.3-0.6,0.5l-0.1-0.1c0.3-0.3,0.6-0.6,0.8-1c0.2-0.3,0.3-0.8,0.3-1.3c0-0.2,0-0.4-0.1-0.6
				c-0.1-0.2-0.2-0.3-0.3-0.3c0,0.2-0.1,0.4-0.3,0.6s-0.4,0.2-0.6,0.2c-0.3,0-0.5-0.1-0.6-0.2s-0.2-0.4-0.2-0.7
				c0-0.3,0.1-0.6,0.3-0.8c0.2-0.2,0.5-0.3,0.8-0.3c0.3,0,0.5,0.1,0.7,0.2s0.4,0.3,0.5,0.4c0.1,0.2,0.3,0.4,0.3,0.6s0.1,0.5,0.1,0.7
				C354.2,136.4,354.2,136.6,354.1,136.9z"/>
			<path id="XMLID_85_" fill="#FFFFFF" d="M384,136.1h-11.6v-0.2c0.3,0,0.6-0.1,0.9-0.2s0.5-0.3,0.7-0.5c0.1-0.1,0.1-0.2,0.2-0.3
				s0.1-0.3,0.1-0.5c0-0.2,0-0.4,0.1-0.6c0-0.2,0-0.4,0-0.6c0-0.2,0-0.4,0-0.7s0-0.6,0-0.9c0-0.3,0-0.7,0-1.1c0-0.4,0-0.7,0-1v-3.5
				c0-0.2,0-0.4,0-0.6c0-0.2,0-0.4,0-0.6c0-0.2,0-0.4-0.1-0.5c0-0.1-0.1-0.3-0.2-0.3c-0.2-0.2-0.4-0.4-0.7-0.5
				c-0.3-0.1-0.6-0.2-0.9-0.2v-0.2h5.7v0.2c-0.2,0-0.3,0.1-0.6,0.1s-0.4,0.1-0.6,0.2c-0.2,0.1-0.4,0.3-0.5,0.5
				c-0.1,0.2-0.2,0.5-0.2,0.8c0,0.4,0,0.8,0,1.2c0,0.3,0,0.7,0,1s0,0.7,0,1c0,0.4,0,0.8,0,1.2c0,0.4,0,0.8,0,1.1c0,0.3,0,0.6,0,1
				c0,0.3,0,0.6,0,1c0,0.3,0,0.7,0,1.1c0,0.4,0,0.8,0,1.1c0,0.3,0.1,0.6,0.2,0.8c0,0.1,0.1,0.1,0.3,0.2c0.1,0.1,0.3,0.1,0.5,0.2
				s0.4,0.1,0.7,0.1c0.2,0,0.5,0,0.7,0c0.1,0,0.2,0,0.5,0c0.2,0,0.4,0,0.7,0c0.3,0,0.5,0,0.8-0.1c0.3,0,0.5-0.1,0.7-0.1
				c0.5-0.1,0.9-0.3,1.2-0.5c0.3-0.2,0.6-0.5,0.8-0.7c0.2-0.3,0.4-0.6,0.6-0.9c0.2-0.3,0.3-0.7,0.5-1l0.2,0.1L384,136.1z"/>
			<path id="XMLID_87_" fill="#FFFFFF" d="M396.9,128.7h-2.7v4.7c0,0.6,0.1,1.1,0.4,1.3c0.3,0.3,0.6,0.4,1,0.4
				c0.3,0,0.6-0.1,0.9-0.2c0.2-0.1,0.4-0.3,0.6-0.5l0.1,0.1c-0.1,0.2-0.2,0.4-0.3,0.6c-0.1,0.2-0.3,0.4-0.5,0.5
				c-0.2,0.2-0.5,0.3-0.7,0.4c-0.3,0.1-0.6,0.1-1,0.1c-0.3,0-0.5,0-0.7-0.1s-0.4-0.2-0.6-0.3c-0.2-0.2-0.3-0.3-0.4-0.5
				c-0.1-0.2-0.2-0.4-0.2-0.6c0-1.1,0-2.2,0-3.2c0-1,0-1.9,0-2.7h-1.3v-0.2l2.6-2.5h0.1v1.6h3.3L396.9,128.7z"/>
			<path id="XMLID_89_" fill="#FFFFFF" d="M410.5,136.2h-0.1v-1.8h0c-0.3,0.6-0.8,1-1.2,1.3c-0.5,0.3-1.1,0.4-1.8,0.4
				c-0.4,0-0.9-0.1-1.3-0.3s-0.8-0.4-1.1-0.8c-0.3-0.4-0.6-0.8-0.8-1.4c-0.2-0.5-0.3-1.1-0.3-1.8c0-0.6,0.1-1.2,0.3-1.7
				s0.5-1,0.9-1.4c0.4-0.4,0.9-0.7,1.4-0.9c0.6-0.2,1.2-0.3,1.9-0.3c0.4,0,0.7,0,1,0.1c0.3,0.1,0.6,0.1,0.9,0.2c0-0.2,0-0.4,0-0.7
				c0-0.3,0-0.6,0-1s0-0.6,0-0.9c0-0.3,0-0.5,0-0.6l-1.5-0.6v-0.1l2.9-0.8h0.1v11.7c0.1,0.1,0.3,0.1,0.5,0.3
				c0.3,0.1,0.5,0.2,0.7,0.3v0.1L410.5,136.2z M410.4,129.4c-0.3-0.5-0.6-0.9-1-1.2c-0.4-0.3-0.8-0.4-1.1-0.4
				c-0.5,0-0.9,0.1-1.2,0.3c-0.3,0.2-0.6,0.5-0.8,0.9c-0.2,0.4-0.4,0.8-0.5,1.2s-0.2,0.9-0.2,1.4c0,0.5,0.1,1,0.2,1.4
				c0.1,0.5,0.3,0.9,0.5,1.2c0.2,0.4,0.5,0.6,0.9,0.9c0.4,0.2,0.8,0.3,1.2,0.3c0.5,0,0.9-0.2,1.3-0.5c0.4-0.3,0.6-0.8,0.7-1.3V129.4
				z"/>
			<path id="XMLID_92_" fill="#FFFFFF" d="M419.7,135.9c-0.2,0.2-0.4,0.3-0.8,0.3c-0.3,0-0.6-0.1-0.8-0.3c-0.2-0.2-0.3-0.4-0.3-0.7
				c0-0.3,0.1-0.6,0.3-0.8s0.5-0.3,0.8-0.3c0.3,0,0.6,0.1,0.8,0.3c0.2,0.2,0.3,0.5,0.3,0.8C420,135.4,419.9,135.7,419.7,135.9z"/>
		</g>
	</g>
	<path id="XMLID_5_" fill="#FFFFFF" d="M108.4,0.3C96.4,2.1,84.5,4.5,72.8,8c-13,3.9-25.6,9.1-37.3,15.9
		c-8.1,4.7-15.9,10.2-22.7,16.7c-4,3.7-7.7,7.7-10.8,12.2c-0.6,0.8-1.4,1.8-1.8,2.7c0,0.1-0.1,0.2-0.1,0.2c0,0,0,0,0,0
		c0,0.1,0.3,0.6,0.3,0.7c0.3,0.7,0.6,1.3,0.9,2c2.1,4.5,4.2,8.9,6.3,13.4c1,2.1,2,4.3,3,6.4c10.5-5.3,21.7-9.1,33.3-11.2
		c-5.7,3.8-11,8.2-15.9,13c-2.5,2.5-4.8,5-7.1,7.7c-0.6,0.7-1.1,1.3-1.6,2c-0.6,0.7-1.4,1.5-1.8,2.3c-0.2,0.5-0.1,0.5,0.1,1
		c0.2,0.4,0.4,0.8,0.6,1.2c0.4,0.9,0.8,1.7,1.2,2.6c1.8,3.8,3.5,7.5,5.3,11.3c6.9-5.1,14.5-9,22.7-11.3c-4,3.9-7.2,8.7-9.1,14
		c-2.3,6.6-2.3,13.6-0.9,20.4c1,5.1,2.8,10,5,14.7c0.3-0.5,0-1.2-0.1-1.8c-0.1-0.7-0.2-1.4-0.2-2.1c-0.1-1.5-0.2-3-0.2-4.4
		c0-2.9,0.2-5.9,0.8-8.7c1-5.1,2.8-9.7,5.2-14.3c0,0,0,0.1,0,0c1.5-2.5,3.1-4.8,4.9-7c2-2.4,4.3-4.7,6.8-6.6c1.3-1,2.7-2,4.1-2.9
		c0.7-0.4,1.5-0.7,1.9-1.4c0.5-0.8,0.8-1.7,1.2-2.6c1.7-3.6,3.4-7.3,5.1-10.9c-7.4-1-14.9-1-22.3,0c5.7-3.9,11.7-7.2,18.1-9.9
		c3.1-1.3,6.3-2.5,9.6-3.4c0.3-0.1,0.8-0.1,1-0.3c0.2-0.2,0.4-1,0.6-1.3c0.4-0.9,0.8-1.8,1.3-2.7c0.8-1.6,1.5-3.2,2.3-4.9
		c1.8-3.8,3.5-7.6,5.3-11.3c-14.5-3-29.3-3.7-44-2.2c2.5-1.4,5-2.8,7.7-4c3.2-1.4,6.4-2.6,9.8-3.7c5.1-1.8,10.6-3.1,15.9-4.1
		c4.2-0.8,8.3-1.5,12.5-2c1-0.1,2-0.2,3.1-0.3c0.5-0.1,1-0.1,1.5-0.2c0.3,0,0.5,0,0.8-0.1c0.5,0,0.5,0,0.7-0.4
		c0.6-0.8,0.9-2,1.3-2.9c0.5-1.1,1-2.2,1.5-3.2c4.1-8.8,8.1-17.8,12.4-26.5C109.9,0.1,109.1,0.2,108.4,0.3z"/>
</g>
<g id="XMLID_157_">
	<g id="XMLID_201_">
		<g id="XMLID_209_">
			<path id="XMLID_213_" d="M601.3,136.5c-0.3-0.1-0.3-0.1-0.4-0.4c-0.1-0.5-0.2-1-0.3-1.5c-0.1-1-0.2-2-0.2-3c0-0.9,0-1.8,0-2.8
				c0-0.3,0-0.5,0-0.8c0-0.3,0-0.3,0.3-0.4c1.3-0.2,2.7-0.2,3.9-0.6c0.6-0.2,1-0.7,0.9-1.3c-0.1-0.8-0.6-1.2-1.4-1.3
				c-0.4,0-0.7,0.2-1.1,0.4c-0.8,0.4-1.6,0.7-2.4,0.9c0.1-0.6,0.2-1.1,0.2-1.7c0.1-0.6,0.3-1.4-0.2-1.9c-0.4-0.5-1.2-0.9-1.8-1.2
				c-0.5-0.3-0.9-0.5-1.4-0.8c1.9-0.2,3.8-0.4,5.6-0.8c0.2,0,0.5-0.1,0.6-0.3c0.2-0.2,0.1-0.6-0.1-0.9c-0.3-0.6-0.9-1-1.7-1
				c-0.7,0-1.4,0.3-2.1,0.5c-0.9,0.3-1.8,0.5-2.7,0.8c-1,0.3-2.1,0.5-3.1,0.6c-1,0.1-2,0.3-3-0.2c1,1.6,3.2,1.4,4.8,1.3
				c0.2,0,0.5-0.1,0.7-0.1c0.1,0,0.3,0.2,0.4,0.3c0.2,0.2,0.4,0.4,0.6,0.7c0.7,1,0.8,2.4,0.8,3.7c0,0.4,0,0.8,0,1.2
				c0,0.1,0,0.3,0,0.3c0,0.1-0.3,0.1-0.4,0.1c-0.5,0.1-1.1,0.3-1.6,0.4c-1.1,0.2-2.2,0.3-3.3,0.2c-1-0.1-2-0.6-1.9-1.8
				c-0.5,0.7-0.7,1.8-0.1,2.5c0.7,0.8,2,0.8,2.9,0.8c1.4,0,2.9-0.3,4.3-0.6c0,2.7,0.1,5.4,0.3,8.1c-2.8-0.1-8.7-0.3-8.4,3.9
				c0.1,2.1,2.3,3,4,3.4c1.6,0.3,3.7,0.4,5.1-0.5c1.2-0.8,1.4-2.2,1.6-3.5c1.4,0.7,2.3,2.1,3.6,2.9c0.4,0.2,0.7,0.3,1.1,0.2
				c0.6-0.2,0.9-1,0.9-1.6c0.1-1-0.7-1.8-1.5-2.4C604,137.5,602.6,136.9,601.3,136.5z M597.3,141.5c-1.4,0.9-3.3,0.9-4.7,0.2
				c-1.3-0.6-2.4-2-1.4-3.4c0.7-1.1,2.1-1.3,3.3-1.3c1.3,0,2.8,0.3,4,0.9c0.2,0.1,0.2,0.2,0.2,0.4c0.1,0.5,0.1,0.9-0.1,1.4
				C598.4,140.4,597.9,141.1,597.3,141.5C596.5,142,598,141,597.3,141.5z M587.7,121.1c0-0.8-0.3-1.7-0.9-2.3
				c-0.6-0.7-1.4-1.4-2.3-1.7c0.5,1.1,0.6,2.5,0.5,3.7c-0.2,1.6-0.5,3.1-0.8,4.7c-0.4,2.1-0.8,4.2-1,6.4c-0.2,2-0.2,4,0,6
				c0.1,1.3,0.4,2.5,0.9,3.7c0.3,0.6,0.6,1.2,0.9,1.7c0.2,0.3,0.5,0.7,0.9,0.7c0.7,0.1,1.1-0.3,1.1-0.9c0.1-0.9-0.1-1.7-0.1-2.6
				c0-1.6,0.4-3.2,0.6-4.7c-0.5,1.1-1.2,3.5-2.9,2.7c-0.7-0.3-1-0.9-1.1-1.6c-0.2-0.8-0.3-1.6-0.4-2.4c-0.1-1.4,0-2.9,0.4-4.2
				c0.4-1.6,1.1-3.1,1.9-4.6c0.5-0.9,1-1.8,1.6-2.7C587.5,122.3,587.7,121.7,587.7,121.1C587.7,120.4,587.7,122,587.7,121.1z"/>
			<path id="XMLID_210_" d="M607.3,123c-1,0.1-1.4-1.2-1.9-1.9c-0.5-0.7-1-1.1-1.8-1.2c1.2-0.3,2.6-0.2,3.6,0.4
				c0.5,0.3,0.9,0.7,1,1.2C608.4,122.1,608.1,122.9,607.3,123C606.7,123,608,122.9,607.3,123z M609.6,120.8c-0.3,0-0.5-0.2-0.7-0.4
				c-0.4-0.4-0.6-0.8-1-1.2c-0.6-0.7-1.2-1.2-2.1-1.4c1.1-0.2,2.4-0.3,3.4,0.1c0.5,0.2,1,0.6,1.2,1.2
				C610.6,119.8,610.4,120.7,609.6,120.8C609.2,120.8,610,120.8,609.6,120.8z"/>
		</g>
		<path id="XMLID_206_" d="M571.5,138.7c-1.1-0.5-2.2-0.9-3.4-1.2c-0.5-0.1-0.9-0.2-1.4-0.3c-0.1,0-0.3,0-0.3-0.1
			c-0.1-0.1-0.1-0.3-0.1-0.4c-0.4-1.7-0.7-3.5-0.8-5.2c0-0.1,0-0.3,0-0.4c0-0.1,0.1-0.1,0.2-0.1c0.5-0.1,1-0.2,1.4-0.3
			c1.1-0.2,2.2-0.4,3.3-0.7c0.5-0.1,1.6-0.3,1.8-0.8c0.1-0.3,0-0.7-0.1-1c-0.2-0.4-0.5-0.6-0.9-0.7c-0.5-0.2-1.1-0.3-1.5-0.1
			c-0.3,0.1-0.6,0.3-0.9,0.5c-1.1,0.6-2.2,1.1-3.4,1.4c0-1.3,0-2.5,0.1-3.8c0-0.1,0-0.5,0-0.7c0.1-0.1,0.4-0.1,0.6-0.2
			c1.1-0.2,2.2-0.4,3.3-0.7c0.9-0.2,1.8-0.4,2.7-0.6c0.3-0.1,0.5-0.2,0.8-0.3c0.3-0.1,0.8-0.3,1-0.6c0.3-0.6-0.6-1.3-1.1-1.5
			c-0.7-0.3-1.4-0.4-2.1-0.1c-1.6,0.7-3.1,1.4-4.8,1.9c0.1-0.5,0.1-1,0.2-1.5c0.1-0.9,0.6-1.7,0.8-2.5c0.2-0.5,0.2-1-0.1-1.5
			c-0.6-0.8-1.9-1-2.9-1.1c-1.1-0.1-2.3,0.1-3.3,0.5c1.3,0.1,2.4,0.8,2.8,2c0.2,0.6,0.2,1.3,0.2,1.9c0,0.6,0,1.2,0,1.8
			c0,0.2,0,0.4,0,0.6c0,0.2,0,0.2-0.2,0.2c-0.3,0.1-0.6,0.1-1,0.2c-1.1,0.3-2.2,0.4-3.4,0.4c-1.6,0-3.1,0-4.6-0.6
			c0.6,0.8,1.5,1.6,2.4,2c0.8,0.4,1.8,0.4,2.7,0.3c1.4-0.1,2.7-0.3,4-0.5c0,0.7,0,1.4,0,2c0,0.4,0,0.8,0,1.2c0,0.3,0,0.5,0,0.8
			c0,0.1,0.1,0.4,0,0.4c-0.1,0.1-0.5,0.1-0.6,0.2c-0.5,0.1-1,0.2-1.5,0.3c-1.2,0.2-2.4,0.4-3.6,0.4c-0.5,0-1.1,0.1-1.6-0.3
			c-0.4-0.3-0.6-0.9-0.4-1.4c-0.5,0.6-0.7,1.5-0.2,2.1c0.7,0.8,1.9,0.7,2.8,0.7c1.7,0,3.4-0.2,5.1-0.5c0.1,0.9,0.1,1.8,0.2,2.7
			c0,0.6,0.1,1.2,0.1,1.7c0,0.1,0.1,0.9,0,1c-0.1,0.1-0.9,0-1.1,0c-0.6,0-1.1,0-1.7,0.1c-1.3,0.1-2.7,0.3-3.9,0.9
			c-1,0.4-1.9,1.1-2.1,2.2c-0.3,1.1,0.1,2.3,0.9,3.1c1,0.9,2.4,1.3,3.7,1.5c1.3,0.1,2.7,0,3.9-0.3c1-0.3,1.9-0.8,2.4-1.7
			c0.5-0.9,0.5-2,0.6-3c0.5,0.3,1,0.5,1.4,0.8c0.9,0.6,1.9,1.2,2.7,1.9c0.7,0.6,1.3,1.4,2.4,1.4c1.1,0,1.4-1.5,1.1-2.3
			C573.8,140,572.5,139.2,571.5,138.7C569.8,137.9,573.2,139.6,571.5,138.7z M562.2,142.2c-1.5,0.8-3.5,0.8-5,0.3
			c-1.3-0.4-2.6-1.4-2.1-2.9c0.6-1.9,2.9-1.9,4.5-1.8c1.4,0,2.8,0.3,4.1,0.8c0.2,0.1,0.2,0.2,0.2,0.5c0,0.5,0,0.9-0.1,1.4
			C563.6,141.1,563,141.8,562.2,142.2C561.3,142.7,563.2,141.7,562.2,142.2z"/>
		<path id="XMLID_203_" d="M624.4,131.8c-0.7,0.4-1.4,0.7-2.1,1.1c0.9-1.3,1.7-2.6,2.8-3.9c1.6-1.9,3.3-3.8,5.1-5.5
			c0.6-0.6,1.2-1.2,1.9-1.7c0.5-0.3,1.2-0.6,1.5-1.1c0.3-0.5-0.1-1-0.4-1.4c-0.5-0.7-1.2-1.2-2-1.6c-0.3-0.2-0.7-0.4-1.1-0.4
			c-0.2,0-0.4,0.1-0.6,0.2c-0.6,0.2-1.2,0.4-1.7,0.7c-1.7,0.7-3.5,1.2-5.3,1.6c-0.6,0.1-1.3,0.3-1.9,0.1c-1-0.2-1.5-0.9-1.8-1.8
			c-0.7,0.9-0.9,1.7-0.5,2.8c0.4,0.9,1.1,1.8,2.1,2c0.6,0.2,1,0,1.5-0.3c0.5-0.4,1.1-0.7,1.7-1.1c1.5-0.8,2.9-1.6,4.5-2.3
			c0.7-0.3,2.1-0.9,2.3,0.3c0.1,0.4-0.2,0.7-0.4,1c-0.3,0.4-0.6,0.8-0.9,1.2c-1.4,1.8-2.9,3.5-4.3,5.2c-1.4,1.7-2.7,3.4-4.2,5
			c-1.1,1.2-2.6,2.3-3.5,3.7c-0.3,0.4-0.4,0.9-0.4,1.4c0,0.7,0.4,1.9,1.3,1.8c0.9-0.2,1.5-1.1,2-1.7c0.7-0.8,1.4-1.7,2.1-2.5
			c1.3-1.5,2.8-2.8,4.6-3.7c0.4-0.2,0.9-0.4,1.3-0.6C626.7,130.6,625.5,131.2,624.4,131.8z M632.4,129.8c-0.5,0-0.9,0-1.4,0.1
			c1.4,0,2.8,0.2,3.8,1.3c0.9,1,1.3,2.4,1.3,3.7c0,3-1.9,5.3-4.3,6.9c-1.5,1.1-3.3,1.8-5,2.5c2.5-0.1,5-0.5,7.3-1.3
			c1.7-0.6,3.4-1.6,4.5-3.1c1.8-2.4,1.7-6-0.6-8.1C636.5,130.3,634.4,129.8,632.4,129.8C632,129.8,636.8,129.8,632.4,129.8z"/>
		<path id="XMLID_202_" d="M656.5,141.2c-1.7,0-3.7-0.5-4.9-1.9c-1.7-1.9-1.6-4.4-1.3-6.8c0.3-2.2,1.1-4.3,1.9-6.4
			c0.5-1.2,1-2.5,1.4-3.7c0.3-1.1,0.6-2.2,0.3-3.3c-0.4-1.2-1.3-2.1-2.5-2.5c-1.2-0.4-2.4,0-3.5,0.6c3.1,0.8,3.1,4.4,2.9,7
			c-0.2,1.5-0.4,3.1-0.6,4.6c-0.2,1.9-0.4,3.9-0.6,5.8c-0.2,1.7-0.4,3.4,0,5.1c0.3,1.2,1,2.2,2,3c2.5,1.9,6.3,2.1,9.2,1
			c3.1-1.2,5.3-4,6.9-6.9c0.2-0.5,0.5-0.9,0.7-1.4c-1,1.5-2.2,3-3.8,4c-1.4,0.9-3,1.4-4.7,1.6C658.7,141.2,657.6,141.2,656.5,141.2z
			"/>
	</g>
	<g id="XMLID_158_">
		<path id="XMLID_199_" d="M561,157.2L561,157.2c0.2-0.1,0.4-0.1,0.5-0.2c0.1-0.1,0.2-0.2,0.3-0.2c0-0.1,0-0.1,0.1-0.2
			c0-0.1,0-0.2,0-0.3c0-0.3,0-0.6,0-0.8c0-0.3,0-0.5,0-0.8v-1.9c-0.1,0.3-0.3,0.6-0.4,0.9c-0.1,0.3-0.2,0.5-0.4,0.8
			c-0.1,0.3-0.2,0.5-0.4,0.8c-0.1,0.3-0.3,0.6-0.4,0.9c0,0-0.1,0.1-0.1,0.2c0,0.1-0.1,0.2-0.1,0.3c0,0.1-0.1,0.2-0.1,0.3
			c0,0.1-0.1,0.1-0.1,0.2h0c-0.1-0.3-0.3-0.7-0.4-1c-0.1-0.3-0.3-0.6-0.4-0.9c-0.1-0.3-0.3-0.6-0.4-0.8c-0.1-0.3-0.2-0.5-0.3-0.7
			c-0.1-0.2-0.2-0.4-0.2-0.5c-0.1-0.1-0.1-0.2-0.1-0.3c0,0.3,0,0.6,0,0.8c0,0.2,0,0.4,0,0.7c0,0.2,0,0.5,0,0.7s0,0.5,0,0.9
			c0,0.2,0,0.4,0,0.5c0,0.2,0,0.3,0.1,0.4c0.1,0.1,0.1,0.2,0.2,0.2c0.1,0.1,0.3,0.1,0.4,0.1v0.1h-1.7v-0.1c0.2,0,0.3-0.1,0.4-0.1
			c0.1-0.1,0.2-0.1,0.2-0.2c0.1-0.1,0.1-0.2,0.1-0.4c0-0.2,0-0.3,0-0.6c0-0.2,0-0.4,0-0.7c0-0.3,0-0.5,0-0.8c0-0.1,0-0.2,0-0.3
			c0-0.1,0-0.2,0-0.3c0-0.1,0-0.2,0-0.3c0-0.1,0-0.2,0-0.3c0-0.1,0-0.2-0.1-0.3c0-0.1-0.1-0.1-0.2-0.2c-0.1,0-0.1-0.1-0.2-0.1
			c-0.1,0-0.1,0-0.2,0v-0.1h1.4l1.6,3.6c0.2-0.4,0.4-0.8,0.6-1.3c0.2-0.4,0.4-0.8,0.5-1.1c0.1-0.3,0.3-0.6,0.4-0.8
			c0.1-0.2,0.1-0.4,0.2-0.4h1.4v0.1c-0.2,0-0.3,0-0.4,0.1c-0.1,0.1-0.2,0.2-0.2,0.3c0,0.1,0,0.2-0.1,0.4c0,0.2,0,0.3,0,0.5
			c0,0.2,0,0.4,0,0.6c0,0.2,0,0.4,0,0.6c0,0.2,0,0.5,0,0.7c0,0.2,0,0.5,0,0.7c0,0.1,0,0.2,0,0.3c0,0.1,0,0.2,0.1,0.2c0,0,0,0,0,0.1
			c0,0,0.1,0.1,0.1,0.1c0.1,0,0.1,0.1,0.2,0.1c0.1,0,0.2,0,0.3,0.1v0.1H561z"/>
		<path id="XMLID_196_" d="M568.9,157.2L568.9,157.2C568.9,157.2,568.9,157.2,568.9,157.2c0.1-0.1,0.2-0.1,0.3-0.1
			c0.1,0,0.1-0.1,0.1-0.1c0,0,0.1-0.1,0.1-0.2c0,0,0-0.1,0-0.2c0-0.1-0.1-0.2-0.1-0.3c0-0.1-0.1-0.3-0.2-0.4
			c-0.1-0.2-0.1-0.3-0.2-0.5h-1.8c-0.1,0.2-0.1,0.3-0.2,0.5c-0.1,0.2-0.1,0.3-0.2,0.5c-0.1,0.2-0.1,0.4-0.1,0.5c0,0.1,0,0.1,0.1,0.1
			c0,0,0.1,0.1,0.1,0.1c0.1,0,0.1,0,0.2,0.1c0.1,0,0.1,0,0.2,0v0.1h-1.4v-0.1c0.1,0,0.2,0,0.3-0.1c0.1,0,0.1-0.1,0.1-0.1
			c0,0,0.1-0.1,0.2-0.2c0.1-0.1,0.2-0.3,0.3-0.5c0.1-0.2,0.2-0.4,0.3-0.7c0.1-0.3,0.2-0.5,0.4-0.8c0.1-0.3,0.2-0.6,0.4-0.9
			c0.1-0.3,0.2-0.6,0.3-0.8l-0.1-0.1c0.1,0,0.2-0.1,0.2-0.1c0.1,0,0.1-0.1,0.2-0.2c0-0.1,0.1-0.1,0.1-0.2c0,0,0.1-0.1,0.1-0.1h0.1
			c0.1,0.4,0.3,0.7,0.4,1c0.1,0.3,0.2,0.6,0.4,1c0.1,0.3,0.2,0.6,0.3,0.9c0.1,0.3,0.2,0.6,0.3,0.8c0,0.1,0.1,0.3,0.1,0.3
			c0,0.1,0.1,0.2,0.1,0.3c0,0,0,0,0.1,0.1c0,0,0.1,0.1,0.1,0.1c0.1,0,0.1,0.1,0.2,0.1c0.1,0,0.2,0.1,0.3,0.1v0.1H568.9z M568,153.2
			c0,0.1-0.1,0.1-0.1,0.3s-0.1,0.3-0.2,0.5c-0.1,0.2-0.2,0.4-0.2,0.6c-0.1,0.2-0.2,0.5-0.3,0.7h1.7c-0.1-0.2-0.2-0.4-0.2-0.6
			s-0.2-0.4-0.2-0.6c-0.1-0.2-0.1-0.4-0.2-0.5C568.1,153.4,568.1,153.3,568,153.2z"/>
		<path id="XMLID_192_" d="M577.5,156.4c0,0.1-0.1,0.2-0.2,0.3c-0.1,0.1-0.2,0.2-0.3,0.2c-0.1,0.1-0.2,0.1-0.3,0.2
			c-0.2,0.1-0.4,0.1-0.6,0.1c-0.2,0-0.4,0-0.6,0h-2.3v-0.1c0.1,0,0.2,0,0.3-0.1s0.2-0.1,0.2-0.2c0,0,0-0.1,0.1-0.1
			c0-0.1,0-0.1,0-0.2c0-0.1,0-0.1,0-0.2c0-0.1,0-0.1,0-0.2c0-0.1,0-0.1,0-0.3c0-0.1,0-0.2,0-0.3c0-0.1,0-0.3,0-0.4
			c0-0.1,0-0.3,0-0.4c0-0.1,0-0.3,0-0.4c0-0.1,0-0.2,0-0.3c0-0.1,0-0.2,0-0.3c0-0.1,0-0.2,0-0.4c0-0.1,0-0.2,0-0.2
			c0-0.1,0-0.2,0-0.2c0-0.1,0-0.1,0-0.2c0-0.1,0-0.1-0.1-0.1c-0.1-0.1-0.1-0.1-0.2-0.1c-0.1,0-0.2,0-0.3-0.1v-0.1h2.2
			c0.2,0,0.3,0,0.5,0c0.2,0,0.3,0.1,0.4,0.1c0.2,0.1,0.4,0.2,0.6,0.4c0.1,0.2,0.2,0.4,0.2,0.7c0,0.3-0.1,0.5-0.3,0.7
			c-0.2,0.2-0.4,0.3-0.7,0.4v0c0.2,0,0.3,0.1,0.5,0.1c0.2,0.1,0.3,0.1,0.4,0.2c0.1,0.1,0.2,0.2,0.3,0.4c0.1,0.1,0.1,0.3,0.1,0.5
			C577.6,156.1,577.6,156.2,577.5,156.4z M576.4,153c-0.1-0.2-0.3-0.3-0.4-0.4c-0.2-0.1-0.5-0.1-0.8-0.1c-0.1,0-0.2,0-0.3,0
			c-0.1,0-0.1,0-0.2,0c0,0,0,0.1,0,0.1c0,0,0,0.1,0,0.1c0,0,0,0.1,0,0.1c0,0,0,0.1,0,0.2c0,0.2,0,0.3,0,0.5c0,0.2,0,0.4,0,0.5
			c0,0.2,0,0.3,0,0.4s0,0.2,0,0.2c0.1,0,0.3,0,0.4,0c0.1,0,0.2,0,0.2,0c0.4,0,0.7-0.1,0.9-0.3c0.2-0.2,0.3-0.5,0.3-0.8
			C576.6,153.4,576.5,153.2,576.4,153z M576.8,155.6c0-0.1-0.1-0.2-0.2-0.3c-0.1-0.1-0.2-0.2-0.3-0.2c-0.1-0.1-0.2-0.1-0.3-0.2
			c-0.1,0-0.2-0.1-0.3-0.1c-0.1,0-0.2,0-0.3,0h-0.6c0,0.1,0,0.3,0,0.4s0,0.3,0,0.4c0,0.1,0,0.2,0,0.3c0,0.1,0,0.2,0,0.3
			c0,0.2,0,0.3,0,0.4c0,0.1,0,0.2,0.1,0.3c0,0,0.1,0.1,0.2,0.1c0.1,0,0.2,0.1,0.3,0.1c0.1,0,0.3,0,0.4,0c0.2,0,0.3-0.1,0.4-0.1
			c0.2-0.1,0.3-0.2,0.4-0.4c0.1-0.2,0.2-0.4,0.2-0.6C576.8,155.9,576.8,155.8,576.8,155.6z"/>
		<path id="XMLID_189_" d="M585.4,155.8c-0.1,0.3-0.3,0.6-0.5,0.8c-0.2,0.2-0.5,0.4-0.8,0.5c-0.3,0.1-0.6,0.2-1,0.2
			c-0.3,0-0.7-0.1-1-0.2c-0.3-0.1-0.6-0.3-0.8-0.5s-0.4-0.5-0.5-0.8c-0.1-0.3-0.2-0.6-0.2-1c0-0.4,0.1-0.7,0.2-1
			c0.1-0.3,0.3-0.6,0.6-0.8c0.2-0.2,0.5-0.4,0.8-0.5c0.3-0.1,0.6-0.2,1-0.2c0.4,0,0.7,0.1,1,0.2c0.3,0.1,0.6,0.3,0.8,0.5
			c0.2,0.2,0.4,0.5,0.5,0.8c0.1,0.3,0.2,0.6,0.2,0.9C585.6,155.2,585.6,155.5,585.4,155.8z M584.7,154c-0.1-0.3-0.2-0.5-0.3-0.7
			c-0.1-0.2-0.3-0.4-0.5-0.5c-0.2-0.1-0.5-0.2-0.7-0.2c-0.3,0-0.5,0.1-0.7,0.2c-0.2,0.1-0.4,0.3-0.5,0.5c-0.1,0.2-0.2,0.5-0.3,0.8
			c-0.1,0.3-0.1,0.6-0.1,0.9c0,0.3,0,0.6,0.1,0.9c0.1,0.3,0.2,0.5,0.3,0.7c0.1,0.2,0.3,0.4,0.5,0.5c0.2,0.1,0.5,0.2,0.7,0.2
			c0.3,0,0.5-0.1,0.7-0.2c0.2-0.1,0.4-0.3,0.5-0.5c0.1-0.2,0.2-0.5,0.3-0.8c0.1-0.3,0.1-0.6,0.1-0.8
			C584.8,154.6,584.8,154.3,584.7,154z"/>
		<path id="XMLID_186_" d="M592.2,157.2C592.2,157.2,592.1,157.2,592.2,157.2c-0.1-0.1-0.1-0.1-0.1-0.2c0,0,0-0.1-0.1-0.1
			c0-0.1-0.1-0.1-0.2-0.2c-0.1-0.1-0.2-0.2-0.2-0.3c-0.1-0.1-0.1-0.2-0.2-0.3c-0.1-0.1-0.1-0.2-0.2-0.3c-0.1-0.1-0.2-0.2-0.3-0.3
			c-0.1-0.1-0.2-0.2-0.3-0.3c-0.1-0.1-0.2-0.1-0.3-0.2c-0.1,0-0.1,0-0.2,0c0,0-0.1,0-0.2,0c0,0.3,0,0.5,0,0.8c0,0.2,0,0.4,0,0.5
			c0,0.1,0,0.3,0,0.4c0,0.1,0,0.2,0.1,0.3c0,0.1,0.1,0.1,0.2,0.2c0.1,0.1,0.2,0.1,0.4,0.1v0.1h-2.1v-0.1c0.1,0,0.2,0,0.3-0.1
			c0.1,0,0.2-0.1,0.2-0.2c0,0,0-0.1,0.1-0.1c0-0.1,0-0.1,0-0.2c0-0.1,0-0.1,0-0.2c0-0.1,0-0.1,0-0.2c0-0.1,0-0.1,0-0.3
			c0-0.1,0-0.2,0-0.3c0-0.1,0-0.3,0-0.4c0-0.1,0-0.3,0-0.4v-1.3c0-0.1,0-0.2,0-0.2c0-0.1,0-0.2,0-0.2c0-0.1,0-0.1,0-0.2
			c0-0.1,0-0.1-0.1-0.1c-0.1-0.1-0.1-0.1-0.2-0.1c-0.1,0-0.2,0-0.3-0.1v-0.1c0,0,0.1,0,0.3,0c0.2,0,0.3,0,0.5,0s0.4,0,0.6,0
			c0.2,0,0.3,0,0.5,0c0.3,0,0.6,0,0.8,0c0.2,0,0.4,0.1,0.6,0.2c0.2,0.1,0.4,0.2,0.5,0.4c0.1,0.2,0.2,0.4,0.2,0.7
			c0,0.2,0,0.3-0.1,0.4c-0.1,0.1-0.1,0.2-0.2,0.3c-0.1,0.1-0.2,0.2-0.3,0.3c-0.1,0.1-0.3,0.1-0.4,0.2v0c0.1,0,0.1,0.1,0.2,0.2
			c0.1,0.1,0.1,0.2,0.2,0.3c0.1,0.2,0.2,0.4,0.4,0.5c0.1,0.2,0.3,0.4,0.4,0.5c0.2,0.2,0.3,0.4,0.5,0.5c0.2,0.1,0.3,0.2,0.5,0.2v0.1
			H592.2z M591.5,153.1c-0.1-0.2-0.3-0.3-0.5-0.4c-0.1,0-0.2-0.1-0.3-0.1c-0.1,0-0.2,0-0.4,0c-0.1,0-0.2,0-0.2,0c-0.1,0-0.1,0-0.1,0
			c0,0,0,0.1,0,0.1c0,0,0,0,0,0.1c0,0,0,0.1,0,0.1c0,0.1,0,0.1,0,0.2c0,0.2,0,0.3,0,0.5c0,0.2,0,0.4,0,0.6c0,0.2,0,0.3,0,0.5
			c0,0.1,0,0.2,0,0.3c0.2,0,0.4,0,0.5,0c0.2,0,0.3,0,0.5-0.1c0.1,0,0.3-0.1,0.4-0.2c0.1-0.1,0.2-0.2,0.2-0.3
			c0.1-0.1,0.1-0.2,0.1-0.3c0-0.1,0-0.2,0-0.3C591.7,153.5,591.7,153.3,591.5,153.1z"/>
		<path id="XMLID_183_" d="M600.8,155.8c-0.1,0.3-0.3,0.6-0.5,0.8c-0.2,0.2-0.5,0.4-0.8,0.5c-0.3,0.1-0.6,0.2-1,0.2
			c-0.3,0-0.7-0.1-1-0.2c-0.3-0.1-0.6-0.3-0.8-0.5s-0.4-0.5-0.5-0.8c-0.1-0.3-0.2-0.6-0.2-1c0-0.4,0.1-0.7,0.2-1
			c0.1-0.3,0.3-0.6,0.6-0.8c0.2-0.2,0.5-0.4,0.8-0.5c0.3-0.1,0.6-0.2,1-0.2c0.4,0,0.7,0.1,1,0.2c0.3,0.1,0.6,0.3,0.8,0.5
			c0.2,0.2,0.4,0.5,0.5,0.8c0.1,0.3,0.2,0.6,0.2,0.9C601,155.2,600.9,155.5,600.8,155.8z M600,154c-0.1-0.3-0.2-0.5-0.3-0.7
			c-0.1-0.2-0.3-0.4-0.5-0.5c-0.2-0.1-0.5-0.2-0.7-0.2c-0.3,0-0.5,0.1-0.7,0.2c-0.2,0.1-0.4,0.3-0.5,0.5c-0.1,0.2-0.2,0.5-0.3,0.8
			s-0.1,0.6-0.1,0.9c0,0.3,0,0.6,0.1,0.9c0.1,0.3,0.2,0.5,0.3,0.7c0.1,0.2,0.3,0.4,0.5,0.5c0.2,0.1,0.5,0.2,0.7,0.2
			c0.3,0,0.5-0.1,0.7-0.2c0.2-0.1,0.4-0.3,0.5-0.5c0.1-0.2,0.2-0.5,0.3-0.8c0.1-0.3,0.1-0.6,0.1-0.8
			C600.1,154.6,600.1,154.3,600,154z"/>
		<path id="XMLID_181_" d="M607.2,156.5c-0.1,0.2-0.2,0.3-0.4,0.4c-0.2,0.1-0.3,0.2-0.5,0.3c-0.2,0.1-0.4,0.1-0.7,0.1
			c-0.2,0-0.4,0-0.6,0c-0.2,0-0.3-0.1-0.4-0.1c-0.1,0-0.2-0.1-0.2-0.1c-0.1,0-0.1,0-0.1,0s0,0-0.1,0.1c0,0.1-0.1,0.1-0.1,0.2H604
			l0-1.3h0.1c0,0.1,0.1,0.2,0.2,0.3c0.1,0.1,0.1,0.2,0.2,0.3c0.1,0.1,0.2,0.2,0.2,0.3c0.1,0.1,0.2,0.1,0.2,0.2
			c0.1,0,0.2,0.1,0.3,0.1c0.1,0,0.2,0.1,0.4,0.1c0.3,0,0.6-0.1,0.8-0.3c0.2-0.2,0.3-0.4,0.3-0.7c0-0.1,0-0.2-0.1-0.3
			c0-0.1-0.1-0.2-0.2-0.2c-0.1-0.1-0.1-0.1-0.2-0.2s-0.2-0.1-0.3-0.1c-0.1,0-0.2-0.1-0.3-0.1c-0.1,0-0.2-0.1-0.2-0.1
			c-0.1,0-0.1,0-0.2-0.1c-0.1,0-0.2-0.1-0.3-0.1c-0.1,0-0.2-0.1-0.3-0.2c-0.1-0.1-0.2-0.2-0.3-0.3c-0.1-0.1-0.1-0.2-0.2-0.3
			c0-0.1-0.1-0.3-0.1-0.4c0-0.2,0-0.4,0.1-0.6c0.1-0.2,0.2-0.3,0.4-0.4c0.1-0.1,0.3-0.2,0.5-0.3c0.2-0.1,0.4-0.1,0.6-0.1
			c0.2,0,0.4,0,0.5,0c0.1,0,0.3,0.1,0.3,0.1c0.1,0,0.2,0.1,0.2,0.1c0,0,0.1,0,0.1,0c0,0,0,0,0.1-0.1c0-0.1,0.1-0.1,0.1-0.2h0.1v1.2
			H607c-0.1-0.1-0.1-0.3-0.2-0.4c-0.1-0.1-0.2-0.3-0.3-0.4c-0.1-0.1-0.2-0.2-0.4-0.3c-0.1-0.1-0.3-0.1-0.5-0.1c-0.1,0-0.3,0-0.4,0.1
			s-0.2,0.1-0.3,0.2c-0.1,0.1-0.2,0.2-0.2,0.3s-0.1,0.3-0.1,0.4c0,0.2,0.1,0.4,0.2,0.6c0.1,0.1,0.3,0.3,0.6,0.3
			c0.1,0,0.2,0.1,0.2,0.1c0.1,0,0.2,0.1,0.2,0.1c0.1,0,0.2,0,0.2,0.1c0.1,0,0.2,0.1,0.2,0.1c0.3,0.1,0.5,0.3,0.7,0.5
			c0.2,0.2,0.2,0.5,0.2,0.8C607.3,156.2,607.3,156.3,607.2,156.5z"/>
		<path id="XMLID_179_" d="M613.7,157.2L613.7,157.2c0.2-0.1,0.3-0.1,0.4-0.2c0.1,0,0.2-0.1,0.2-0.2c0,0,0,0,0-0.1c0,0,0-0.1,0-0.1
			c0-0.1,0-0.1,0-0.2c0-0.1,0-0.1,0-0.2c0-0.1,0-0.3,0-0.5c0-0.2,0-0.3,0-0.4c0-0.1,0-0.3,0-0.4c0-0.1,0-0.2,0-0.2h-2.6v1.4
			c0,0.1,0,0.3,0,0.4c0,0.1,0,0.2,0.1,0.3c0.1,0.1,0.1,0.1,0.2,0.2c0.1,0,0.2,0.1,0.3,0.1v0.1h-2v-0.1c0.1,0,0.2,0,0.3-0.1
			c0.1,0,0.2-0.1,0.2-0.2c0,0,0-0.1,0-0.1c0-0.1,0-0.1,0-0.2c0-0.1,0-0.1,0-0.2c0-0.1,0-0.2,0-0.2c0-0.1,0-0.1,0-0.3
			c0-0.1,0-0.2,0-0.3c0-0.1,0-0.3,0-0.4c0-0.1,0-0.3,0-0.4v-1.3c0-0.1,0-0.2,0-0.2c0-0.1,0-0.2,0-0.2c0-0.1,0-0.1,0-0.2
			s0-0.1-0.1-0.1c-0.1-0.1-0.1-0.1-0.2-0.2c-0.1,0-0.2-0.1-0.3-0.1v-0.1h2v0.1c-0.1,0-0.1,0-0.2,0c-0.1,0-0.1,0-0.2,0.1
			c-0.1,0-0.1,0.1-0.1,0.2c0,0.1-0.1,0.2-0.1,0.3c0,0.2,0,0.3,0,0.5c0,0.2,0,0.4,0,0.5c0,0.2,0,0.3,0,0.4c0,0.1,0,0.2,0,0.2h2.6
			c0-0.1,0-0.3,0-0.4c0-0.1,0-0.2,0-0.3s0-0.2,0-0.3c0-0.1,0-0.2,0-0.4c0-0.1,0-0.2,0-0.3c0-0.1,0-0.2-0.1-0.2
			c-0.1-0.1-0.2-0.2-0.3-0.2c-0.1,0-0.2,0-0.3-0.1v-0.1h2v0.1c-0.1,0-0.2,0-0.3,0.1c-0.1,0-0.2,0.1-0.2,0.2c0,0,0,0.1,0,0.1
			c0,0.1,0,0.1,0,0.2c0,0.1,0,0.1,0,0.2c0,0.1,0,0.1,0,0.2v1.1c0,0.2,0,0.3,0,0.4c0,0.1,0,0.3,0,0.4c0,0.1,0,0.3,0,0.4
			c0,0.1,0,0.3,0,0.4c0,0.1,0,0.2,0,0.4c0,0.1,0,0.2,0,0.2c0.1,0.1,0.1,0.2,0.2,0.2c0.1,0,0.2,0.1,0.3,0.1v0.1H613.7z"/>
		<path id="XMLID_177_" d="M618.8,157.2L618.8,157.2c0.1-0.1,0.2-0.1,0.3-0.2c0.1,0,0.2-0.1,0.2-0.2c0,0,0-0.1,0-0.1
			c0,0,0-0.1,0-0.2c0-0.1,0-0.1,0-0.2c0-0.1,0-0.1,0-0.2c0-0.1,0-0.1,0-0.3c0-0.1,0-0.2,0-0.3c0-0.1,0-0.3,0-0.4c0-0.1,0-0.3,0-0.4
			v-1.3c0-0.1,0-0.2,0-0.2c0-0.1,0-0.2,0-0.2c0-0.1,0-0.1,0-0.2s0-0.1-0.1-0.1c-0.1-0.1-0.1-0.1-0.2-0.2c-0.1,0-0.2-0.1-0.3-0.1
			v-0.1h2v0.1c-0.1,0-0.2,0-0.3,0.1c-0.1,0-0.2,0.1-0.2,0.2c0,0.1-0.1,0.2-0.1,0.3c0,0.1,0,0.2,0,0.3c0,0.1,0,0.2,0,0.3
			c0,0.1,0,0.2,0,0.3c0,0.1,0,0.2,0,0.3c0,0.1,0,0.2,0,0.4v1.5c0,0.1,0,0.3,0,0.4c0,0.1,0,0.2,0.1,0.3c0.1,0.1,0.1,0.1,0.3,0.2
			c0.1,0,0.2,0.1,0.3,0.1v0.1H618.8z"/>
		<path id="XMLID_175_" d="M632.2,154c-0.1-0.2-0.1-0.4-0.3-0.6c-0.1-0.2-0.3-0.3-0.4-0.5s-0.3-0.2-0.5-0.3
			c-0.2-0.1-0.4-0.1-0.6-0.1c-0.3,0-0.6,0.1-0.8,0.2c-0.2,0.1-0.4,0.3-0.6,0.5c-0.2,0.2-0.3,0.5-0.4,0.8c-0.1,0.3-0.1,0.6-0.1,0.9
			c0,0.3,0,0.6,0.1,0.9c0.1,0.3,0.2,0.5,0.4,0.7c0.2,0.2,0.4,0.4,0.6,0.5c0.2,0.1,0.5,0.2,0.8,0.2c0.2,0,0.4,0,0.6-0.1
			c0.2-0.1,0.4-0.2,0.5-0.3c0.2-0.1,0.3-0.3,0.4-0.5s0.2-0.4,0.2-0.6h0.1l0,1.5h-0.1c-0.1-0.1-0.1-0.1-0.2-0.2
			c-0.1-0.1-0.1-0.1-0.1-0.1c0,0,0,0-0.1,0.1c-0.1,0-0.2,0.1-0.3,0.2c-0.1,0.1-0.3,0.1-0.5,0.1c-0.2,0-0.4,0.1-0.7,0.1
			c-0.4,0-0.8-0.1-1.1-0.2c-0.3-0.1-0.6-0.3-0.8-0.5c-0.2-0.2-0.4-0.5-0.5-0.8c-0.1-0.3-0.2-0.6-0.2-1c0-0.1,0-0.2,0-0.3
			s0-0.2,0.1-0.3c0-0.1,0.1-0.2,0.1-0.4c0.1-0.1,0.1-0.3,0.2-0.4c0.1-0.2,0.2-0.3,0.3-0.4c0.1-0.1,0.3-0.3,0.5-0.4
			c0.2-0.1,0.4-0.2,0.6-0.2c0.2-0.1,0.5-0.1,0.8-0.1c0.3,0,0.5,0,0.7,0.1c0.2,0,0.4,0.1,0.5,0.2c0.1,0.1,0.2,0.1,0.3,0.2
			c0.1,0,0.1,0.1,0.1,0.1c0,0,0,0,0.1,0c0,0,0.1,0,0.1-0.1c0,0,0.1-0.1,0.1-0.1c0,0,0.1-0.1,0.1-0.1h0.1L632.2,154L632.2,154z"/>
		<path id="XMLID_172_" d="M638.1,156.3c-0.1,0.2-0.2,0.4-0.3,0.5c-0.1,0.2-0.3,0.3-0.5,0.4c-0.2,0.1-0.4,0.1-0.6,0.1
			c-0.2,0-0.4,0-0.5-0.1c-0.2-0.1-0.4-0.2-0.5-0.3c-0.2-0.1-0.3-0.3-0.4-0.5c-0.1-0.2-0.1-0.5-0.1-0.7c0-0.2,0-0.4,0.1-0.6
			c0.1-0.2,0.2-0.4,0.3-0.5c0.1-0.1,0.3-0.3,0.5-0.4c0.2-0.1,0.4-0.1,0.7-0.1c0.2,0,0.4,0,0.5,0.1c0.2,0.1,0.3,0.2,0.5,0.3
			c0.1,0.1,0.3,0.3,0.4,0.5c0.1,0.2,0.1,0.4,0.1,0.7C638.3,155.8,638.2,156.1,638.1,156.3z M637.6,155.1c0-0.2-0.1-0.3-0.2-0.5
			c-0.1-0.1-0.2-0.3-0.3-0.4c-0.1-0.1-0.3-0.1-0.5-0.1c-0.1,0-0.3,0-0.4,0.1c-0.1,0.1-0.2,0.2-0.3,0.3c-0.1,0.1-0.1,0.3-0.2,0.5
			c0,0.2-0.1,0.4-0.1,0.5c0,0.2,0,0.4,0.1,0.6c0,0.2,0.1,0.3,0.2,0.5c0.1,0.1,0.2,0.3,0.3,0.3c0.1,0.1,0.3,0.1,0.4,0.1
			c0.2,0,0.3-0.1,0.4-0.2c0.1-0.1,0.2-0.2,0.3-0.4c0.1-0.2,0.1-0.3,0.2-0.5c0-0.2,0-0.4,0-0.5C637.7,155.5,637.6,155.3,637.6,155.1z
			"/>
		<path id="XMLID_170_" d="M640.1,157.2c-0.1,0.1-0.2,0.1-0.3,0.1c-0.1,0-0.2,0-0.3-0.1c-0.1-0.1-0.1-0.2-0.1-0.3
			c0-0.1,0-0.2,0.1-0.3c0.1-0.1,0.2-0.1,0.3-0.1c0.1,0,0.2,0,0.3,0.1c0.1,0.1,0.1,0.2,0.1,0.3C640.2,157,640.1,157.1,640.1,157.2z"
			/>
		<path id="XMLID_168_" d="M642.6,157.5c0,0.1-0.1,0.2-0.1,0.3c-0.1,0.1-0.1,0.1-0.2,0.2c-0.1,0.1-0.1,0.1-0.2,0.2l0,0
			c0.1-0.1,0.2-0.2,0.3-0.4c0.1-0.1,0.1-0.3,0.1-0.5c0-0.1,0-0.1,0-0.2c0-0.1-0.1-0.1-0.1-0.1c0,0.1,0,0.2-0.1,0.2
			c-0.1,0.1-0.1,0.1-0.2,0.1c-0.1,0-0.2,0-0.2-0.1s-0.1-0.1-0.1-0.2c0-0.1,0-0.2,0.1-0.3c0.1-0.1,0.2-0.1,0.3-0.1
			c0.1,0,0.2,0,0.2,0.1c0.1,0,0.1,0.1,0.2,0.2c0.1,0.1,0.1,0.1,0.1,0.2c0,0.1,0,0.2,0,0.3C642.7,157.4,642.6,157.4,642.6,157.5z"/>
		<path id="XMLID_166_" d="M653.7,157.2h-4.3v-0.1c0.1,0,0.2,0,0.3-0.1s0.2-0.1,0.3-0.2c0,0,0-0.1,0.1-0.1c0-0.1,0-0.1,0-0.2
			c0-0.1,0-0.1,0-0.2c0-0.1,0-0.1,0-0.2c0-0.1,0-0.1,0-0.3c0-0.1,0-0.2,0-0.3c0-0.1,0-0.3,0-0.4c0-0.1,0-0.3,0-0.4v-1.3
			c0-0.1,0-0.2,0-0.2c0-0.1,0-0.2,0-0.2c0-0.1,0-0.1,0-0.2c0-0.1,0-0.1-0.1-0.1c-0.1-0.1-0.1-0.1-0.2-0.2c-0.1,0-0.2-0.1-0.3-0.1
			v-0.1h2.1v0.1c-0.1,0-0.1,0-0.2,0s-0.2,0-0.2,0.1c-0.1,0-0.1,0.1-0.2,0.2c-0.1,0.1-0.1,0.2-0.1,0.3c0,0.2,0,0.3,0,0.4
			c0,0.1,0,0.3,0,0.4c0,0.1,0,0.3,0,0.4c0,0.1,0,0.3,0,0.4c0,0.2,0,0.3,0,0.4c0,0.1,0,0.2,0,0.4c0,0.1,0,0.2,0,0.4
			c0,0.1,0,0.3,0,0.4c0,0.1,0,0.3,0,0.4c0,0.1,0,0.2,0.1,0.3c0,0,0.1,0,0.1,0.1c0.1,0,0.1,0,0.2,0.1c0.1,0,0.2,0,0.2,0
			c0.1,0,0.2,0,0.3,0c0,0,0.1,0,0.2,0c0.1,0,0.2,0,0.3,0c0.1,0,0.2,0,0.3,0c0.1,0,0.2,0,0.3-0.1c0.2,0,0.3-0.1,0.4-0.2
			c0.1-0.1,0.2-0.2,0.3-0.3c0.1-0.1,0.2-0.2,0.2-0.3c0.1-0.1,0.1-0.2,0.2-0.4l0.1,0L653.7,157.2z"/>
		<path id="XMLID_164_" d="M658.5,154.5h-1v1.8c0,0.2,0,0.4,0.1,0.5c0.1,0.1,0.2,0.2,0.4,0.2c0.1,0,0.2,0,0.3-0.1
			c0.1,0,0.2-0.1,0.2-0.2l0,0c0,0.1-0.1,0.1-0.1,0.2c0,0.1-0.1,0.1-0.2,0.2c-0.1,0.1-0.2,0.1-0.3,0.1c-0.1,0-0.2,0-0.4,0
			c-0.1,0-0.2,0-0.3,0c-0.1,0-0.2-0.1-0.2-0.1c-0.1-0.1-0.1-0.1-0.2-0.2c0-0.1-0.1-0.1-0.1-0.2c0-0.4,0-0.8,0-1.2c0-0.4,0-0.7,0-1
			h-0.5v-0.1l1-0.9h0.1v0.6h1.2L658.5,154.5z"/>
		<path id="XMLID_161_" d="M663.5,157.3L663.5,157.3l0-0.7h0c-0.1,0.2-0.3,0.4-0.5,0.5c-0.2,0.1-0.4,0.2-0.7,0.2
			c-0.2,0-0.3,0-0.5-0.1s-0.3-0.2-0.4-0.3c-0.1-0.1-0.2-0.3-0.3-0.5c-0.1-0.2-0.1-0.4-0.1-0.7c0-0.2,0-0.4,0.1-0.6s0.2-0.4,0.3-0.5
			c0.1-0.1,0.3-0.3,0.5-0.3c0.2-0.1,0.4-0.1,0.7-0.1c0.1,0,0.3,0,0.4,0c0.1,0,0.2,0,0.3,0.1c0-0.1,0-0.2,0-0.3c0-0.1,0-0.2,0-0.4
			s0-0.2,0-0.3c0-0.1,0-0.2,0-0.2l-0.5-0.2v0l1.1-0.3h0.1v4.3c0,0,0.1,0.1,0.2,0.1c0.1,0,0.2,0.1,0.3,0.1v0L663.5,157.3z
			 M663.4,154.8c-0.1-0.2-0.2-0.3-0.4-0.4c-0.2-0.1-0.3-0.2-0.4-0.2c-0.2,0-0.3,0-0.4,0.1c-0.1,0.1-0.2,0.2-0.3,0.3
			c-0.1,0.1-0.1,0.3-0.2,0.5c0,0.2-0.1,0.4-0.1,0.5c0,0.2,0,0.4,0.1,0.5c0,0.2,0.1,0.3,0.2,0.5c0.1,0.1,0.2,0.2,0.3,0.3
			c0.1,0.1,0.3,0.1,0.5,0.1c0.2,0,0.3-0.1,0.5-0.2c0.1-0.1,0.2-0.3,0.2-0.5V154.8z"/>
		<path id="XMLID_159_" d="M666.9,157.2c-0.1,0.1-0.2,0.1-0.3,0.1c-0.1,0-0.2,0-0.3-0.1c-0.1-0.1-0.1-0.2-0.1-0.3
			c0-0.1,0-0.2,0.1-0.3c0.1-0.1,0.2-0.1,0.3-0.1c0.1,0,0.2,0,0.3,0.1c0.1,0.1,0.1,0.2,0.1,0.3C667,157,667,157.1,666.9,157.2z"/>
	</g>
</g>
<path id="XMLID_156_" d="M653.4-12.8c-9.5,1.4-19,3.3-28.2,6.1C615-3.5,605,0.5,595.7,5.9c-6.4,3.7-12.6,8.1-18,13.2
	c-3.1,2.9-6.1,6.1-8.6,9.6c-0.5,0.6-1.1,1.4-1.4,2.2c0,0.1-0.1,0.1-0.1,0.2c0,0,0,0,0,0c0,0.1,0.2,0.4,0.3,0.6
	c0.2,0.5,0.5,1,0.7,1.6c1.7,3.5,3.3,7.1,5,10.6c0.8,1.7,1.6,3.4,2.4,5.1c8.3-4.2,17.2-7.2,26.4-8.8c-4.5,3-8.7,6.5-12.6,10.3
	c-2,1.9-3.8,4-5.6,6.1c-0.4,0.5-0.9,1.1-1.3,1.6c-0.5,0.6-1.1,1.2-1.4,1.9c-0.2,0.4-0.1,0.4,0.1,0.8c0.1,0.3,0.3,0.6,0.4,0.9
	c0.3,0.7,0.6,1.3,0.9,2c1.4,3,2.8,5.9,4.2,8.9c5.4-4,11.5-7.1,18-9c-3.2,3.1-5.7,6.9-7.2,11.1C596,80,596,85.6,597.1,91
	c0.8,4,2.2,7.9,4,11.6c0.2-0.4,0-1-0.1-1.4c-0.1-0.6-0.1-1.1-0.2-1.7c-0.1-1.2-0.2-2.3-0.2-3.5c0-2.3,0.2-4.6,0.6-6.9
	c0.8-4,2.3-7.7,4.1-11.3c0,0,0,0,0,0c1.2-1.9,2.4-3.8,3.9-5.6c1.6-1.9,3.4-3.7,5.4-5.2c1-0.8,2.1-1.6,3.3-2.3
	c0.5-0.3,1.2-0.6,1.5-1.1c0.4-0.6,0.6-1.4,1-2c1.3-2.9,2.7-5.8,4-8.6c-5.9-0.8-11.8-0.8-17.7,0c4.5-3.1,9.3-5.7,14.3-7.8
	c2.5-1,5-2,7.6-2.7c0.2-0.1,0.6-0.1,0.8-0.2c0.2-0.2,0.4-0.8,0.5-1c0.3-0.7,0.7-1.4,1-2.1c0.6-1.3,1.2-2.6,1.8-3.8
	c1.4-3,2.8-6,4.2-9c-11.5-2.4-23.2-3-34.9-1.7c2-1.1,4-2.2,6.1-3.1c2.5-1.1,5.1-2,7.7-2.9c4.1-1.4,8.4-2.4,12.6-3.2
	c3.3-0.6,6.6-1.2,9.9-1.6c0.8-0.1,1.6-0.2,2.4-0.3c0.4,0,0.8-0.1,1.2-0.1c0.2,0,0.4,0,0.6-0.1c0.4,0,0.4,0,0.6-0.3
	c0.5-0.6,0.7-1.6,1.1-2.3c0.4-0.9,0.8-1.7,1.2-2.6c3.3-7,6.4-14.1,9.8-21C654.6-12.9,654-12.8,653.4-12.8z"/>
</svg>
