<?xml version="1.0" encoding="UTF-8" standalone="no"?>
<svg width="542px" height="113px" viewBox="0 0 542 113" version="1.1" xmlns="http://www.w3.org/2000/svg" xmlns:xlink="http://www.w3.org/1999/xlink" xmlns:sketch="http://www.bohemiancoding.com/sketch/ns">
    <!-- Generator: Sketch 3.3.2 (12043) - http://www.bohemiancoding.com/sketch -->
    <title>UXRecipe-logotype-A</title>
    <desc>Created with Sketch.</desc>
    <defs>
        <path id="path-1" d="M0.06,0.69 L541.473,0.69 L541.473,112.94 L0.06,112.94 L0.06,0.69 Z"></path>
    </defs>
    <g id="Page-1" stroke="none" stroke-width="1" fill="none" fill-rule="evenodd" sketch:type="MSPage">
        <g id="UXRecipe-logotype-A" sketch:type="MSLayerGroup">
            <path d="M240.848,53.491 L252.013,53.491 C255.129,53.491 257.871,53.115 260.236,52.363 C262.601,51.612 264.581,50.547 266.175,49.172 C267.771,47.797 268.971,46.157 269.778,44.25 C270.585,42.344 270.988,40.235 270.988,37.925 C270.988,33.232 269.439,29.694 266.34,27.31 C263.242,24.927 258.631,23.735 252.508,23.735 L240.848,23.735 L240.848,53.491 L240.848,53.491 Z M240.848,61.246 L240.848,94.135 L230.233,94.135 L230.233,15.32 L252.508,15.32 C257.494,15.32 261.803,15.825 265.433,16.832 C269.063,17.841 272.061,19.299 274.425,21.205 C276.791,23.112 278.542,25.412 279.678,28.108 C280.814,30.803 281.383,33.819 281.383,37.155 C281.383,39.942 280.943,42.545 280.063,44.965 C279.183,47.385 277.909,49.558 276.241,51.483 C274.572,53.408 272.537,55.049 270.135,56.405 C267.734,57.762 265.011,58.79 261.968,59.485 C263.288,60.255 264.461,61.374 265.488,62.84 L288.478,94.135 L279.018,94.135 C277.075,94.135 275.644,93.384 274.728,91.88 L254.268,63.72 C253.644,62.84 252.966,62.207 252.233,61.823 C251.499,61.438 250.399,61.246 248.933,61.246 L240.848,61.246 L240.848,61.246 Z" id="Fill-1" fill="#FFFFFF" sketch:type="MSShapeGroup"></path>
            <path d="M320.708,44.745 C315.978,44.745 312.257,46.112 309.544,48.842 C306.829,51.575 305.143,55.36 304.483,60.201 L334.788,60.201 C334.788,57.927 334.476,55.846 333.853,53.957 C333.229,52.07 332.313,50.438 331.103,49.063 C329.893,47.688 328.417,46.624 326.675,45.872 C324.934,45.121 322.944,44.745 320.708,44.745 L320.708,44.745 Z M320.488,37.54 C323.824,37.54 326.904,38.1 329.728,39.217 C332.551,40.336 334.989,41.95 337.044,44.058 C339.096,46.166 340.7,48.77 341.856,51.868 C343.01,54.966 343.589,58.496 343.589,62.455 C343.589,63.996 343.423,65.022 343.092,65.536 C342.762,66.049 342.139,66.305 341.223,66.305 L304.153,66.305 C304.226,69.826 304.703,72.887 305.583,75.491 C306.464,78.094 307.673,80.267 309.214,82.007 C310.753,83.749 312.587,85.051 314.714,85.913 C316.839,86.775 319.223,87.206 321.863,87.206 C324.319,87.206 326.436,86.921 328.215,86.353 C329.993,85.785 331.524,85.17 332.807,84.51 C334.09,83.85 335.164,83.237 336.026,82.667 C336.886,82.1 337.63,81.815 338.253,81.815 C339.059,81.815 339.682,82.127 340.124,82.75 L342.874,86.326 C341.663,87.792 340.214,89.067 338.528,90.148 C336.84,91.23 335.036,92.12 333.11,92.815 C331.186,93.512 329.196,94.035 327.143,94.382 C325.089,94.731 323.053,94.905 321.038,94.905 C317.188,94.905 313.64,94.253 310.395,92.953 C307.151,91.652 304.345,89.745 301.981,87.233 C299.616,84.721 297.773,81.614 296.453,77.911 C295.133,74.207 294.473,69.955 294.473,65.15 C294.473,61.264 295.069,57.634 296.26,54.26 C297.452,50.887 299.167,47.962 301.403,45.488 C303.639,43.013 306.372,41.07 309.598,39.658 C312.824,38.247 316.454,37.54 320.488,37.54 L320.488,37.54 Z" id="Fill-2" fill="#FFFFFF" sketch:type="MSShapeGroup"></path>
            <path d="M394.077,48.32 C393.782,48.724 393.489,49.036 393.196,49.255 C392.903,49.475 392.481,49.585 391.93,49.585 C391.382,49.585 390.784,49.357 390.143,48.898 C389.503,48.44 388.686,47.935 387.696,47.385 C386.706,46.835 385.505,46.331 384.094,45.872 C382.682,45.414 380.95,45.185 378.897,45.185 C376.182,45.185 373.782,45.671 371.692,46.643 C369.6,47.615 367.85,49.017 366.438,50.85 C365.026,52.684 363.964,54.902 363.249,57.505 C362.534,60.109 362.176,63.024 362.176,66.25 C362.176,69.624 362.561,72.622 363.331,75.243 C364.1,77.865 365.182,80.065 366.577,81.842 C367.969,83.622 369.665,84.978 371.663,85.913 C373.661,86.848 375.907,87.315 378.401,87.315 C380.784,87.315 382.747,87.032 384.286,86.462 C385.827,85.895 387.11,85.262 388.135,84.565 C389.163,83.87 390.007,83.237 390.667,82.667 C391.327,82.1 391.987,81.815 392.647,81.815 C393.489,81.815 394.112,82.127 394.516,82.75 L397.266,86.326 C394.846,89.295 391.821,91.467 388.192,92.842 C384.561,94.217 380.729,94.905 376.696,94.905 C373.212,94.905 369.977,94.263 366.989,92.98 C364.001,91.697 361.407,89.836 359.206,87.398 C357.007,84.959 355.274,81.962 354.008,78.405 C352.744,74.849 352.111,70.797 352.111,66.25 C352.111,62.107 352.688,58.275 353.844,54.755 C354.999,51.235 356.684,48.202 358.903,45.653 C361.122,43.105 363.862,41.116 367.126,39.685 C370.389,38.255 374.13,37.54 378.346,37.54 C382.233,37.54 385.678,38.172 388.686,39.438 C391.692,40.703 394.35,42.491 396.661,44.8 L394.077,48.32" id="Fill-3" fill="#FFFFFF" sketch:type="MSShapeGroup"></path>
            <g id="Group-11">
                <mask id="mask-2" sketch:name="Clip 5" fill="white">
                    <use xlink:href="#path-1"></use>
                </mask>
                <g id="Clip-5"></g>
                <path d="M408.541,38.42 L418.331,38.42 L418.331,94.135 L408.541,94.135 L408.541,38.42 Z M420.531,20.93 C420.531,21.884 420.339,22.773 419.954,23.598 C419.568,24.422 419.054,25.157 418.414,25.797 C417.771,26.44 417.029,26.944 416.186,27.31 C415.341,27.677 414.444,27.86 413.491,27.86 C412.537,27.86 411.648,27.677 410.823,27.31 C409.999,26.944 409.264,26.44 408.624,25.797 C407.981,25.157 407.477,24.422 407.111,23.598 C406.744,22.773 406.561,21.884 406.561,20.93 C406.561,19.977 406.744,19.07 407.111,18.207 C407.477,17.346 407.981,16.594 408.624,15.953 C409.264,15.312 409.999,14.807 410.823,14.44 C411.648,14.074 412.537,13.89 413.491,13.89 C414.444,13.89 415.341,14.074 416.186,14.44 C417.029,14.807 417.771,15.312 418.414,15.953 C419.054,16.594 419.568,17.346 419.954,18.207 C420.339,19.07 420.531,19.977 420.531,20.93 L420.531,20.93 Z" id="Fill-4" fill="#FFFFFF" sketch:type="MSShapeGroup" mask="url(#mask-2)"></path>
                <path d="M460.406,45.35 C457.215,45.35 454.42,46.084 452.018,47.55 C449.617,49.017 447.407,51.089 445.391,53.765 L445.391,80.715 C447.187,83.135 449.159,84.84 451.303,85.831 C453.449,86.82 455.84,87.315 458.481,87.315 C463.651,87.315 467.629,85.464 470.416,81.76 C473.202,78.057 474.596,72.777 474.596,65.92 C474.596,62.29 474.274,59.174 473.633,56.57 C472.992,53.967 472.066,51.832 470.856,50.162 C469.646,48.495 468.161,47.275 466.401,46.505 C464.641,45.735 462.642,45.35 460.406,45.35 L460.406,45.35 Z M435.601,113 L435.601,38.42 L441.431,38.42 C442.824,38.42 443.704,39.099 444.071,40.455 L444.896,47.055 C447.279,44.159 450.002,41.831 453.063,40.07 C456.125,38.31 459.654,37.43 463.651,37.43 C466.84,37.43 469.737,38.044 472.34,39.273 C474.944,40.501 477.162,42.317 478.996,44.717 C480.829,47.12 482.241,50.099 483.231,53.655 C484.221,57.212 484.715,61.3 484.715,65.92 C484.715,70.027 484.166,73.85 483.066,77.388 C481.965,80.926 480.389,83.988 478.336,86.573 C476.282,89.158 473.761,91.193 470.773,92.678 C467.785,94.163 464.421,94.905 460.681,94.905 C457.234,94.905 454.292,94.336 451.853,93.201 C449.415,92.064 447.261,90.451 445.391,88.36 L445.391,113 L435.601,113 L435.601,113 Z" id="Fill-6" fill="#FFFFFF" sketch:type="MSShapeGroup" mask="url(#mask-2)"></path>
                <path d="M518.593,44.745 C513.864,44.745 510.142,46.112 507.428,48.842 C504.715,51.575 503.029,55.36 502.369,60.201 L532.674,60.201 C532.674,57.927 532.362,55.846 531.739,53.957 C531.115,52.07 530.199,50.438 528.989,49.063 C527.779,47.688 526.302,46.624 524.561,45.872 C522.819,45.121 520.83,44.745 518.593,44.745 L518.593,44.745 Z M518.374,37.54 C521.71,37.54 524.79,38.1 527.614,39.217 C530.437,40.336 532.875,41.95 534.928,44.058 C536.982,46.166 538.587,48.77 539.741,51.868 C540.896,54.966 541.473,58.496 541.473,62.455 C541.473,63.996 541.308,65.022 540.979,65.536 C540.649,66.049 540.025,66.305 539.109,66.305 L502.039,66.305 C502.112,69.826 502.589,72.887 503.468,75.491 C504.348,78.094 505.558,80.267 507.098,82.007 C508.638,83.749 510.471,85.051 512.598,85.913 C514.725,86.775 517.109,87.206 519.749,87.206 C522.205,87.206 524.322,86.921 526.101,86.353 C527.88,85.785 529.41,85.17 530.694,84.51 C531.977,83.85 533.049,83.237 533.911,82.667 C534.772,82.1 535.515,81.815 536.138,81.815 C536.945,81.815 537.569,82.127 538.008,82.75 L540.758,86.326 C539.549,87.792 538.1,89.067 536.414,90.148 C534.727,91.23 532.922,92.12 530.996,92.815 C529.071,93.512 527.082,94.035 525.029,94.382 C522.975,94.731 520.94,94.905 518.924,94.905 C515.074,94.905 511.526,94.253 508.281,92.953 C505.036,91.652 502.231,89.745 499.866,87.233 C497.502,84.721 495.659,81.614 494.339,77.911 C493.019,74.207 492.359,69.955 492.359,65.15 C492.359,61.264 492.955,57.634 494.146,54.26 C495.338,50.887 497.051,47.962 499.289,45.488 C501.525,43.013 504.257,41.07 507.484,39.658 C510.71,38.247 514.34,37.54 518.374,37.54 L518.374,37.54 Z" id="Fill-7" fill="#FFFFFF" sketch:type="MSShapeGroup" mask="url(#mask-2)"></path>
                <path d="M43.503,106.408 C31.172,106.408 20.619,102.355 12.982,94.686 C0.201,81.849 -0.009,63.606 0,61.582 L0,12.832 C-0.009,6.205 5.356,0.824 11.983,0.815 L12.001,0.815 C18.62,0.815 23.991,6.176 24,12.798 L23.917,61.732 C23.917,61.766 24.024,67.834 26.884,73.394 C30.091,79.628 35.216,82.408 43.503,82.408 C54.483,82.408 58.528,77.517 60.615,73.837 C63.32,69.067 63.704,62.464 63.745,61.748 L63.745,12.702 C63.745,6.075 69.118,0.702 75.745,0.702 C82.373,0.702 87.745,6.075 87.745,12.702 L87.744,62.175 C87.458,79.386 75.439,106.408 43.503,106.408" id="Fill-8" fill="#FFFFFF" sketch:type="MSShapeGroup" mask="url(#mask-2)"></path>
                <path d="M127.051,38.2 C123.41,38.2 119.814,36.55 117.456,33.417 L107.285,19.909 C103.299,14.614 104.36,7.091 109.654,3.105 C114.949,-0.883 122.472,0.178 126.458,5.473 L136.629,18.982 C140.615,24.276 139.554,31.8 134.26,35.786 C132.098,37.414 129.564,38.2 127.051,38.2" id="Fill-9" fill="#77BB4C" sketch:type="MSShapeGroup" mask="url(#mask-2)"></path>
                <path d="M186.459,85.321 L161.814,52.587 L186.458,19.909 C190.445,14.614 189.384,7.091 184.09,3.105 C178.794,-0.882 171.27,0.179 167.285,5.473 L107.06,85.332 C103.074,90.627 104.134,98.151 109.429,102.137 C111.591,103.765 114.125,104.551 116.637,104.551 C120.278,104.551 123.875,102.901 126.233,99.768 L146.781,72.521 L167.286,99.756 C169.645,102.889 173.241,104.539 176.882,104.539 C179.395,104.539 181.928,103.752 184.09,102.125 C189.385,98.139 190.445,90.615 186.459,85.321" id="Fill-10" fill="#FFFFFF" sketch:type="MSShapeGroup" mask="url(#mask-2)"></path>
            </g>
        </g>
    </g>
</svg>